<svg width="24" height="24" viewBox="0 0 24 24" fill="none" xmlns="http://www.w3.org/2000/svg">
<path d="M8.90402 8.8724L9.0489 8.7493L4.75001 5.00332L5.00001 5.00359H4.75001V5.00343C4.74138 13.0483 10.8827 19.2615 18.9964 19.25L18.9985 19.25H18.9992L18.9996 19.25L19.25 19.2504V19V16.3603V16.1446L19.0367 16.113C17.7907 15.9281 16.5768 15.5652 15.4339 15.0358L15.4339 15.0357L15.4238 15.031L15.2513 14.9511L15.1282 15.096C14.289 16.0838 12.7678 16.4366 11.5525 15.5927C10.3288 14.7429 9.25781 13.6721 8.4077 12.4482C7.5636 11.2329 7.91628 9.71169 8.90402 8.8724ZM7.88683 4.96446L7.6402 5.00107L7.88684 4.96448L7.88683 4.96446ZM5.0017 5.25C5.00065 5.17919 5.00009 5.10823 5.00001 5.03712V5.25H5.0017ZM18.75 18.9984V19H18.9505C18.8835 18.9999 18.8167 18.9994 18.75 18.9984ZM19 18.75V18.9997L19.0004 18.75L19 18.75ZM18.9989 20.75H18.9986C10.0491 20.7627 3.24044 13.8708 3.25001 5.0017V5.00143V4C3.25001 3.58579 3.5858 3.25 4.00001 3.25H8.50188C8.87356 3.25 9.18917 3.52222 9.24375 3.88987L9.37057 4.7442C9.53445 5.84811 9.85585 6.92279 10.325 7.93542L10.6741 8.68899C10.8257 9.01623 10.723 9.40503 10.4295 9.61462L9.95254 9.95522C9.43449 10.3252 9.26059 11.0467 9.63969 11.5925C10.3877 12.6695 11.3313 13.6129 12.4081 14.3606C12.9538 14.7396 13.6752 14.5657 14.0452 14.0477L14.386 13.5706C14.5956 13.2771 14.9844 13.1744 15.3116 13.3259L16.0644 13.6747C17.0771 14.1438 18.1519 14.4652 19.2559 14.6291L20.1101 14.7558C20.4778 14.8104 20.75 15.126 20.75 15.4977V20C20.75 20.4142 20.4142 20.75 20 20.75H18.9989Z" fill="#F2F3F3" stroke="#292F36" stroke-width="0.5"/>
</svg>
