<svg width="20" height="20" viewBox="0 0 20 20" fill="none" xmlns="http://www.w3.org/2000/svg">
<path fill-rule="evenodd" clip-rule="evenodd" d="M10.005 0.253906C8.66173 0.253906 7.37759 0.528249 6.20957 1.02287C6.20956 1.02287 6.20956 1.02287 6.20956 1.02287C6.20956 1.02287 6.20955 1.02287 6.20955 1.02287L6.20574 1.02451C5.04284 1.52458 3.99088 2.24689 3.1099 3.13624C2.2237 4.0266 1.51338 5.08998 1.02353 6.2634C0.527009 7.44415 0.254883 8.73489 0.254883 10.0941C0.254883 11.4474 0.526746 12.7436 1.02366 13.9208C1.51396 15.0978 2.22458 16.1581 3.10975 17.0501C3.99132 17.9401 5.04271 18.6596 6.20593 19.1594L6.20956 19.161C7.37656 19.6552 8.66064 19.9326 10.005 19.9326C11.354 19.9326 12.632 19.655 13.8014 19.1613L13.8054 19.1596C14.9713 18.6594 16.0185 17.9395 16.8987 17.0501C17.7834 16.1585 18.4976 15.0983 18.9906 13.9206C19.4863 12.7425 19.7544 11.4463 19.7544 10.0941V9.59413C19.7544 9.45606 19.6424 9.34413 19.5044 9.34413H19.0044H16.2275H13.4424H12.9424C12.8043 9.34413 12.6924 9.45606 12.6924 9.59413V10.0941V10.095C12.6924 10.5725 12.6122 11.0273 12.4681 11.4288L12.468 11.4292C12.3217 11.8377 12.114 12.1998 11.863 12.4972L11.8603 12.5005C11.6186 12.7902 11.3218 13.0248 11.0089 13.1837C10.6925 13.3405 10.3542 13.4258 10.005 13.4258C9.65872 13.4258 9.32072 13.3407 9.00232 13.183C8.68827 13.0249 8.39624 12.7923 8.15018 12.4989C8.15018 12.4989 8.15018 12.4989 8.15018 12.4989C8.15018 12.4989 8.15018 12.4989 8.15018 12.4989L8.14743 12.4957C7.89668 12.2001 7.69058 11.8391 7.54377 11.4292C7.3987 11.0242 7.31683 10.5699 7.31683 10.095C7.31683 9.61708 7.39881 9.16195 7.54377 8.75726L7.54406 8.75645C7.69091 8.345 7.8966 7.98525 8.1457 7.69374C8.1457 7.69373 8.14571 7.69373 8.14572 7.69374C8.14573 7.69374 8.14574 7.69374 8.14574 7.69374L8.15018 7.68845C8.39599 7.39535 8.68842 7.16208 9.00406 7.00175C9.31809 6.84569 9.65532 6.76241 10.005 6.76241H10.505C10.6431 6.76241 10.755 6.65048 10.755 6.51241V6.01241V3.50552V1.00391V0.503906C10.755 0.365835 10.6431 0.253906 10.505 0.253906H10.005ZM4.17499 4.19244C4.92192 3.43829 5.81333 2.82636 6.7964 2.40332C7.48291 2.1128 8.21691 1.91219 8.9829 1.817C9.12877 1.79888 9.25504 1.91448 9.25504 2.06146V3.50552V5.13602C9.25504 5.2545 9.17161 5.35583 9.05709 5.38623C8.80608 5.45286 8.56387 5.54519 8.33284 5.6603C8.33284 5.66031 8.33283 5.6603 8.33283 5.6603C8.33283 5.6603 8.33282 5.66029 8.33282 5.6603L8.32833 5.66257C7.82325 5.91849 7.37278 6.2818 7.00308 6.72193C6.62531 7.16473 6.33334 7.68656 6.13163 8.25144C5.92761 8.82101 5.81683 9.44743 5.81683 10.095C5.81683 10.7403 5.92773 11.3658 6.13163 11.9351C6.33354 12.4988 6.62551 13.02 7.00225 13.4645C7.37201 13.9049 7.82336 14.2693 8.33061 14.5242L8.33398 14.5259C8.84099 14.7774 9.40642 14.9258 10.005 14.9258C10.6055 14.9258 11.172 14.7777 11.6791 14.5256C11.6791 14.5256 11.6791 14.5256 11.6791 14.5256C11.6791 14.5256 11.6791 14.5256 11.6791 14.5256L11.6841 14.5231C12.1823 14.2708 12.6401 13.9068 13.0107 13.463C13.3838 13.0205 13.6775 12.5004 13.88 11.9355C13.9804 11.6556 14.0574 11.3624 14.1099 11.0605C14.1313 10.937 14.2366 10.8441 14.362 10.8441H16.2275H17.9491C18.0957 10.8441 18.2112 10.9698 18.1938 11.1154C18.1002 11.8969 17.9004 12.6441 17.6077 13.3398L17.6071 13.3411C17.1895 14.3386 16.5843 15.2374 15.8339 15.9935L15.8332 15.9943C15.0871 16.7484 14.2009 17.3574 13.2159 17.7803C12.2239 18.1988 11.1446 18.4326 10.005 18.4326C8.8691 18.4326 7.78413 18.1985 6.7963 17.7805C5.81179 17.3572 4.92139 16.7477 4.17499 15.9941L4.17448 15.9935C3.42492 15.2382 2.82302 14.3401 2.40768 13.3424C2.40768 13.3424 2.40768 13.3424 2.40769 13.3424C2.40769 13.3424 2.40769 13.3424 2.40769 13.3424L2.40619 13.3389C1.98627 12.3446 1.75488 11.2462 1.75488 10.0941C1.75488 8.9372 1.98612 7.84363 2.40662 6.84399L2.40743 6.84203C2.82311 5.84601 3.4252 4.94561 4.17363 4.19381L4.17499 4.19244ZM14.2301 0.253906H13.7301C13.592 0.253906 13.4801 0.365835 13.4801 0.503906V1.00391V6.05637V6.55637C13.4801 6.69444 13.592 6.80637 13.7301 6.80637H14.2301H19.0043H19.5043C19.6424 6.80637 19.7543 6.69444 19.7543 6.55637V6.05637V1.00391V0.503906C19.7543 0.365835 19.6424 0.253906 19.5043 0.253906H19.0043H14.2301ZM15.2301 5.30637C15.092 5.30637 14.9801 5.19444 14.9801 5.05637V2.00391C14.9801 1.86584 15.092 1.75391 15.2301 1.75391H18.0043C18.1424 1.75391 18.2543 1.86584 18.2543 2.00391V5.05637C18.2543 5.19444 18.1424 5.30637 18.0043 5.30637H15.2301Z" fill="currentColor"/>
</svg>
