<svg width="24" height="24" viewBox="0 0 24 24" fill="none" xmlns="http://www.w3.org/2000/svg">
<path fill-rule="evenodd" clip-rule="evenodd" d="M4.57717 4.85657V9.18294C4.71483 9.2188 4.87578 9.26061 5.05657 9.30738C5.68955 9.47112 6.56545 9.69554 7.53715 9.93826C9.48634 10.4251 11.8013 10.9806 13.3183 11.2705C13.6669 11.3371 13.9167 11.6462 13.9095 12.0021C13.9024 12.358 13.6403 12.6567 13.2893 12.7091L4.57717 14.0102V19.2C4.57717 19.4048 4.62085 19.4823 4.63149 19.4985C4.63828 19.5089 4.64636 19.5198 4.6827 19.5324C4.7289 19.5483 4.80628 19.5596 4.91301 19.5516C4.99853 19.5451 5.08302 19.5276 5.15366 19.5064C9.31448 17.2916 17.4208 12.9861 19.2535 12.0494C17.1922 10.9071 14.1774 9.24455 11.4885 7.7793C8.65253 6.23392 6.23085 4.93676 5.63107 4.67262C5.16931 4.46926 4.9319 4.54766 4.82005 4.60922C4.70964 4.66997 4.62686 4.76876 4.57717 4.85657ZM3.66428 10.4523C3.34475 10.3679 3.12207 10.0781 3.12207 9.74662V4.58177L3.1622 4.46566C3.28894 4.0989 3.59106 3.62078 4.12015 3.32963C4.68693 3.01773 5.40584 2.97943 6.21606 3.33625C6.88825 3.63229 9.38626 4.97275 12.1831 6.49683C15.0016 8.03268 18.1763 9.78424 20.2397 10.9286L20.2559 10.9376L20.2717 10.9474C20.3906 11.0215 20.5237 11.1233 20.6435 11.2502C20.7586 11.3722 20.8977 11.5557 20.9679 11.7964C21.0457 12.0631 21.0288 12.3743 20.8527 12.6613C20.6931 12.9215 20.4452 13.092 20.195 13.209C19.4987 13.5345 10.3155 18.411 5.78073 20.825L5.7324 20.8507L5.68077 20.8689C5.33809 20.9896 4.75789 21.1019 4.20908 20.9124C3.91416 20.8106 3.6241 20.6184 3.41558 20.3002C3.2109 19.9879 3.12207 19.6114 3.12207 19.2V13.381C3.12207 13.0195 3.38598 12.7124 3.74248 12.6592L9.18848 11.8459C8.50545 11.6818 7.82379 11.5139 7.18552 11.3545C6.20893 11.1106 5.32898 10.8851 4.69318 10.7206C4.37524 10.6384 4.11825 10.5714 3.94064 10.5249L3.66428 10.4523Z" fill="#FFFDFD"/>
</svg>
