<svg width="17" height="19" viewBox="0 0 17 19" fill="none" xmlns="http://www.w3.org/2000/svg">
<path d="M15.5 19.0003H1.5C0.947715 19.0003 0.5 18.5526 0.5 18.0003V8.41435C0.5 8.14915 0.605451 7.89484 0.793 7.70735L7.793 0.707349C7.98057 0.519572 8.23509 0.414062 8.5005 0.414062C8.76591 0.414062 9.02043 0.519572 9.208 0.707349L16.208 7.70735C16.3957 7.89463 16.5009 8.14917 16.5 8.41435V18.0003C16.5 18.5526 16.0523 19.0003 15.5 19.0003ZM6.5 12.0003H10.5V17.0003H14.5V8.82835L8.5 2.82835L2.5 8.82835V17.0003H6.5V12.0003Z" fill="currentColor"/>
</svg>
