<svg width="130" height="74" viewBox="0 0 130 74" fill="none" xmlns="http://www.w3.org/2000/svg">
<path d="M15.1438 3.39333H13.6081L13.354 4.1565H12.5807L13.9606 0.232901H14.8077L16.1822 4.1565H15.398L15.1438 3.39333ZM14.9006 2.67206L14.376 1.09783L13.8486 2.67206H14.9006Z" fill="white"/>
<path d="M26.7437 1.54077C26.7437 2.28598 26.2081 2.84863 25.514 2.84863H24.9429V4.1565H24.2269V0.232901H25.514C26.2081 0.232901 26.7437 0.795553 26.7437 1.54077ZM26.0059 1.54077C26.0059 1.21754 25.7873 0.97213 25.4976 0.97213H24.9429V2.1094H25.4976C25.7873 2.1094 26.0059 1.86399 26.0059 1.54077Z" fill="white"/>
<path d="M32.351 3.41727V4.1565H30.4355V0.232901H31.1514V3.41727H32.351Z" fill="white"/>
<path d="M35.8132 2.63614V0.232901H36.5292V2.62716C36.5292 3.10602 36.8571 3.46815 37.297 3.46815C37.737 3.46815 38.0649 3.10302 38.0649 2.62716V0.232901H38.7808V2.63914C38.7808 3.54297 38.1414 4.22533 37.297 4.22533C36.4526 4.22533 35.8132 3.53998 35.8132 2.63614Z" fill="white"/>
<path d="M42.4862 2.1932C42.4862 1.03797 43.2951 0.164062 44.3744 0.164062C45.3554 0.164062 46.1178 0.897306 46.2435 1.89691H45.5003C45.38 1.32229 44.9346 0.918256 44.3744 0.918256C43.7159 0.918256 43.2158 1.46295 43.2158 2.1932C43.2158 2.92345 43.7131 3.46815 44.3744 3.46815C44.9346 3.46815 45.3828 3.06411 45.5003 2.48949H46.2435C46.1178 3.4891 45.3554 4.22234 44.3744 4.22234C43.2951 4.22234 42.4862 3.34843 42.4862 2.1932Z" fill="white"/>
<path d="M49.6401 3.69562C49.6401 3.40532 49.8423 3.18385 50.1129 3.18385C50.3779 3.18385 50.5801 3.40532 50.5801 3.69562C50.5801 3.98593 50.3779 4.20739 50.1129 4.20739C49.8423 4.20739 49.6401 3.98593 49.6401 3.69562Z" fill="white"/>
<path d="M56.2584 0.97213H55.3348V4.1565H54.6189V0.97213H53.6952V0.232901H56.2584V0.97213Z" fill="white"/>
<path d="M63.2784 0.232901L61.8547 4.1565H61.1169L59.6932 0.232901H60.4939L61.4967 3.115L62.4941 0.232901H63.2784Z" fill="white"/>
<path d="M71.1403 2.1932C71.1403 1.03797 71.9491 0.164062 73.0285 0.164062C74.1024 0.164062 74.9194 1.04096 74.9194 2.1932C74.9194 3.34544 74.1051 4.22234 73.0285 4.22234C71.9491 4.22234 71.1403 3.34843 71.1403 2.1932ZM74.1816 2.1932C74.1816 1.46594 73.6843 0.918256 73.0285 0.918256C72.3699 0.918256 71.8699 1.46295 71.8699 2.1932C71.8699 2.92345 72.3672 3.46815 73.0285 3.46815C73.6843 3.46815 74.1816 2.92046 74.1816 2.1932Z" fill="white"/>
<path d="M79.4637 2.75586H79.4009V4.15351H78.6849V0.232901H79.9365C80.6278 0.232901 81.1525 0.783581 81.1525 1.51682C81.1525 2.09743 80.8054 2.55833 80.2999 2.70498L81.2399 4.15351H80.3463L79.4637 2.75586ZM79.4009 2.07349H79.9201C80.2015 2.07349 80.4119 1.83406 80.4119 1.52281C80.4119 1.21156 80.1988 0.97213 79.9201 0.97213H79.4009V2.07349Z" fill="white"/>
<path d="M84.9153 0.232901H85.6312V4.1565H84.9153V0.232901Z" fill="white"/>
<path d="M93.1432 1.94779V2.22014C93.1268 3.35741 92.3344 4.22234 91.2905 4.22234C90.2111 4.22234 89.3995 3.34544 89.3995 2.1932C89.3995 1.04096 90.2111 0.164062 91.2905 0.164062C92.1567 0.164062 92.8727 0.7327 93.0612 1.52879H92.2606C92.083 1.16367 91.725 0.921248 91.2905 0.921248C90.632 0.921248 90.1319 1.46594 90.1319 2.19619C90.1319 2.92644 90.6292 3.47114 91.2905 3.47114C91.8042 3.47114 92.2251 3.14791 92.3644 2.66308H91.3315V1.94779H93.1432Z" fill="white"/>
<path d="M96.8869 0.232901H97.6028V4.1565H96.8869V0.232901Z" fill="white"/>
<path d="M104.623 0.232901V4.1565H103.896L102.265 1.57967V4.1565H101.549V0.232901H102.276L103.907 2.80973V0.232901H104.623Z" fill="white"/>
<path d="M110.826 3.39333H109.29L109.036 4.1565H108.262L109.642 0.232901H110.489L111.864 4.1565H111.08L110.826 3.39333ZM110.582 2.67206L110.058 1.09783L109.528 2.67206H110.582Z" fill="white"/>
<path d="M117.419 3.41727V4.1565H115.504V0.232901H116.22V3.41727H117.419Z" fill="white"/>
<path d="M107.996 21.0107C107.996 20.9956 107.989 20.9783 107.987 20.9611C107.983 20.9308 107.981 20.9006 107.97 20.8703C107.97 20.8682 107.968 20.866 107.968 20.8639C107.933 20.7623 107.894 20.663 107.853 20.5658C107.84 20.5356 107.825 20.5053 107.81 20.4751C107.777 20.406 107.745 20.339 107.71 20.272C107.693 20.2396 107.676 20.2094 107.659 20.1792C107.622 20.1122 107.583 20.0474 107.542 19.9848C107.527 19.961 107.512 19.9351 107.496 19.9113C107.442 19.8293 107.386 19.7493 107.328 19.6738C107.326 19.6716 107.323 19.6694 107.321 19.6651C107.148 19.4362 106.96 19.2288 106.766 19.0431C106.24 18.5376 105.624 18.1467 104.96 17.8638C105.263 17.1164 105.488 16.2244 105.603 15.1617C105.603 15.1574 105.603 15.1509 105.603 15.1466C105.607 15.0991 105.607 15.0516 105.603 15.0062C105.6 14.9932 105.6 14.9803 105.598 14.9673C105.592 14.9198 105.581 14.8723 105.566 14.8269C105.561 14.8161 105.559 14.8075 105.555 14.7967C105.538 14.7513 105.516 14.706 105.492 14.6649C105.49 14.6628 105.49 14.6606 105.49 14.6585C105.464 14.6153 105.432 14.5785 105.399 14.5418C105.393 14.5332 105.384 14.5267 105.378 14.5181C105.347 14.49 105.317 14.4619 105.285 14.4382H105.283C105.138 14.3323 104.958 14.2718 104.762 14.287C104.576 14.2999 104.366 14.3194 104.139 14.3431C104.094 14.3474 104.044 14.3539 103.996 14.3604C103.988 14.3604 103.981 14.3626 103.972 14.3626C103.594 14.4079 103.173 14.4706 102.729 14.5613C102.719 14.5634 102.708 14.5656 102.697 14.5677C102.6 14.5872 102.502 14.6088 102.405 14.6304C102.386 14.6347 102.366 14.639 102.347 14.6433C102.254 14.6649 102.163 14.6865 102.068 14.7125C102.046 14.7189 102.025 14.7233 102.003 14.7297C101.908 14.7557 101.81 14.7816 101.715 14.8097C101.698 14.814 101.681 14.8183 101.666 14.8248C101.324 14.9241 100.982 15.0429 100.645 15.1812C100.621 15.192 100.598 15.2006 100.574 15.2114C100.49 15.2481 100.405 15.2848 100.321 15.3216C100.288 15.3367 100.258 15.3518 100.226 15.3669C100.15 15.4036 100.074 15.4403 99.9988 15.4792C99.9642 15.4965 99.9318 15.5138 99.8972 15.5311C99.8237 15.5699 99.7523 15.611 99.6788 15.652C99.6464 15.6715 99.6139 15.6887 99.5837 15.7082C99.5058 15.7535 99.4302 15.8032 99.3545 15.8529C99.3307 15.868 99.307 15.8831 99.2832 15.8982C99.0864 16.03 98.9005 16.1726 98.7232 16.3259C98.6973 16.3497 98.6713 16.3734 98.6454 16.3972C98.5849 16.4512 98.5265 16.5052 98.4703 16.5613C98.44 16.5916 98.4097 16.624 98.3795 16.6542C98.3297 16.706 98.28 16.76 98.2325 16.8162C98.2022 16.8508 98.1719 16.8875 98.1438 16.922C98.0984 16.9782 98.0552 17.0344 98.0119 17.0927C97.9838 17.1294 97.9557 17.1683 97.9298 17.205C97.8866 17.2655 97.8476 17.3303 97.8066 17.3951C97.7828 17.4318 97.759 17.4685 97.7374 17.5052C97.6898 17.5873 97.6466 17.6694 97.6055 17.7558C97.5947 17.7795 97.5817 17.8011 97.5709 17.8249C97.5212 17.9329 97.4758 18.043 97.4325 18.1575C97.4174 18.1985 97.4044 18.2417 97.3915 18.2828C97.3655 18.3584 97.3417 18.4361 97.3201 18.516C97.3071 18.5679 97.2942 18.6219 97.2812 18.6737C97.2639 18.7472 97.2488 18.8206 97.2336 18.8962C97.2228 18.9545 97.2142 19.0128 97.2055 19.0711C97.1947 19.1467 97.1861 19.2223 97.1774 19.3001C97.1709 19.3606 97.1666 19.4232 97.1623 19.4858C97.158 19.5658 97.1558 19.6478 97.1537 19.7299C97.1537 19.7947 97.1515 19.8573 97.1515 19.9221C97.1537 20.0129 97.1601 20.1057 97.1666 20.2008C97.1709 20.2612 97.1731 20.3196 97.1774 20.38C97.1774 20.3844 97.1774 20.3865 97.1774 20.3908C97.2077 20.6997 97.2596 21.0237 97.3396 21.3628C97.3353 21.3779 97.3331 21.3887 97.3331 21.3887C97.3374 21.3952 97.3439 21.3995 97.3482 21.406C97.3482 21.4082 97.3482 21.4103 97.3482 21.4103C97.3482 21.4103 97.3504 21.4103 97.3525 21.4103C97.8325 21.9676 98.3233 22.3671 98.8075 22.6501C99.722 23.1836 100.611 23.2894 101.367 23.2138C102.649 23.0842 103.551 22.4298 103.551 22.4298C105.014 21.4427 106.515 21.4449 107.384 21.568C107.429 21.5745 107.473 21.5723 107.516 21.568C107.529 21.5658 107.54 21.5637 107.55 21.5615C107.581 21.5572 107.609 21.5485 107.637 21.5399C107.65 21.5356 107.661 21.5313 107.674 21.5248C107.704 21.5118 107.732 21.4967 107.758 21.4773C107.764 21.4729 107.771 21.4708 107.775 21.4665C107.78 21.4621 107.786 21.46 107.79 21.4578L107.788 21.4557C107.816 21.4341 107.842 21.4103 107.866 21.3822C107.946 21.285 107.991 21.1619 107.989 21.0302C107.996 21.0194 107.996 21.015 107.996 21.0107Z" fill="white"/>
<path d="M30.4079 19.7277C30.4058 19.6456 30.4058 19.5636 30.4015 19.4837C30.3971 19.421 30.3928 19.3584 30.3863 19.2979C30.3798 19.2201 30.369 19.1446 30.3582 19.069C30.3496 19.0106 30.3409 18.9523 30.3301 18.894C30.3171 18.8184 30.2999 18.745 30.2826 18.6715C30.2696 18.6197 30.2588 18.5657 30.2436 18.5139C30.222 18.4339 30.1961 18.3562 30.1723 18.2806C30.1593 18.2396 30.1464 18.1964 30.1312 18.1553C30.0901 18.0408 30.0426 17.9307 29.9929 17.8227C29.982 17.7989 29.9691 17.7795 29.9583 17.7557C29.9172 17.6693 29.8718 17.5851 29.8264 17.503C29.8048 17.4663 29.781 17.4296 29.7594 17.3929C29.7204 17.3281 29.6794 17.2654 29.6361 17.2028C29.6102 17.1639 29.5821 17.1272 29.554 17.0905C29.5107 17.0322 29.4675 16.976 29.4221 16.9199C29.394 16.8853 29.3637 16.8486 29.3335 16.814C29.2859 16.7579 29.2362 16.7039 29.1843 16.652C29.154 16.6218 29.1259 16.5894 29.0935 16.5592C29.0373 16.503 28.9767 16.4468 28.9162 16.3928C28.8903 16.3691 28.8643 16.3453 28.8384 16.3216C28.6611 16.1682 28.473 16.0257 28.2784 15.8939C28.2547 15.8788 28.2309 15.8637 28.2092 15.8485C28.1336 15.7989 28.0558 15.7514 27.9779 15.7038C27.9477 15.6844 27.9152 15.6671 27.8828 15.6498C27.8115 15.6088 27.7379 15.5678 27.6644 15.5289C27.632 15.5116 27.5974 15.4943 27.5628 15.477C27.4872 15.4382 27.4115 15.4014 27.3358 15.3647C27.3034 15.3496 27.2731 15.3345 27.2407 15.3194C27.1564 15.2805 27.0721 15.2438 26.9878 15.2092C26.964 15.1984 26.9402 15.1898 26.9164 15.179C26.5791 15.0407 26.2376 14.9241 25.896 14.8226C25.8787 14.8183 25.8635 14.814 25.8462 14.8075C25.749 14.7794 25.6538 14.7535 25.5587 14.7276C25.5371 14.7211 25.5155 14.7168 25.4938 14.7103C25.4009 14.6865 25.3079 14.6628 25.215 14.6412C25.1955 14.6368 25.176 14.6325 25.1566 14.6282C25.0571 14.6066 24.9598 14.585 24.8647 14.5656C24.8539 14.5634 24.8431 14.5612 24.8323 14.5591C24.3891 14.4684 23.9675 14.4057 23.5892 14.3604C23.5805 14.3604 23.574 14.3582 23.5654 14.3582C23.5178 14.3517 23.4681 14.3474 23.4227 14.3409C23.1957 14.3172 22.986 14.2977 22.8001 14.2848C22.6055 14.2718 22.4239 14.3301 22.279 14.436H22.2769C22.2444 14.4597 22.212 14.4878 22.1839 14.5159C22.1774 14.5224 22.1688 14.531 22.1623 14.5396C22.1277 14.5764 22.0974 14.6152 22.0715 14.6563C22.0715 14.6584 22.0693 14.6606 22.0693 14.6606C22.0434 14.7016 22.0239 14.7448 22.0066 14.7924C22.0023 14.8032 21.998 14.8118 21.9958 14.8226C21.9807 14.868 21.9699 14.9155 21.9634 14.963C21.9612 14.9759 21.9612 14.9889 21.9591 15.0019C21.9547 15.0472 21.9547 15.0947 21.9591 15.1423C21.9591 15.1466 21.9591 15.1531 21.9591 15.1574C22.0736 16.22 22.2985 17.1121 22.6012 17.8594C21.9374 18.1424 21.3213 18.5333 20.7959 19.0387C20.6035 19.2245 20.4133 19.4318 20.2403 19.6608C20.2381 19.6629 20.236 19.6651 20.236 19.6672C20.1776 19.745 20.1214 19.8249 20.0674 19.907C20.0522 19.9308 20.0371 19.9545 20.022 19.9804C19.9809 20.0431 19.942 20.11 19.9052 20.1748C19.8879 20.2051 19.8706 20.2375 19.8533 20.2677C19.8187 20.3347 19.7863 20.4016 19.7539 20.4707C19.7387 20.501 19.7258 20.5312 19.7106 20.5614C19.6696 20.6586 19.6306 20.758 19.5961 20.8595C19.5961 20.8617 19.5939 20.8638 19.5939 20.866C19.5831 20.8962 19.5809 20.9265 19.5766 20.9567C19.5744 20.9718 19.5679 20.9891 19.5679 21.0064C19.5679 21.0107 19.5701 21.0172 19.5701 21.0215C19.5679 21.1533 19.6133 21.2785 19.6933 21.3736C19.7171 21.4016 19.7431 21.4254 19.7712 21.447L19.769 21.4492C19.7733 21.4535 19.7798 21.4556 19.7841 21.4578C19.7906 21.4621 19.7971 21.4664 19.8014 21.4686C19.8274 21.4859 19.8555 21.5032 19.8858 21.5161C19.8966 21.5204 19.9095 21.5269 19.9203 21.5312C19.9484 21.542 19.9766 21.5485 20.0068 21.5528C20.0198 21.555 20.0306 21.5572 20.0414 21.5593C20.0846 21.5636 20.1279 21.5658 20.1733 21.5593C21.0424 21.4362 22.5428 21.434 24.0064 22.4211C24.0064 22.4211 24.9144 23.0777 26.1986 23.2052C26.9726 23.2829 27.8806 23.1684 28.8146 22.6047C28.8232 22.6004 28.8319 22.5961 28.8405 22.5896C28.8557 22.581 28.8686 22.5702 28.8838 22.5615C29.3248 22.285 29.7702 21.9071 30.2069 21.4016C30.209 21.4016 30.2112 21.4016 30.2112 21.4016C30.2112 21.3995 30.2112 21.3973 30.2112 21.3973C30.2155 21.3908 30.222 21.3865 30.2263 21.38C30.2263 21.38 30.2242 21.3692 30.2199 21.3541C30.2977 21.015 30.3517 20.691 30.382 20.3822C30.382 20.3779 30.382 20.3757 30.382 20.3714C30.3885 20.3109 30.3885 20.2526 30.3928 20.1921C30.3993 20.0992 30.4058 20.0042 30.4079 19.9135C30.4101 19.8552 30.4079 19.7925 30.4079 19.7277Z" fill="white"/>
<path d="M38.7832 22.7277V22.7407L37.5034 22.9718C37.4212 22.7299 37.3217 22.5096 37.1855 22.2806L36.2192 20.6283H36.5175C37.0537 20.6283 37.3542 20.4101 37.3542 19.8551C37.3542 19.3993 37.0558 19.1142 36.5175 19.1185L36.0808 19.125V21.9307C36.0808 22.4232 36.2559 22.7212 36.3921 22.8271V22.84H34.8874V22.8271C35.0495 22.7212 35.2247 22.4145 35.2247 21.9048V19.4166C35.2247 18.9241 35.0495 18.6261 34.8874 18.5202V18.5073H36.6602C37.659 18.5073 38.2384 19.0127 38.2384 19.8227C38.2384 20.4836 37.9141 20.8875 37.3909 21.0581L37.9703 21.9998C38.2103 22.3778 38.4849 22.6262 38.7832 22.7277Z" fill="white"/>
<path d="M43.6824 21.6478L43.5073 22.8876C43.276 22.8508 43.1138 22.8379 42.7463 22.8379H40.5433V22.8249C40.6989 22.7191 40.8805 22.4124 40.8805 21.9026V19.4403C40.8805 18.9241 40.7054 18.6239 40.5433 18.5181V18.5051H42.783C43.0317 18.5051 43.3062 18.4857 43.4446 18.4554L43.5505 19.5721L43.5376 19.5786C43.3884 19.274 43.0446 19.1164 42.5582 19.1164H41.7345V20.2136H42.208C42.7268 20.2136 42.8998 20.2071 43.1808 20.1704L42.9992 21.2179H42.9863C42.8803 20.9372 42.6555 20.8248 42.3052 20.8248H41.7323V22.2266H42.4112C42.9603 22.2266 43.397 22.0214 43.6651 21.6413L43.6824 21.6478Z" fill="white"/>
<path d="M45.8157 22.8271C45.9713 22.7212 46.1529 22.4145 46.1529 21.9048V19.4425C46.1529 18.9263 45.9778 18.6261 45.8157 18.5202V18.5073H47.3507V18.5202C47.195 18.6261 47.0134 18.9328 47.0134 19.4425V21.9048C47.0134 22.421 47.1885 22.7212 47.3507 22.8271V22.84H45.8157V22.8271Z" fill="white"/>
<path d="M49.4479 22.8271C49.6468 22.6089 49.7916 22.3605 49.8219 21.9242L49.984 19.5052C50.01 19.1617 49.9278 18.6887 49.6468 18.5202L49.6532 18.5073H51.0823C51.0088 18.6002 51.0196 18.7945 51.1817 19.0753L51.8001 20.1358C51.9925 20.4728 52.1308 20.8097 52.1871 21.164H52.2108C52.3038 20.7838 52.4681 20.4965 52.6735 20.1358L53.2853 19.0581C53.441 18.7837 53.454 18.6023 53.3783 18.5094H54.8203L54.8268 18.5224C54.5457 18.6779 54.4398 19.1639 54.4658 19.5073L54.6582 21.9264C54.682 22.2245 54.8009 22.6068 55.0257 22.8292L55.0192 22.8422H53.5902L53.5837 22.8292C53.7026 22.7234 53.8215 22.4491 53.7891 22.056L53.6896 20.7665C53.6658 20.4749 53.6723 20.1488 53.7264 19.6952H53.7004C53.5685 20.1121 53.4259 20.4058 53.2205 20.7557L52.5286 21.9286C52.3038 22.3022 52.2476 22.5506 52.2346 22.6824H52.1849C52.1654 22.5506 52.1027 22.3022 51.8736 21.935L51.132 20.7514C50.9331 20.4274 50.8012 20.1337 50.6823 19.6974H50.6586C50.7083 20.1639 50.7083 20.5009 50.6953 20.7687L50.6261 22.0582C50.6088 22.4513 50.7126 22.7256 50.8315 22.8314L50.825 22.8444H49.4522L49.4479 22.8271Z" fill="white"/>
<path d="M61.084 22.8271V22.84H59.6744V22.8271C59.7803 22.745 59.8301 22.4901 59.6744 22.0603L59.6182 21.9113H58.0075L57.9513 22.0603C57.7892 22.4901 57.8519 22.745 57.9384 22.8271V22.84H56.6282V22.8271C56.7969 22.678 57.0649 22.2979 57.2336 21.8162L58.1264 19.2481C58.2518 18.8809 58.1329 18.6174 58.014 18.5181V18.5051H59.6679V18.5181C59.549 18.6239 59.4258 18.8788 59.5555 19.2481L60.4722 21.8162C60.6408 22.2957 60.9089 22.6823 61.084 22.8271ZM58.4464 20.6391L58.2151 21.3H59.4128L59.1815 20.6391C59.0388 20.233 58.881 19.8162 58.8204 19.3367H58.7945C58.7383 19.8162 58.5891 20.233 58.4464 20.6391Z" fill="white"/>
<path d="M66.592 20.5333C66.4493 20.6262 66.3866 20.894 66.3866 21.4556V22.4837C65.9693 22.7515 65.338 22.9329 64.8386 22.9329C63.535 22.9329 62.6421 22.0279 62.6421 20.732C62.6421 19.2849 63.5782 18.4188 64.9619 18.4188C65.418 18.4188 65.8288 18.4879 66.1466 18.5872L66.2396 19.6024L66.2266 19.6089C65.9088 19.2525 65.4786 19.0732 64.9402 19.0732C64.0668 19.0732 63.5609 19.6909 63.5609 20.6694C63.5609 21.6608 64.0668 22.272 64.897 22.272C65.1586 22.272 65.3834 22.2288 65.5845 22.1338V21.1186C65.2602 21.1251 64.8927 21.1942 64.6549 21.4426L64.6419 21.4361L64.7413 20.4815C64.8797 20.5074 65.1024 20.5182 65.5024 20.5182H66.592V20.5333Z" fill="white"/>
<path d="M68.6466 22.8271C68.8023 22.7212 68.9839 22.4145 68.9839 21.9048V19.4425C68.9839 18.9263 68.8088 18.6261 68.6466 18.5202V18.5073H70.1816V18.5202C70.0259 18.6261 69.8443 18.9328 69.8443 19.4425V21.9048C69.8443 22.421 70.0194 22.7212 70.1816 22.8271V22.84H68.6466V22.8271Z" fill="white"/>
<path d="M72.4451 22.8271C72.6007 22.7212 72.7823 22.4145 72.7823 21.9048V19.4101C72.7823 19.0731 72.6764 18.6736 72.4451 18.5181V18.5051H73.8611C73.8741 18.6304 73.9109 18.76 74.1163 19.1034L75.0156 20.611C75.2037 20.922 75.4026 21.3648 75.5885 21.8465H75.6145C75.528 21.3475 75.515 20.9112 75.515 20.5613V19.4403C75.515 18.9241 75.3594 18.6239 75.1972 18.5181V18.5051H76.6392V18.5181C76.4771 18.6239 76.302 18.9306 76.302 19.4403V21.9026C76.302 22.4145 76.4771 22.7191 76.6392 22.8249V22.8379H75.3226C75.2534 22.6694 75.1345 22.4447 75.0113 22.246L74.1314 20.8183C73.833 20.3388 73.6687 19.9717 73.4828 19.3971H73.4569C73.5563 19.9889 73.5693 20.395 73.5693 20.8421V21.9026C73.5693 22.4188 73.7249 22.7191 73.8871 22.8249V22.8379H72.4451V22.8271Z" fill="white"/>
<path d="M78.9022 22.8271C79.0579 22.7212 79.2395 22.4145 79.2395 21.9048V19.4425C79.2395 18.9263 79.0644 18.6261 78.9022 18.5202V18.5073H80.4372V18.5202C80.2816 18.6261 80.1 18.9328 80.1 19.4425V21.9048C80.1 22.421 80.2751 22.7212 80.4372 22.8271V22.84H78.9022V22.8271Z" fill="white"/>
<path d="M82.7032 22.8271C82.8588 22.7212 83.0404 22.4145 83.0404 21.9048V19.4101C83.0404 19.0731 82.9345 18.6736 82.7032 18.5181V18.5051H84.1192C84.1322 18.6304 84.169 18.76 84.3744 19.1034L85.2737 20.611C85.4618 20.922 85.6607 21.3648 85.8466 21.8465H85.8726C85.7861 21.3475 85.7731 20.9112 85.7731 20.5613V19.4403C85.7731 18.9241 85.6175 18.6239 85.4553 18.5181V18.5051H86.8973V18.5181C86.7352 18.6239 86.5601 18.9306 86.5601 19.4403V21.9026C86.5601 22.4145 86.7352 22.7191 86.8973 22.8249V22.8379H85.5807C85.5115 22.6694 85.3926 22.4447 85.2694 22.246L84.3895 20.8183C84.0911 20.3388 83.9268 19.9717 83.7409 19.3971H83.715C83.8144 19.9889 83.8274 20.395 83.8274 20.8421V21.9026C83.8274 22.4188 83.983 22.7191 84.1452 22.8249V22.8379H82.7032V22.8271Z" fill="white"/>
<path d="M93.0183 20.5333C92.8756 20.6262 92.8129 20.894 92.8129 21.4556V22.4837C92.3956 22.7515 91.7643 22.9329 91.2649 22.9329C89.9613 22.9329 89.0684 22.0279 89.0684 20.732C89.0684 19.2849 90.0045 18.4188 91.3882 18.4188C91.8443 18.4188 92.2551 18.4879 92.5729 18.5872L92.6659 19.6024L92.6529 19.6089C92.3351 19.2525 91.9049 19.0732 91.3665 19.0732C90.4931 19.0732 89.9872 19.6909 89.9872 20.6694C89.9872 21.6608 90.4931 22.272 91.3233 22.272C91.5849 22.272 91.8097 22.2288 92.0108 22.1338V21.1186C91.6865 21.1251 91.319 21.1942 91.0812 21.4426L91.0682 21.4361L91.1676 20.4815C91.306 20.5074 91.5287 20.5182 91.9286 20.5182H93.0183V20.5333Z" fill="white"/>
<path d="M3.58894 71.9282C3.58894 72.5632 3.22789 72.8634 2.60741 72.8634H2.28744V73.1853C2.28744 73.4941 2.3977 73.6799 2.49715 73.7468V73.7555H1.54373V73.7468C1.64102 73.682 1.75344 73.4898 1.75344 73.1701V71.6172C1.75344 71.3105 1.64318 71.1225 1.54373 71.0556V71.047H2.60741C3.22573 71.047 3.58894 71.3666 3.58894 71.9282ZM3.03548 71.9563C3.03548 71.5977 2.87117 71.4336 2.51661 71.4336H2.28744V72.4725L2.51661 72.4768C2.87549 72.4811 3.03548 72.2889 3.03548 71.9563Z" fill="white"/>
<path d="M5.22105 72.4271C5.22105 71.5502 5.76586 70.9713 6.66739 70.9713C7.50191 70.9713 8.05969 71.5351 8.05969 72.3731C8.05969 73.2414 7.47813 73.8332 6.61118 73.8332C5.73559 73.8311 5.22105 73.2241 5.22105 72.4271ZM7.47813 72.4098C7.47813 71.7511 7.15816 71.3752 6.62848 71.3752C6.11393 71.3752 5.80261 71.7791 5.80261 72.3882C5.80261 73.0276 6.09015 73.4271 6.64794 73.4271C7.12573 73.4271 7.47813 73.034 7.47813 72.4098Z" fill="white"/>
<path d="M9.79587 73.6561L9.72885 73.0016L9.7375 72.9973C9.97099 73.3019 10.2239 73.4142 10.5439 73.4055C10.8596 73.3969 10.9958 73.2652 10.9958 73.0556C10.9958 72.7857 10.7579 72.6863 10.492 72.5761C10.1526 72.4357 9.77425 72.2759 9.77425 71.7359C9.77425 71.3515 10.105 70.9972 10.7104 70.9972C10.9136 70.9972 11.0952 71.021 11.3222 71.0793L11.3741 71.7187H11.3654C11.1968 71.4616 10.9763 71.399 10.7493 71.399C10.4531 71.399 10.3018 71.5005 10.3018 71.6992C10.3018 71.926 10.5201 72.0146 10.7731 72.1204C11.119 72.2651 11.5319 72.4358 11.5319 73.0189C11.5319 73.4509 11.2119 73.8051 10.5807 73.8138C10.2672 73.8159 9.97099 73.7619 9.79587 73.6561Z" fill="white"/>
<path d="M13.2508 73.7468C13.3481 73.682 13.4605 73.4898 13.4605 73.1701V71.6323C13.4605 71.3105 13.3502 71.1225 13.2508 71.0556V71.047H14.2085V71.0556C14.1112 71.1225 13.9988 71.3126 13.9988 71.6323V73.1701C13.9988 73.4941 14.1091 73.6799 14.2085 73.7468V73.7555H13.2508V73.7468Z" fill="white"/>
<path d="M18.0133 71.7295L18.0046 71.7338C17.9138 71.5783 17.7322 71.4465 17.4987 71.4465H17.2069V73.1399C17.2069 73.4747 17.315 73.682 17.4447 73.7468V73.7555H16.435V73.7468C16.5475 73.682 16.6729 73.4704 16.6729 73.1399V71.4465H16.3767C16.1432 71.4465 15.9594 71.5783 15.8708 71.7338L15.8621 71.7295L15.9291 71.0167C16.1086 71.0405 16.2729 71.047 16.4632 71.047H17.4144C17.6047 71.047 17.769 71.0405 17.9484 71.0167L18.0133 71.7295Z" fill="white"/>
<path d="M19.665 73.7468C19.7623 73.682 19.8747 73.4898 19.8747 73.1701V71.6323C19.8747 71.3105 19.7644 71.1225 19.665 71.0556V71.047H20.6227V71.0556C20.5254 71.1225 20.413 71.3126 20.413 71.6323V73.1701C20.413 73.4941 20.5233 73.6799 20.6227 73.7468V73.7555H19.665V73.7468Z" fill="white"/>
<path d="M23.0748 73.7468C23.1483 73.6734 23.2066 73.479 23.1094 73.209L22.5213 71.5783C22.4521 71.3839 22.3267 71.1722 22.1667 71.0556V71.047H23.0791V71.0556C23.0164 71.129 22.9883 71.2824 23.0402 71.4293L23.3839 72.4185C23.4466 72.6021 23.5482 72.9325 23.5871 73.2176H23.6023C23.652 72.9304 23.7428 72.5978 23.8055 72.4163L24.132 71.44C24.1838 71.2845 24.1752 71.1312 24.1125 71.0577V71.0491H24.947V71.0577C24.8108 71.1398 24.6984 71.3191 24.6206 71.5437L24.0368 73.2112C23.9439 73.4833 23.9979 73.6755 24.0714 73.749V73.7576H23.0769V73.7468H23.0748Z" fill="white"/>
<path d="M28.4383 73.0103L28.3281 73.7857C28.1832 73.7619 28.0816 73.7555 27.8524 73.7555H26.4774V73.7468C26.5747 73.682 26.6872 73.4898 26.6872 73.1701V71.6323C26.6872 71.3105 26.5769 71.1225 26.4774 71.0556V71.047H27.8762C28.0319 71.047 28.2027 71.0362 28.2892 71.0167L28.3562 71.7144L28.3475 71.7187C28.2546 71.5286 28.0405 71.4314 27.7357 71.4314H27.2212V72.1161H27.5173C27.8395 72.1161 27.9497 72.1118 28.1248 72.088L28.0124 72.7425H28.0038C27.9389 72.5675 27.7962 72.4962 27.58 72.4962H27.2212V73.371H27.6471C27.9886 73.371 28.2632 73.2436 28.4297 73.006L28.4383 73.0103Z" fill="white"/>
<path d="M32.5028 73.6561L32.4358 73.0016L32.4444 72.9973C32.6779 73.3019 32.9309 73.4142 33.2508 73.4055C33.5665 73.3969 33.7027 73.2652 33.7027 73.0556C33.7027 72.7857 33.4649 72.6863 33.199 72.5761C32.8595 72.4357 32.4812 72.2759 32.4812 71.7359C32.4812 71.3515 32.812 70.9972 33.4173 70.9972C33.6205 70.9972 33.8021 71.021 34.0291 71.0793L34.081 71.7187H34.0724C33.9037 71.4616 33.6832 71.399 33.4562 71.399C33.16 71.399 33.0087 71.5005 33.0087 71.6992C33.0087 71.926 33.2271 72.0146 33.48 72.1204C33.8259 72.2651 34.2388 72.4358 34.2388 73.0189C34.2388 73.4509 33.9189 73.8051 33.2876 73.8138C32.9741 73.8159 32.6779 73.7619 32.5028 73.6561Z" fill="white"/>
<path d="M37.8731 71.7295L37.8645 71.7338C37.7737 71.5783 37.5921 71.4465 37.3586 71.4465H37.0667V73.1399C37.0667 73.4747 37.1748 73.682 37.3046 73.7468V73.7555H36.2949V73.7468C36.4073 73.682 36.5327 73.4704 36.5327 73.1399V71.4465H36.2365C36.0031 71.4465 35.8193 71.5783 35.7306 71.7338L35.722 71.7295L35.789 71.0167C35.9685 71.0405 36.1328 71.047 36.323 71.047H37.2743C37.4645 71.047 37.6288 71.0405 37.8083 71.0167L37.8731 71.7295Z" fill="white"/>
<path d="M39.3409 72.4271C39.3409 71.5502 39.8857 70.9713 40.7873 70.9713C41.6218 70.9713 42.1796 71.5351 42.1796 72.3731C42.1796 73.2414 41.598 73.8332 40.7311 73.8332C39.8555 73.8311 39.3409 73.2241 39.3409 72.4271ZM41.5959 72.4098C41.5959 71.7511 41.2759 71.3752 40.7462 71.3752C40.2317 71.3752 39.9203 71.7791 39.9203 72.3882C39.9203 73.0276 40.2079 73.4271 40.7657 73.4271C41.2456 73.4271 41.5959 73.034 41.5959 72.4098Z" fill="white"/>
<path d="M46.3544 73.6842V73.6928L45.5545 73.8375C45.5048 73.6864 45.4421 73.5503 45.3556 73.4056L44.7524 72.3731H44.9405C45.2756 72.3731 45.4637 72.2371 45.4637 71.8893C45.4637 71.6042 45.2756 71.4249 44.9405 71.4293L44.6681 71.4336V73.1853C44.6681 73.4941 44.7783 73.6799 44.8627 73.7468V73.7555H43.9244V73.7468C44.026 73.682 44.1341 73.4898 44.1341 73.1701V71.6172C44.1341 71.3105 44.0238 71.1225 43.9244 71.0556V71.047H45.0313C45.6539 71.047 46.0171 71.3623 46.0171 71.8677C46.0171 72.2803 45.8139 72.533 45.4875 72.6388L45.8485 73.2263C45.9955 73.466 46.1663 73.6216 46.3544 73.6842Z" fill="white"/>
<path d="M47.8421 73.7468C47.9394 73.682 48.0518 73.4898 48.0518 73.1701V71.6323C48.0518 71.3105 47.9416 71.1225 47.8421 71.0556V71.047H48.7998V71.0556C48.7026 71.1225 48.5901 71.3126 48.5901 71.6323V73.1701C48.5901 73.4941 48.7004 73.6799 48.7998 73.7468V73.7555H47.8421V73.7468Z" fill="white"/>
<path d="M52.5656 73.0103L52.4553 73.7857C52.3105 73.7619 52.2089 73.7555 51.9797 73.7555H50.6047V73.7468C50.702 73.682 50.8144 73.4898 50.8144 73.1701V71.6323C50.8144 71.3105 50.7042 71.1225 50.6047 71.0556V71.047H52.0035C52.1591 71.047 52.3299 71.0362 52.4164 71.0167L52.4834 71.7144L52.4748 71.7187C52.3818 71.5286 52.1678 71.4314 51.863 71.4314H51.3484V72.1161H51.6446C51.9667 72.1161 52.077 72.1118 52.2521 72.088L52.1397 72.7425H52.131C52.0662 72.5675 51.9235 72.4962 51.7073 72.4962H51.3484V73.371H51.7743C52.1159 73.371 52.3905 73.2436 52.5569 73.006L52.5656 73.0103Z" fill="white"/>
<path d="M54.3108 73.6561L54.2437 73.0016L54.2524 72.9973C54.4859 73.3019 54.7388 73.4142 55.0588 73.4055C55.3744 73.3969 55.5106 73.2652 55.5106 73.0556C55.5106 72.7857 55.2728 72.6863 55.0069 72.5761C54.6675 72.4357 54.2891 72.2759 54.2891 71.7359C54.2891 71.3515 54.6199 70.9972 55.2253 70.9972C55.4285 70.9972 55.6101 71.021 55.8371 71.0793L55.889 71.7187H55.8803C55.7117 71.4616 55.4912 71.399 55.2642 71.399C54.968 71.399 54.8167 71.5005 54.8167 71.6992C54.8167 71.926 55.035 72.0146 55.288 72.1204C55.6339 72.2651 56.0468 72.4358 56.0468 73.0189C56.0468 73.4509 55.7268 73.8051 55.0956 73.8138C54.7821 73.8159 54.4859 73.7619 54.3108 73.6561Z" fill="white"/>
<path d="M61.9659 71.7447L61.9595 71.749C61.8189 71.52 61.5703 71.438 61.2655 71.438H60.8288V72.1615H61.1725C61.4536 72.1615 61.6395 72.1529 61.7562 72.1291L61.6309 72.8289H61.6222C61.5703 72.6605 61.393 72.5481 61.1963 72.5481H60.8266V73.168C60.8266 73.492 60.9369 73.6778 61.0363 73.7447V73.7534H60.0807V73.7447C60.178 73.6799 60.2904 73.4877 60.2904 73.168V71.6302C60.2904 71.25 60.1932 71.1161 60.0829 71.0535V71.0449H61.3887C61.6222 71.0449 61.7627 71.0384 61.8924 71.0146L61.9659 71.7447Z" fill="white"/>
<path d="M66.1038 73.6842V73.6928L65.3039 73.8375C65.2542 73.6864 65.1915 73.5503 65.105 73.4056L64.5018 72.3731H64.6899C65.025 72.3731 65.2131 72.2371 65.2131 71.8893C65.2131 71.6042 65.025 71.4249 64.6899 71.4293L64.4175 71.4336V73.1853C64.4175 73.4941 64.5278 73.6799 64.6121 73.7468V73.7555H63.6738V73.7468C63.7754 73.682 63.8835 73.4898 63.8835 73.1701V71.6172C63.8835 71.3105 63.7733 71.1225 63.6738 71.0556V71.047H64.7807C65.4034 71.047 65.7666 71.3623 65.7666 71.8677C65.7666 72.2803 65.5633 72.533 65.2369 72.6388L65.5979 73.2263C65.7449 73.466 65.9179 73.6216 66.1038 73.6842Z" fill="white"/>
<path d="M67.4746 72.4271C67.4746 71.5502 68.0194 70.9713 68.9209 70.9713C69.7554 70.9713 70.3132 71.5351 70.3132 72.3731C70.3132 73.2414 69.7317 73.8332 68.8647 73.8332C67.9891 73.8311 67.4746 73.2241 67.4746 72.4271ZM69.7317 72.4098C69.7317 71.7511 69.4117 71.3752 68.882 71.3752C68.3674 71.3752 68.0561 71.7791 68.0561 72.3882C68.0561 73.0276 68.3437 73.4271 68.9015 73.4271C69.3814 73.4271 69.7317 73.034 69.7317 72.4098Z" fill="white"/>
<path d="M71.9325 73.7468C72.0579 73.6107 72.1465 73.4552 72.166 73.183L72.2676 71.6711C72.2827 71.4573 72.233 71.1614 72.0579 71.0555L72.0622 71.0469H72.9551C72.9075 71.1052 72.9162 71.2262 73.0178 71.4011L73.4026 72.0621C73.5237 72.2716 73.6101 72.4832 73.6447 72.7035H73.6599C73.7182 72.466 73.8199 72.2867 73.9474 72.0621L74.3301 71.3882C74.4274 71.2175 74.436 71.1031 74.3884 71.0448H75.2878L75.2921 71.0534C75.117 71.1506 75.05 71.4551 75.0651 71.669L75.1862 73.1809C75.2013 73.3688 75.277 73.6042 75.4154 73.7446L75.411 73.7533H74.5182L74.5138 73.7446C74.5873 73.6798 74.663 73.507 74.6436 73.263L74.5809 72.4573C74.5657 72.2737 74.57 72.0729 74.6046 71.7878H74.5895C74.5074 72.0491 74.4187 72.2305 74.289 72.4487L73.8566 73.1809C73.7161 73.4142 73.6815 73.5697 73.6728 73.6517H73.6426C73.6296 73.5697 73.5907 73.4142 73.448 73.1852L72.9832 72.4465C72.8578 72.2435 72.7756 72.0621 72.7021 71.7878H72.687C72.7172 72.0793 72.7173 72.2888 72.7108 72.4573L72.6675 73.263C72.6546 73.5092 72.7216 73.6798 72.7951 73.7446L72.7908 73.7533H71.9325V73.7468Z" fill="white"/>
<path d="M81.4323 71.7295L81.4236 71.7338C81.3328 71.5783 81.1512 71.4465 80.9177 71.4465H80.6259V73.1399C80.6259 73.4747 80.734 73.682 80.8637 73.7468V73.7555H79.854V73.7468C79.9665 73.682 80.0919 73.4704 80.0919 73.1399V71.4465H79.7957C79.5622 71.4465 79.3784 71.5783 79.2898 71.7338L79.2811 71.7295L79.3482 71.0167C79.5276 71.0405 79.6919 71.047 79.8822 71.047H80.8334C81.0237 71.047 81.188 71.0405 81.3674 71.0167L81.4323 71.7295Z" fill="white"/>
<path d="M85.3991 71.6323V73.1853C85.3991 73.4941 85.5072 73.6799 85.6088 73.7468V73.7555H84.6662V73.7468C84.757 73.682 84.8651 73.4898 84.8651 73.1853V72.5049H83.8295V73.1701C83.8295 73.4941 83.9355 73.6799 84.0284 73.7468V73.7555H83.0858V73.7468C83.1831 73.682 83.2955 73.4898 83.2955 73.1701V71.6323C83.2955 71.3105 83.1853 71.1225 83.0858 71.0556V71.047H84.0284V71.0556C83.9376 71.1225 83.8295 71.3126 83.8295 71.6323V72.1161H84.8651V71.6323C84.8651 71.3105 84.7592 71.1225 84.6662 71.0556V71.047H85.6088V71.0556C85.5115 71.1225 85.3991 71.3126 85.3991 71.6323Z" fill="white"/>
<path d="M89.3731 73.0103L89.2629 73.7857C89.118 73.7619 89.0164 73.7555 88.7872 73.7555H87.4122V73.7468C87.5095 73.682 87.622 73.4898 87.622 73.1701V71.6323C87.622 71.3105 87.5117 71.1225 87.4122 71.0556V71.047H88.811C88.9667 71.047 89.1375 71.0362 89.224 71.0167L89.291 71.7144L89.2823 71.7187C89.1894 71.5286 88.9753 71.4314 88.6705 71.4314H88.156V72.1161H88.4521C88.7743 72.1161 88.8845 72.1118 89.0597 72.088L88.9472 72.7425H88.9386C88.8737 72.5675 88.731 72.4962 88.5148 72.4962H88.156V73.371H88.5819C88.9235 73.371 89.198 73.2436 89.3645 73.006L89.3731 73.0103Z" fill="white"/>
<path d="M93.3555 72.4186C93.3555 71.5416 93.9328 70.993 94.8213 70.993C95.07 70.993 95.2818 71.0233 95.5067 71.0902L95.5694 71.7641L95.5629 71.7684C95.4029 71.5201 95.1175 71.4013 94.817 71.4013C94.2679 71.4013 93.9371 71.7792 93.9371 72.3775C93.9371 72.9737 94.2246 73.397 94.7673 73.397C95.1889 73.397 95.4418 73.2264 95.645 72.9607L95.6515 72.965L95.5586 73.6627C95.3597 73.7339 95.0548 73.8117 94.7284 73.8117C93.8852 73.8117 93.3555 73.2156 93.3555 72.4186Z" fill="white"/>
<path d="M97.2165 72.4271C97.2165 71.5502 97.7613 70.9713 98.6628 70.9713C99.4973 70.9713 100.055 71.5351 100.055 72.3731C100.055 73.2414 99.4736 73.8332 98.6066 73.8332C97.7289 73.8311 97.2165 73.2241 97.2165 72.4271ZM99.4714 72.4098C99.4714 71.7511 99.1514 71.3752 98.6218 71.3752C98.1072 71.3752 97.7959 71.7791 97.7959 72.3882C97.7959 73.0276 98.0834 73.4271 98.6412 73.4271C99.1212 73.4271 99.4714 73.034 99.4714 72.4098Z" fill="white"/>
<path d="M101.672 73.7468C101.797 73.6107 101.886 73.4552 101.905 73.183L102.007 71.6711C102.022 71.4573 101.972 71.1614 101.797 71.0555L101.802 71.0469H102.694C102.647 71.1052 102.656 71.2262 102.757 71.4011L103.142 72.0621C103.263 72.2716 103.35 72.4832 103.384 72.7035H103.399C103.458 72.466 103.559 72.2867 103.687 72.0621L104.069 71.3882C104.167 71.2175 104.175 71.1031 104.128 71.0448H105.027L105.032 71.0534C104.856 71.1506 104.789 71.4551 104.805 71.669L104.926 73.1809C104.941 73.3688 105.016 73.6042 105.155 73.7446L105.15 73.7533H104.258L104.253 73.7446C104.327 73.6798 104.402 73.507 104.383 73.263L104.32 72.4573C104.305 72.2737 104.309 72.0729 104.344 71.7878H104.329C104.247 72.0491 104.158 72.2305 104.028 72.4487L103.596 73.1809C103.455 73.4142 103.421 73.5697 103.412 73.6517H103.382C103.369 73.5697 103.33 73.4142 103.187 73.1852L102.723 72.4465C102.597 72.2435 102.515 72.0621 102.442 71.7878H102.426C102.457 72.0793 102.457 72.2888 102.45 72.4573L102.407 73.263C102.394 73.5092 102.461 73.6798 102.534 73.7446L102.53 73.7533H101.672V73.7468Z" fill="white"/>
<path d="M106.751 73.7468C106.876 73.6107 106.965 73.4552 106.984 73.183L107.086 71.6711C107.101 71.4573 107.051 71.1614 106.876 71.0555L106.88 71.0469H107.773C107.726 71.1052 107.734 71.2262 107.836 71.4011L108.221 72.0621C108.342 72.2716 108.428 72.4832 108.463 72.7035H108.478C108.536 72.466 108.638 72.2867 108.766 72.0621L109.148 71.3882C109.246 71.2175 109.254 71.1031 109.207 71.0448H110.106L110.11 71.0534C109.935 71.1506 109.868 71.4551 109.883 71.669L110.004 73.1809C110.02 73.3688 110.095 73.6042 110.234 73.7446L110.229 73.7533H109.336L109.332 73.7446C109.406 73.6798 109.481 73.507 109.46 73.263L109.397 72.4573C109.382 72.2737 109.384 72.0729 109.421 71.7878H109.406C109.323 72.0491 109.235 72.2305 109.105 72.4487L108.673 73.1809C108.532 73.4142 108.498 73.5697 108.489 73.6517H108.459C108.446 73.5697 108.407 73.4142 108.264 73.1852L107.799 72.4465C107.674 72.2435 107.592 72.0621 107.518 71.7878H107.503C107.533 72.0793 107.533 72.2888 107.527 72.4573L107.484 73.263C107.471 73.5092 107.538 73.6798 107.611 73.7446L107.607 73.7533H106.749L106.751 73.7468Z" fill="white"/>
<path d="M112.03 72.641V71.6323C112.03 71.3126 111.918 71.1225 111.82 71.0556V71.047H112.767V71.0556C112.677 71.1225 112.569 71.3083 112.569 71.6323V72.6842C112.569 73.2133 112.729 73.412 113.152 73.412C113.531 73.412 113.701 73.1831 113.701 72.6842V71.6323C113.701 71.3126 113.589 71.1225 113.502 71.0556V71.047H114.439V71.0556C114.337 71.1225 114.229 71.3083 114.229 71.6323V72.641C114.229 73.4315 113.864 73.8203 113.111 73.8203C112.415 73.8203 112.03 73.4336 112.03 72.641Z" fill="white"/>
<path d="M116.151 73.7468C116.248 73.682 116.36 73.4898 116.36 73.1701V71.6128C116.36 71.4033 116.293 71.1528 116.151 71.0556V71.047H117.035C117.044 71.1247 117.067 71.2068 117.195 71.4206L117.757 72.3623C117.874 72.5567 117.999 72.8332 118.116 73.1334H118.131C118.077 72.8224 118.068 72.5502 118.068 72.3321V71.6323C118.068 71.3105 117.971 71.1225 117.869 71.0556V71.047H118.769V71.0556C118.667 71.1225 118.559 71.3126 118.559 71.6323V73.1701C118.559 73.4898 118.669 73.6799 118.769 73.7468V73.7555H117.947C117.904 73.6496 117.83 73.5092 117.753 73.3861L117.203 72.4941C117.015 72.1939 116.916 71.9649 116.799 71.6064H116.784C116.847 71.9757 116.853 72.2284 116.853 72.5092V73.1701C116.853 73.4941 116.951 73.6799 117.052 73.7468V73.7555H116.153V73.7468H116.151Z" fill="white"/>
<path d="M120.574 73.7468C120.672 73.682 120.784 73.4898 120.784 73.1701V71.6323C120.784 71.3105 120.674 71.1225 120.574 71.0556V71.047H121.532V71.0556C121.435 71.1225 121.322 71.3126 121.322 71.6323V73.1701C121.322 73.4941 121.433 73.6799 121.532 73.7468V73.7555H120.574V73.7468Z" fill="white"/>
<path d="M125.335 71.7295L125.326 71.7338C125.235 71.5783 125.054 71.4465 124.82 71.4465H124.529V73.1399C124.529 73.4747 124.637 73.682 124.766 73.7468V73.7555H123.757V73.7468C123.869 73.682 123.995 73.4704 123.995 73.1399V71.4465H123.698C123.465 71.4465 123.281 71.5783 123.192 71.7338L123.184 71.7295L123.251 71.0167C123.43 71.0405 123.595 71.047 123.785 71.047H124.736C124.926 71.047 125.091 71.0405 125.27 71.0167L125.335 71.7295Z" fill="white"/>
<path d="M129.36 71.047V71.0556C129.263 71.129 129.15 71.2889 129.049 71.453L128.312 72.6669V73.1377C128.312 73.4725 128.422 73.6799 128.549 73.7447V73.7533H127.54V73.7447C127.652 73.6799 127.778 73.4682 127.778 73.1377V72.6863L127.03 71.453C126.932 71.2932 126.811 71.129 126.714 71.0556V71.047H127.544V71.0556C127.509 71.1614 127.559 71.3234 127.635 71.453L127.935 71.9714C127.979 72.0405 128.018 72.1161 128.056 72.2241H128.072C128.111 72.1118 128.158 72.0405 128.197 71.9714L128.493 71.453C128.567 71.3234 128.619 71.1614 128.58 71.0556V71.047H129.36Z" fill="white"/>
<path d="M0 63.2009C1.17178 62.406 2.52948 60.1122 2.52948 56.2741V37.7832C2.52948 33.8975 1.21718 31.6512 0 30.8564V30.7635H11.5253V30.8564C10.3536 31.6512 8.99587 33.945 8.99587 37.7832V56.2741C8.99587 60.1597 10.3082 62.406 11.5253 63.2009V63.2937H0V63.2009Z" fill="white"/>
<path d="M15.4148 63.2001C16.5866 62.4053 17.9443 60.1115 17.9443 56.2733V37.5492C17.9443 35.0221 17.1487 32.0263 15.4148 30.8556V30.7628H26.0516C26.1446 31.698 26.4256 32.6829 27.9736 35.2575L34.721 46.5862C36.1263 48.9275 37.6267 52.2494 39.0319 55.8543H39.22C38.565 52.109 38.4698 48.8325 38.4698 46.2104V37.7846C38.4698 33.8989 37.2981 31.6526 36.0809 30.8578V30.7649H46.9036V30.8578C45.6864 31.6526 44.3741 33.9464 44.3741 37.7846V56.2755C44.3741 60.1136 45.6864 62.4075 46.9036 63.2023V63.2952H37.017C36.5025 62.0316 35.6117 60.3469 34.6735 58.8479L28.0665 48.1283C25.8181 44.5235 24.5988 41.7631 23.1935 37.4563H23.0054C23.7556 41.9035 23.8486 44.9468 23.8486 48.3163V56.2733C23.8486 60.159 25.0204 62.4053 26.2375 63.2001V63.293H15.4148V63.2001Z" fill="white"/>
<path d="M50.7862 63.2001C51.958 62.4053 53.3157 60.1115 53.3157 56.2733V37.7824C53.3157 34.3179 52.0034 31.6505 50.7862 30.8556V30.7628H64.374C74.2131 30.7628 80.6795 36.8018 80.6795 47.0052C80.6795 57.2561 75.1968 63.2952 63.6239 63.2952H50.7862V63.2001ZM64.093 58.66C70.3713 58.66 73.7461 54.5411 73.7461 47.0052C73.7461 39.0935 70.5594 35.3957 63.8595 35.3957H59.7345V58.66H64.093Z" fill="white"/>
<path d="M81.9872 63.2001C83.159 62.4053 84.5167 60.1115 84.5167 56.2733V37.7824C84.5167 33.8968 83.2044 31.6505 81.9872 30.8556V30.7628H93.5126V30.8556C92.3408 31.6505 90.9831 33.9443 90.9831 37.7824V56.2733C90.9831 60.159 92.2954 62.4053 93.5126 63.2001V63.293H81.9872V63.2001Z" fill="white"/>
<path d="M130 63.2001V63.293H119.411V63.2001C120.209 62.591 120.583 60.673 119.411 57.4418L118.989 56.3187H106.9L106.478 57.4418C105.259 60.6709 105.728 62.591 106.385 63.2001V63.293H96.5461V63.2001C97.8108 62.077 99.8257 59.2216 101.09 55.6167L107.79 36.3309C108.729 33.5684 107.838 31.6029 106.947 30.8534V30.7606H119.363V30.8534C118.473 31.6483 117.536 33.5684 118.52 36.3309L125.408 55.6167C126.673 59.2216 128.688 62.1245 130 63.2001ZM110.181 46.7697L108.448 51.731H117.443L115.71 46.7697C114.631 43.7264 113.461 40.5903 112.992 36.9876H112.804C112.382 40.5924 111.258 43.7286 110.181 46.7697Z" fill="white"/>
</svg>
