<svg width="25" height="24" viewBox="0 0 25 24" fill="none" xmlns="http://www.w3.org/2000/svg">
<path d="M12.5 22C11.3954 22 10.5 21.1046 10.5 20H14.5C14.5 21.1046 13.6046 22 12.5 22ZM20.5 19H4.5V17L6.5 16V10.5C6.5 7.038 7.921 4.793 10.5 4.18V2H14.5V4.18C17.079 4.792 18.5 7.036 18.5 10.5V16L20.5 17V19ZM12.5 5.75C11.2797 5.6712 10.1028 6.21728 9.375 7.2C8.75255 8.18456 8.44714 9.33638 8.5 10.5V17H16.5V10.5C16.5528 9.33639 16.2474 8.18458 15.625 7.2C14.8972 6.21728 13.7203 5.6712 12.5 5.75Z" fill="currentColor"/>
</svg>
