<svg width="24" height="24" viewBox="0 0 24 24" fill="none" xmlns="http://www.w3.org/2000/svg">
<path fill-rule="evenodd" clip-rule="evenodd" d="M8.67773 4.48484C9.60181 3.56077 10.8548 3.04114 12.1616 3.04004C13.4685 3.04114 14.7215 3.56077 15.6455 4.48484C16.5696 5.40891 17.0892 6.6619 17.0903 7.96874V8.96822C17.6759 9.00021 18.2269 9.25557 18.6298 9.6817C19.0327 10.1078 19.2568 10.6723 19.2559 11.2587V19.115C19.2559 19.7225 19.0146 20.3051 18.585 20.7347C18.1555 21.1642 17.5729 21.4055 16.9654 21.4055H7.35787C6.75039 21.4055 6.1678 21.1642 5.73825 20.7347C5.3087 20.3051 5.06739 19.7225 5.06739 19.115V11.2649C5.06651 10.6785 5.29061 10.1141 5.69349 9.68795C6.09638 9.26182 6.64737 9.00645 7.23293 8.97447V7.96874C7.23404 6.6619 7.75366 5.40891 8.67773 4.48484ZM14.7621 5.36826C14.0723 4.67849 13.1371 4.29049 12.1616 4.28939C11.1862 4.29049 10.2509 4.67849 9.56116 5.36826C8.87139 6.05804 8.48339 6.99325 8.48229 7.96874V8.96822H15.841V7.96874C15.8399 6.99325 15.4519 6.05804 14.7621 5.36826ZM18.0065 19.115V11.2587C18.0065 10.9826 17.8968 10.7178 17.7016 10.5225C17.5063 10.3273 17.2415 10.2176 16.9654 10.2176H7.35787C7.08174 10.2176 6.81693 10.3273 6.62168 10.5225C6.42643 10.7178 6.31674 10.9826 6.31674 11.2587V19.115C6.31674 19.3912 6.42643 19.656 6.62168 19.8512C6.81693 20.0465 7.08174 20.1562 7.35787 20.1562H16.9654C17.2415 20.1562 17.5063 20.0465 17.7016 19.8512C17.8968 19.656 18.0065 19.3912 18.0065 19.115ZM10.9036 13.3063C11.2759 13.0575 11.7136 12.9247 12.1613 12.9247C12.7611 12.9252 13.3361 13.1636 13.7604 13.5875C14.1847 14.0114 14.4236 14.5862 14.4247 15.186C14.4251 15.6337 14.2927 16.0716 14.0443 16.444C13.7958 16.8165 13.4425 17.107 13.0289 17.2786C12.6154 17.4502 12.1602 17.4953 11.721 17.4082C11.2818 17.3211 10.8783 17.1057 10.5616 16.7893C10.2448 16.4728 10.029 16.0695 9.94153 15.6304C9.85403 15.1913 9.89873 14.7361 10.07 14.3224C10.2412 13.9087 10.5313 13.5551 10.9036 13.3063ZM11.5979 16.0291C11.7647 16.1406 11.9607 16.2 12.1613 16.2C12.4302 16.2 12.6882 16.0932 12.8783 15.903C13.0685 15.7129 13.1754 15.4549 13.1754 15.186C13.1754 14.9854 13.1159 14.7894 13.0045 14.6226C12.893 14.4558 12.7347 14.3259 12.5494 14.2491C12.3641 14.1724 12.1602 14.1523 11.9635 14.1914C11.7668 14.2305 11.5861 14.3271 11.4443 14.4689C11.3024 14.6108 11.2059 14.7914 11.1667 14.9882C11.1276 15.1849 11.1477 15.3888 11.2244 15.5741C11.3012 15.7593 11.4312 15.9177 11.5979 16.0291Z" fill="#FFFDFD"/>
<path d="M12.1616 3.04004L12.1617 2.91504L12.1615 2.91504L12.1616 3.04004ZM8.67773 4.48484L8.58935 4.39645L8.67773 4.48484ZM15.6455 4.48484L15.7339 4.39645L15.6455 4.48484ZM17.0903 7.96874H17.2153L17.2153 7.96863L17.0903 7.96874ZM17.0903 8.96822H16.9653V9.08658L17.0835 9.09303L17.0903 8.96822ZM18.6298 9.6817L18.5389 9.76758H18.539L18.6298 9.6817ZM19.2559 11.2587L19.1309 11.2585V11.2587H19.2559ZM18.585 20.7347L18.6734 20.8231L18.585 20.7347ZM5.06739 11.2649L5.19239 11.2649L5.19239 11.2648L5.06739 11.2649ZM5.69349 9.68795L5.60266 9.60207L5.69349 9.68795ZM7.23293 8.97447L7.23975 9.09928L7.35793 9.09282V8.97447H7.23293ZM7.23293 7.96874L7.10793 7.96863V7.96874H7.23293ZM12.1616 4.28939L12.1618 4.16439L12.1615 4.16439L12.1616 4.28939ZM14.7621 5.36826L14.8505 5.27988L14.7621 5.36826ZM9.56116 5.36826L9.47277 5.27988L9.56116 5.36826ZM8.48229 7.96874L8.35729 7.9686V7.96874H8.48229ZM8.48229 8.96822H8.35729V9.09322H8.48229V8.96822ZM15.841 8.96822V9.09322H15.966V8.96822H15.841ZM15.841 7.96874H15.966L15.966 7.9686L15.841 7.96874ZM17.7016 10.5225L17.6132 10.6109L17.7016 10.5225ZM6.62168 10.5225L6.71007 10.6109H6.71007L6.62168 10.5225ZM6.62168 19.8512L6.71007 19.7628H6.71007L6.62168 19.8512ZM17.7016 19.8512L17.6132 19.7628L17.7016 19.8512ZM12.1613 12.9247L12.1614 12.7997H12.1613V12.9247ZM10.9036 13.3063L10.8341 13.2023L10.8341 13.2023L10.9036 13.3063ZM14.4247 15.186L14.5497 15.1859L14.5497 15.1858L14.4247 15.186ZM14.0443 16.444L13.9403 16.3747L13.9403 16.3747L14.0443 16.444ZM13.0289 17.2786L12.981 17.1631L13.0289 17.2786ZM11.721 17.4082L11.7453 17.2856L11.721 17.4082ZM9.94153 15.6304L10.0641 15.606L9.94153 15.6304ZM10.07 14.3224L10.1855 14.3702L10.07 14.3224ZM12.8783 15.903L12.9667 15.9914L12.9667 15.9914L12.8783 15.903ZM13.0045 14.6226L13.1084 14.5532L13.0045 14.6226ZM11.9635 14.1914L11.9879 14.314H11.9879L11.9635 14.1914ZM11.4443 14.4689L11.5326 14.5573L11.5326 14.5573L11.4443 14.4689ZM11.1667 14.9882L11.0441 14.9638V14.9638L11.1667 14.9882ZM12.1615 2.91504C10.8216 2.91617 9.53684 3.44896 8.58935 4.39645L8.76612 4.57323C9.66678 3.67257 10.888 3.16611 12.1617 3.16504L12.1615 2.91504ZM15.7339 4.39645C14.7864 3.44896 13.5017 2.91617 12.1617 2.91504L12.1615 3.16504C13.4353 3.16611 14.6565 3.67257 15.5572 4.57323L15.7339 4.39645ZM17.2153 7.96863C17.2142 6.62868 16.6814 5.34394 15.7339 4.39645L15.5572 4.57323C16.4578 5.47388 16.9643 6.69512 16.9653 7.96884L17.2153 7.96863ZM17.2153 8.96822V7.96874H16.9653V8.96822H17.2153ZM18.7206 9.59583C18.2957 9.14644 17.7147 8.87714 17.0972 8.84341L17.0835 9.09303C17.6371 9.12327 18.1581 9.36471 18.5389 9.76758L18.7206 9.59583ZM19.3809 11.2589C19.3818 10.6404 19.1455 10.0452 18.7206 9.59583L18.539 9.76758C18.9199 10.1705 19.1317 10.7041 19.1309 11.2585L19.3809 11.2589ZM19.3809 19.115V11.2587H19.1309V19.115H19.3809ZM18.6734 20.8231C19.1264 20.3701 19.3809 19.7557 19.3809 19.115H19.1309C19.1309 19.6894 18.9027 20.2402 18.4966 20.6463L18.6734 20.8231ZM16.9654 21.5305C17.606 21.5305 18.2204 21.276 18.6734 20.8231L18.4966 20.6463C18.0905 21.0524 17.5397 21.2805 16.9654 21.2805V21.5305ZM7.35787 21.5305H16.9654V21.2805H7.35787V21.5305ZM5.64986 20.8231C6.10286 21.276 6.71724 21.5305 7.35787 21.5305V21.2805C6.78355 21.2805 6.23275 21.0524 5.82664 20.6463L5.64986 20.8231ZM4.94239 19.115C4.94239 19.7557 5.19687 20.3701 5.64986 20.8231L5.82664 20.6463C5.42053 20.2402 5.19239 19.6894 5.19239 19.115H4.94239ZM4.94239 11.2649V19.115H5.19239V11.2649H4.94239ZM5.60266 9.60207C5.17779 10.0515 4.94146 10.6467 4.94239 11.2651L5.19239 11.2648C5.19156 10.7103 5.40342 10.1767 5.78432 9.77383L5.60266 9.60207ZM7.22612 8.84965C6.6086 8.88339 6.02754 9.15269 5.60266 9.60207L5.78432 9.77383C6.16523 9.37095 6.68615 9.12952 7.23975 9.09928L7.22612 8.84965ZM7.10793 7.96874V8.97447H7.35793V7.96874H7.10793ZM8.58935 4.39645C7.64186 5.34394 7.10906 6.62868 7.10793 7.96863L7.35793 7.96884C7.35901 6.69512 7.86547 5.47388 8.76612 4.57323L8.58935 4.39645ZM12.1615 4.41439C13.1039 4.41546 14.0074 4.79029 14.6737 5.45665L14.8505 5.27988C14.1373 4.5667 13.1704 4.16553 12.1618 4.16439L12.1615 4.41439ZM9.64955 5.45665C10.3159 4.79029 11.2194 4.41546 12.1618 4.41439L12.1615 4.16439C11.1529 4.16553 10.186 4.5667 9.47277 5.27988L9.64955 5.45665ZM8.60729 7.96888C8.60835 7.0265 8.98318 6.12302 9.64955 5.45665L9.47277 5.27988C8.75959 5.99306 8.35843 6.96001 8.35729 7.9686L8.60729 7.96888ZM8.60729 8.96822V7.96874H8.35729V8.96822H8.60729ZM15.841 8.84322H8.48229V9.09322H15.841V8.84322ZM15.716 7.96874V8.96822H15.966V7.96874H15.716ZM14.6737 5.45665C15.3401 6.12302 15.7149 7.0265 15.716 7.96888L15.966 7.9686C15.9648 6.96001 15.5637 5.99306 14.8505 5.27988L14.6737 5.45665ZM17.8815 11.2587V19.115H18.1315V11.2587H17.8815ZM17.6132 10.6109C17.785 10.7827 17.8815 11.0157 17.8815 11.2587H18.1315C18.1315 10.9494 18.0087 10.6528 17.79 10.4341L17.6132 10.6109ZM16.9654 10.3426C17.2084 10.3426 17.4414 10.4391 17.6132 10.6109L17.79 10.4341C17.5713 10.2154 17.2747 10.0926 16.9654 10.0926V10.3426ZM7.35787 10.3426H16.9654V10.0926H7.35787V10.3426ZM6.71007 10.6109C6.88188 10.4391 7.1149 10.3426 7.35787 10.3426V10.0926C7.04859 10.0926 6.75198 10.2154 6.53329 10.4341L6.71007 10.6109ZM6.44174 11.2587C6.44174 11.0157 6.53826 10.7827 6.71007 10.6109L6.53329 10.4341C6.3146 10.6528 6.19174 10.9494 6.19174 11.2587H6.44174ZM6.44174 19.115V11.2587H6.19174V19.115H6.44174ZM6.71007 19.7628C6.53826 19.591 6.44174 19.358 6.44174 19.115H6.19174C6.19174 19.4243 6.3146 19.7209 6.53329 19.9396L6.71007 19.7628ZM7.35787 20.0312C7.1149 20.0312 6.88188 19.9347 6.71007 19.7628L6.53329 19.9396C6.75198 20.1583 7.04859 20.2812 7.35787 20.2812V20.0312ZM16.9654 20.0312H7.35787V20.2812H16.9654V20.0312ZM17.6132 19.7628C17.4414 19.9347 17.2084 20.0312 16.9654 20.0312V20.2812C17.2747 20.2812 17.5713 20.1583 17.79 19.9396L17.6132 19.7628ZM17.8815 19.115C17.8815 19.358 17.785 19.591 17.6132 19.7628L17.79 19.9396C18.0087 19.7209 18.1315 19.4243 18.1315 19.115H17.8815ZM12.1613 12.7997C11.6888 12.7997 11.227 12.9398 10.8341 13.2023L10.9731 13.4102C11.3248 13.1751 11.7383 13.0497 12.1613 13.0497V12.7997ZM13.8488 13.499C13.4011 13.0517 12.7943 12.8002 12.1614 12.7997L12.1612 13.0497C12.7279 13.0502 13.2712 13.2754 13.6721 13.6759L13.8488 13.499ZM14.5497 15.1858C14.5485 14.5529 14.2965 13.9463 13.8488 13.499L13.6721 13.6759C14.073 14.0764 14.2987 14.6195 14.2997 15.1862L14.5497 15.1858ZM14.1483 16.5134C14.4104 16.1203 14.5501 15.6584 14.5497 15.1859L14.2997 15.1861C14.3001 15.6091 14.175 16.0228 13.9403 16.3747L14.1483 16.5134ZM13.0768 17.394C13.5132 17.2129 13.8861 16.9065 14.1483 16.5134L13.9403 16.3747C13.7055 16.7266 13.3717 17.001 12.981 17.1631L13.0768 17.394ZM11.6967 17.5309C12.1601 17.6228 12.6404 17.5752 13.0768 17.394L12.981 17.1631C12.5903 17.3253 12.1603 17.3679 11.7453 17.2856L11.6967 17.5309ZM10.4732 16.8777C10.8075 17.2116 11.2332 17.4389 11.6967 17.5309L11.7453 17.2856C11.3304 17.2033 10.9492 16.9998 10.6499 16.7009L10.4732 16.8777ZM9.81894 15.6548C9.91128 16.1182 10.139 16.5438 10.4732 16.8777L10.6499 16.7009C10.3507 16.4019 10.1468 16.0208 10.0641 15.606L9.81894 15.6548ZM9.95448 14.2746C9.77378 14.7111 9.7266 15.1915 9.81894 15.6548L10.0641 15.606C9.98145 15.1911 10.0237 14.7611 10.1855 14.3702L9.95448 14.2746ZM10.8341 13.2023C10.4413 13.4649 10.1352 13.838 9.95448 14.2746L10.1855 14.3702C10.3473 13.9793 10.6214 13.6452 10.9731 13.4102L10.8341 13.2023ZM12.1613 16.075C11.9855 16.075 11.8136 16.0229 11.6674 15.9252L11.5285 16.1331C11.7158 16.2582 11.936 16.325 12.1613 16.325V16.075ZM12.79 15.8146C12.6232 15.9814 12.3971 16.075 12.1613 16.075V16.325C12.4634 16.325 12.7531 16.205 12.9667 15.9914L12.79 15.8146ZM13.0504 15.186C13.0504 15.4218 12.9567 15.6479 12.79 15.8146L12.9667 15.9914C13.1804 15.7778 13.3004 15.4881 13.3004 15.186H13.0504ZM12.9005 14.6921C12.9982 14.8383 13.0504 15.0101 13.0504 15.186H13.3004C13.3004 14.9607 13.2336 14.7405 13.1084 14.5532L12.9005 14.6921ZM12.5015 14.3646C12.664 14.4319 12.8028 14.5458 12.9005 14.6921L13.1084 14.5532C12.9832 14.3658 12.8053 14.2198 12.5972 14.1336L12.5015 14.3646ZM11.9879 14.314C12.1603 14.2797 12.3391 14.2973 12.5015 14.3646L12.5972 14.1336C12.3891 14.0474 12.16 14.0249 11.9391 14.0688L11.9879 14.314ZM11.5326 14.5573C11.657 14.433 11.8154 14.3483 11.9879 14.314L11.9391 14.0688C11.7181 14.1128 11.5152 14.2213 11.3559 14.3806L11.5326 14.5573ZM11.2893 15.0125C11.3236 14.8401 11.4083 14.6817 11.5326 14.5573L11.3559 14.3806C11.1966 14.5399 11.0881 14.7428 11.0441 14.9638L11.2893 15.0125ZM11.3399 15.5262C11.2726 15.3638 11.255 15.185 11.2893 15.0125L11.0441 14.9638C11.0002 15.1847 11.0227 15.4138 11.1089 15.6219L11.3399 15.5262ZM11.6674 15.9252C11.5212 15.8275 11.4072 15.6887 11.3399 15.5262L11.1089 15.6219C11.1952 15.83 11.3412 16.0079 11.5285 16.1331L11.6674 15.9252Z" fill="#FFFDFD"/>
</svg>
