<svg width="130" height="74" viewBox="0 0 130 74" fill="none" xmlns="http://www.w3.org/2000/svg">
<path d="M15.1438 3.55544H13.6081L13.354 4.31861H12.5807L13.9606 0.39501H14.8077L16.1822 4.31861H15.398L15.1438 3.55544ZM14.9006 2.83417L14.376 1.25994L13.8486 2.83417H14.9006Z" fill="white"/>
<path d="M26.7437 1.70288C26.7437 2.44809 26.2081 3.01074 25.514 3.01074H24.9429V4.31861H24.2269V0.39501H25.514C26.2081 0.39501 26.7437 0.957662 26.7437 1.70288ZM26.0059 1.70288C26.0059 1.37965 25.7873 1.13424 25.4976 1.13424H24.9429V2.27151H25.4976C25.7873 2.27151 26.0059 2.0261 26.0059 1.70288Z" fill="white"/>
<path d="M32.351 3.57938V4.31861H30.4355V0.39501H31.1514V3.57938H32.351Z" fill="white"/>
<path d="M35.8132 2.79825V0.39501H36.5292V2.78927C36.5292 3.26813 36.8571 3.63026 37.297 3.63026C37.737 3.63026 38.0649 3.26513 38.0649 2.78927V0.39501H38.7808V2.80124C38.7808 3.70508 38.1414 4.38744 37.297 4.38744C36.4526 4.38744 35.8132 3.70209 35.8132 2.79825Z" fill="white"/>
<path d="M42.4862 2.35531C42.4862 1.20008 43.2951 0.326172 44.3744 0.326172C45.3554 0.326172 46.1178 1.05942 46.2435 2.05902H45.5003C45.38 1.4844 44.9346 1.08036 44.3744 1.08036C43.7159 1.08036 43.2158 1.62506 43.2158 2.35531C43.2158 3.08556 43.7131 3.63026 44.3744 3.63026C44.9346 3.63026 45.3828 3.22622 45.5003 2.6516H46.2435C46.1178 3.65121 45.3554 4.38445 44.3744 4.38445C43.2951 4.38445 42.4862 3.51054 42.4862 2.35531Z" fill="white"/>
<path d="M49.6401 3.85773C49.6401 3.56743 49.8423 3.34596 50.1129 3.34596C50.3779 3.34596 50.5801 3.56743 50.5801 3.85773C50.5801 4.14803 50.3779 4.3695 50.1129 4.3695C49.8423 4.3695 49.6401 4.14803 49.6401 3.85773Z" fill="white"/>
<path d="M56.2584 1.13424H55.3348V4.31861H54.6189V1.13424H53.6952V0.39501H56.2584V1.13424Z" fill="white"/>
<path d="M63.2784 0.39501L61.8547 4.31861H61.1169L59.6932 0.39501H60.4939L61.4967 3.27711L62.4941 0.39501H63.2784Z" fill="white"/>
<path d="M71.1403 2.35531C71.1403 1.20008 71.9491 0.326172 73.0285 0.326172C74.1024 0.326172 74.9194 1.20307 74.9194 2.35531C74.9194 3.50755 74.1051 4.38445 73.0285 4.38445C71.9491 4.38445 71.1403 3.51054 71.1403 2.35531ZM74.1816 2.35531C74.1816 1.62805 73.6843 1.08036 73.0285 1.08036C72.3699 1.08036 71.8699 1.62506 71.8699 2.35531C71.8699 3.08556 72.3672 3.63026 73.0285 3.63026C73.6843 3.63026 74.1816 3.08257 74.1816 2.35531Z" fill="white"/>
<path d="M79.4637 2.91797H79.4009V4.31562H78.6849V0.39501H79.9365C80.6278 0.39501 81.1525 0.945691 81.1525 1.67893C81.1525 2.25954 80.8054 2.72044 80.2999 2.86709L81.2399 4.31562H80.3463L79.4637 2.91797ZM79.4009 2.2356H79.9201C80.2015 2.2356 80.4119 1.99617 80.4119 1.68492C80.4119 1.37367 80.1988 1.13424 79.9201 1.13424H79.4009V2.2356Z" fill="white"/>
<path d="M84.9153 0.39501H85.6312V4.31861H84.9153V0.39501Z" fill="white"/>
<path d="M93.1432 2.1099V2.38225C93.1268 3.51952 92.3344 4.38445 91.2905 4.38445C90.2111 4.38445 89.3995 3.50755 89.3995 2.35531C89.3995 1.20307 90.2111 0.326172 91.2905 0.326172C92.1567 0.326172 92.8727 0.894809 93.0612 1.6909H92.2606C92.083 1.32578 91.725 1.08336 91.2905 1.08336C90.632 1.08336 90.1319 1.62805 90.1319 2.3583C90.1319 3.08855 90.6292 3.63325 91.2905 3.63325C91.8042 3.63325 92.2251 3.31002 92.3644 2.82518H91.3315V2.1099H93.1432Z" fill="white"/>
<path d="M96.8869 0.39501H97.6028V4.31861H96.8869V0.39501Z" fill="white"/>
<path d="M104.623 0.39501V4.31861H103.896L102.265 1.74178V4.31861H101.549V0.39501H102.276L103.907 2.97184V0.39501H104.623Z" fill="white"/>
<path d="M110.826 3.55544H109.29L109.036 4.31861H108.262L109.642 0.39501H110.489L111.864 4.31861H111.08L110.826 3.55544ZM110.582 2.83417L110.058 1.25994L109.528 2.83417H110.582Z" fill="white"/>
<path d="M117.419 3.57938V4.31861H115.504V0.39501H116.22V3.57938H117.419Z" fill="white"/>
<path d="M107.996 21.1728C107.996 21.1577 107.989 21.1404 107.987 21.1232C107.983 21.0929 107.981 21.0627 107.97 21.0324C107.97 21.0303 107.968 21.0281 107.968 21.026C107.933 20.9244 107.894 20.8251 107.853 20.7279C107.84 20.6977 107.825 20.6674 107.81 20.6372C107.777 20.5681 107.745 20.5011 107.71 20.4342C107.693 20.4018 107.676 20.3715 107.659 20.3413C107.622 20.2743 107.583 20.2095 107.542 20.1469C107.527 20.1231 107.512 20.0972 107.496 20.0735C107.442 19.9914 107.386 19.9115 107.328 19.8359C107.326 19.8337 107.323 19.8315 107.321 19.8272C107.148 19.5983 106.96 19.3909 106.766 19.2052C106.24 18.6998 105.624 18.3088 104.96 18.0259C105.263 17.2785 105.488 16.3865 105.603 15.3238C105.603 15.3195 105.603 15.313 105.603 15.3087C105.607 15.2612 105.607 15.2137 105.603 15.1683C105.6 15.1554 105.6 15.1424 105.598 15.1294C105.592 15.0819 105.581 15.0344 105.566 14.989C105.561 14.9782 105.559 14.9696 105.555 14.9588C105.538 14.9134 105.516 14.8681 105.492 14.8271C105.49 14.8249 105.49 14.8227 105.49 14.8206C105.464 14.7774 105.432 14.7407 105.399 14.7039C105.393 14.6953 105.384 14.6888 105.378 14.6802C105.347 14.6521 105.317 14.624 105.285 14.6003H105.283C105.138 14.4944 104.958 14.434 104.762 14.4491C104.576 14.462 104.366 14.4815 104.139 14.5052C104.094 14.5095 104.044 14.516 103.996 14.5225C103.988 14.5225 103.981 14.5247 103.972 14.5247C103.594 14.57 103.173 14.6327 102.729 14.7234C102.719 14.7255 102.708 14.7277 102.697 14.7299C102.6 14.7493 102.502 14.7709 102.405 14.7925C102.386 14.7968 102.366 14.8011 102.347 14.8055C102.254 14.8271 102.163 14.8487 102.068 14.8746C102.046 14.8811 102.025 14.8854 102.003 14.8918C101.908 14.9178 101.81 14.9437 101.715 14.9718C101.698 14.9761 101.681 14.9804 101.666 14.9869C101.324 15.0862 100.982 15.205 100.645 15.3433C100.621 15.3541 100.598 15.3627 100.574 15.3735C100.49 15.4102 100.405 15.4469 100.321 15.4837C100.288 15.4988 100.258 15.5139 100.226 15.529C100.15 15.5657 100.074 15.6025 99.9988 15.6413C99.9642 15.6586 99.9318 15.6759 99.8972 15.6932C99.8237 15.7321 99.7523 15.7731 99.6788 15.8141C99.6464 15.8336 99.6139 15.8508 99.5837 15.8703C99.5058 15.9156 99.4302 15.9653 99.3545 16.015C99.3307 16.0301 99.307 16.0452 99.2832 16.0604C99.0864 16.1921 98.9005 16.3347 98.7232 16.488C98.6973 16.5118 98.6713 16.5355 98.6454 16.5593C98.5849 16.6133 98.5265 16.6673 98.4703 16.7234C98.44 16.7537 98.4097 16.7861 98.3795 16.8163C98.3297 16.8682 98.28 16.9222 98.2325 16.9783C98.2022 17.0129 98.1719 17.0496 98.1438 17.0841C98.0984 17.1403 98.0552 17.1965 98.0119 17.2548C97.9838 17.2915 97.9557 17.3304 97.9298 17.3671C97.8866 17.4276 97.8476 17.4924 97.8066 17.5572C97.7828 17.5939 97.759 17.6306 97.7374 17.6673C97.6898 17.7494 97.6466 17.8315 97.6055 17.9179C97.5947 17.9416 97.5817 17.9632 97.5709 17.987C97.5212 18.095 97.4758 18.2051 97.4325 18.3196C97.4174 18.3606 97.4044 18.4038 97.3915 18.4449C97.3655 18.5205 97.3417 18.5982 97.3201 18.6782C97.3071 18.73 97.2942 18.784 97.2812 18.8358C97.2639 18.9093 97.2488 18.9827 97.2336 19.0583C97.2228 19.1166 97.2142 19.1749 97.2055 19.2332C97.1947 19.3088 97.1861 19.3844 97.1774 19.4622C97.1709 19.5227 97.1666 19.5853 97.1623 19.6479C97.158 19.7279 97.1558 19.8099 97.1537 19.892C97.1537 19.9568 97.1515 20.0195 97.1515 20.0842C97.1537 20.175 97.1601 20.2678 97.1666 20.3629C97.1709 20.4234 97.1731 20.4817 97.1774 20.5421C97.1774 20.5465 97.1774 20.5486 97.1774 20.5529C97.2077 20.8618 97.2596 21.1858 97.3396 21.5249C97.3353 21.54 97.3331 21.5508 97.3331 21.5508C97.3374 21.5573 97.3439 21.5616 97.3482 21.5681C97.3482 21.5703 97.3482 21.5724 97.3482 21.5724C97.3482 21.5724 97.3504 21.5724 97.3525 21.5724C97.8325 22.1297 98.3233 22.5293 98.8075 22.8122C99.722 23.3457 100.611 23.4515 101.367 23.3759C102.649 23.2463 103.551 22.5919 103.551 22.5919C105.014 21.6048 106.515 21.607 107.384 21.7301C107.429 21.7366 107.473 21.7344 107.516 21.7301C107.529 21.7279 107.54 21.7258 107.55 21.7236C107.581 21.7193 107.609 21.7107 107.637 21.702C107.65 21.6977 107.661 21.6934 107.674 21.6869C107.704 21.6739 107.732 21.6588 107.758 21.6394C107.764 21.6351 107.771 21.6329 107.775 21.6286C107.78 21.6243 107.786 21.6221 107.79 21.6199L107.788 21.6178C107.816 21.5962 107.842 21.5724 107.866 21.5443C107.946 21.4471 107.991 21.324 107.989 21.1923C107.996 21.1815 107.996 21.1772 107.996 21.1728Z" fill="white"/>
<path d="M30.4079 19.8898C30.4058 19.8078 30.4058 19.7257 30.4015 19.6458C30.3971 19.5831 30.3928 19.5205 30.3863 19.46C30.3798 19.3823 30.369 19.3067 30.3582 19.2311C30.3496 19.1727 30.3409 19.1144 30.3301 19.0561C30.3171 18.9805 30.2999 18.9071 30.2826 18.8336C30.2696 18.7818 30.2588 18.7278 30.2436 18.676C30.222 18.5961 30.1961 18.5183 30.1723 18.4427C30.1593 18.4017 30.1464 18.3585 30.1312 18.3174C30.0901 18.203 30.0426 18.0928 29.9929 17.9848C29.982 17.961 29.9691 17.9416 29.9583 17.9178C29.9172 17.8314 29.8718 17.7472 29.8264 17.6651C29.8048 17.6284 29.781 17.5917 29.7594 17.555C29.7204 17.4902 29.6794 17.4275 29.6361 17.3649C29.6102 17.326 29.5821 17.2893 29.554 17.2526C29.5107 17.1943 29.4675 17.1381 29.4221 17.082C29.394 17.0474 29.3637 17.0107 29.3335 16.9761C29.2859 16.92 29.2362 16.866 29.1843 16.8141C29.154 16.7839 29.1259 16.7515 29.0935 16.7213C29.0373 16.6651 28.9767 16.6089 28.9162 16.555C28.8903 16.5312 28.8643 16.5074 28.8384 16.4837C28.6611 16.3303 28.473 16.1878 28.2784 16.056C28.2547 16.0409 28.2309 16.0258 28.2092 16.0107C28.1336 15.961 28.0558 15.9135 27.9779 15.8659C27.9477 15.8465 27.9152 15.8292 27.8828 15.8119C27.8115 15.7709 27.7379 15.7299 27.6644 15.691C27.632 15.6737 27.5974 15.6564 27.5628 15.6392C27.4872 15.6003 27.4115 15.5636 27.3358 15.5268C27.3034 15.5117 27.2731 15.4966 27.2407 15.4815C27.1564 15.4426 27.0721 15.4059 26.9878 15.3713C26.964 15.3605 26.9402 15.3519 26.9164 15.3411C26.5791 15.2029 26.2376 15.0862 25.896 14.9847C25.8787 14.9804 25.8635 14.9761 25.8462 14.9696C25.749 14.9415 25.6538 14.9156 25.5587 14.8897C25.5371 14.8832 25.5155 14.8789 25.4938 14.8724C25.4009 14.8486 25.3079 14.8249 25.215 14.8033C25.1955 14.799 25.176 14.7946 25.1566 14.7903C25.0571 14.7687 24.9598 14.7471 24.8647 14.7277C24.8539 14.7255 24.8431 14.7234 24.8323 14.7212C24.3891 14.6305 23.9675 14.5678 23.5892 14.5225C23.5805 14.5225 23.574 14.5203 23.5654 14.5203C23.5178 14.5138 23.4681 14.5095 23.4227 14.503C23.1957 14.4793 22.986 14.4598 22.8001 14.4469C22.6055 14.4339 22.4239 14.4922 22.279 14.5981H22.2769C22.2444 14.6218 22.212 14.6499 22.1839 14.678C22.1774 14.6845 22.1688 14.6931 22.1623 14.7018C22.1277 14.7385 22.0974 14.7774 22.0715 14.8184C22.0715 14.8206 22.0693 14.8227 22.0693 14.8227C22.0434 14.8637 22.0239 14.9069 22.0066 14.9545C22.0023 14.9653 21.998 14.9739 21.9958 14.9847C21.9807 15.0301 21.9699 15.0776 21.9634 15.1251C21.9612 15.1381 21.9612 15.151 21.9591 15.164C21.9547 15.2093 21.9547 15.2568 21.9591 15.3044C21.9591 15.3087 21.9591 15.3152 21.9591 15.3195C22.0736 16.3822 22.2985 17.2742 22.6012 18.0215C21.9374 18.3045 21.3213 18.6954 20.7959 19.2008C20.6035 19.3866 20.4133 19.5939 20.2403 19.8229C20.2381 19.825 20.236 19.8272 20.236 19.8294C20.1776 19.9071 20.1214 19.987 20.0674 20.0691C20.0522 20.0929 20.0371 20.1166 20.022 20.1425C19.9809 20.2052 19.942 20.2721 19.9052 20.3369C19.8879 20.3672 19.8706 20.3996 19.8533 20.4298C19.8187 20.4968 19.7863 20.5637 19.7539 20.6328C19.7387 20.6631 19.7258 20.6933 19.7106 20.7236C19.6696 20.8208 19.6306 20.9201 19.5961 21.0216C19.5961 21.0238 19.5939 21.0259 19.5939 21.0281C19.5831 21.0583 19.5809 21.0886 19.5766 21.1188C19.5744 21.1339 19.5679 21.1512 19.5679 21.1685C19.5679 21.1728 19.5701 21.1793 19.5701 21.1836C19.5679 21.3154 19.6133 21.4406 19.6933 21.5357C19.7171 21.5638 19.7431 21.5875 19.7712 21.6091L19.769 21.6113C19.7733 21.6156 19.7798 21.6178 19.7841 21.6199C19.7906 21.6242 19.7971 21.6286 19.8014 21.6307C19.8274 21.648 19.8555 21.6653 19.8858 21.6782C19.8966 21.6826 19.9095 21.689 19.9203 21.6933C19.9484 21.7041 19.9766 21.7106 20.0068 21.715C20.0198 21.7171 20.0306 21.7193 20.0414 21.7214C20.0846 21.7257 20.1279 21.7279 20.1733 21.7214C21.0424 21.5983 22.5428 21.5962 24.0064 22.5832C24.0064 22.5832 24.9144 23.2398 26.1986 23.3673C26.9726 23.445 27.8806 23.3306 28.8146 22.7668C28.8232 22.7625 28.8319 22.7582 28.8405 22.7517C28.8557 22.7431 28.8686 22.7323 28.8838 22.7236C29.3248 22.4472 29.7702 22.0692 30.2069 21.5638C30.209 21.5638 30.2112 21.5638 30.2112 21.5638C30.2112 21.5616 30.2112 21.5594 30.2112 21.5594C30.2155 21.553 30.222 21.5486 30.2263 21.5422C30.2263 21.5422 30.2242 21.5314 30.2199 21.5162C30.2977 21.1771 30.3517 20.8531 30.382 20.5443C30.382 20.54 30.382 20.5378 30.382 20.5335C30.3885 20.473 30.3885 20.4147 30.3928 20.3542C30.3993 20.2613 30.4058 20.1663 30.4079 20.0756C30.4101 20.0173 30.4079 19.9546 30.4079 19.8898Z" fill="white"/>
<path d="M38.7832 22.8898V22.9028L37.5034 23.1339C37.4212 22.892 37.3217 22.6717 37.1855 22.4427L36.2192 20.7904H36.5175C37.0537 20.7904 37.3542 20.5723 37.3542 20.0172C37.3542 19.5614 37.0558 19.2763 36.5175 19.2806L36.0808 19.2871V22.0928C36.0808 22.5853 36.2559 22.8834 36.3921 22.9892V23.0021H34.8874V22.9892C35.0495 22.8834 35.2247 22.5766 35.2247 22.0669V19.5787C35.2247 19.0862 35.0495 18.7882 34.8874 18.6823V18.6694H36.6602C37.659 18.6694 38.2384 19.1748 38.2384 19.9848C38.2384 20.6457 37.9141 21.0496 37.3909 21.2202L37.9703 22.1619C38.2103 22.5399 38.4849 22.7883 38.7832 22.8898Z" fill="white"/>
<path d="M43.6824 21.8099L43.5073 23.0497C43.276 23.0129 43.1138 23 42.7463 23H40.5433V22.987C40.6989 22.8812 40.8805 22.5745 40.8805 22.0647V19.6025C40.8805 19.0862 40.7054 18.786 40.5433 18.6802V18.6672H42.783C43.0317 18.6672 43.3062 18.6478 43.4446 18.6175L43.5505 19.7342L43.5376 19.7407C43.3884 19.4361 43.0446 19.2785 42.5582 19.2785H41.7345V20.3757H42.208C42.7268 20.3757 42.8998 20.3692 43.1808 20.3325L42.9992 21.3801H42.9863C42.8803 21.0993 42.6555 20.987 42.3052 20.987H41.7323V22.3887H42.4112C42.9603 22.3887 43.397 22.1835 43.6651 21.8034L43.6824 21.8099Z" fill="white"/>
<path d="M45.8157 22.9892C45.9713 22.8834 46.1529 22.5766 46.1529 22.0669V19.6046C46.1529 19.0884 45.9778 18.7882 45.8157 18.6823V18.6694H47.3507V18.6823C47.195 18.7882 47.0134 19.0949 47.0134 19.6046V22.0669C47.0134 22.5831 47.1885 22.8834 47.3507 22.9892V23.0021H45.8157V22.9892Z" fill="white"/>
<path d="M49.4479 22.9892C49.6468 22.771 49.7916 22.5226 49.8219 22.0863L49.984 19.6673C50.01 19.3238 49.9278 18.8508 49.6468 18.6823L49.6532 18.6694H51.0823C51.0088 18.7623 51.0196 18.9567 51.1817 19.2374L51.8001 20.298C51.9925 20.6349 52.1308 20.9718 52.1871 21.3261H52.2108C52.3038 20.9459 52.4681 20.6587 52.6735 20.298L53.2853 19.2202C53.441 18.9459 53.454 18.7644 53.3783 18.6715H54.8203L54.8268 18.6845C54.5457 18.84 54.4398 19.326 54.4658 19.6694L54.6582 22.0885C54.682 22.3866 54.8009 22.7689 55.0257 22.9913L55.0192 23.0043H53.5902L53.5837 22.9913C53.7026 22.8855 53.8215 22.6112 53.7891 22.2181L53.6896 20.9286C53.6658 20.6371 53.6723 20.3109 53.7264 19.8573H53.7004C53.5685 20.2742 53.4259 20.5679 53.2205 20.9178L52.5286 22.0907C52.3038 22.4643 52.2476 22.7127 52.2346 22.8445H52.1849C52.1654 22.7127 52.1027 22.4643 51.8736 22.0971L51.132 20.9135C50.9331 20.5895 50.8012 20.2958 50.6823 19.8595H50.6586C50.7083 20.326 50.7083 20.663 50.6953 20.9308L50.6261 22.2203C50.6088 22.6134 50.7126 22.8877 50.8315 22.9935L50.825 23.0065H49.4522L49.4479 22.9892Z" fill="white"/>
<path d="M61.084 22.9892V23.0021H59.6744V22.9892C59.7803 22.9071 59.8301 22.6522 59.6744 22.2224L59.6182 22.0734H58.0075L57.9513 22.2224C57.7892 22.6522 57.8519 22.9071 57.9384 22.9892V23.0021H56.6282V22.9892C56.7969 22.8401 57.0649 22.46 57.2336 21.9783L58.1264 19.4102C58.2518 19.043 58.1329 18.7795 58.014 18.6802V18.6672H59.6679V18.6802C59.549 18.786 59.4258 19.0409 59.5555 19.4102L60.4722 21.9783C60.6408 22.4578 60.9089 22.8444 61.084 22.9892ZM58.4464 20.8012L58.2151 21.4621H59.4128L59.1815 20.8012C59.0388 20.3951 58.881 19.9783 58.8204 19.4988H58.7945C58.7383 19.9783 58.5891 20.3951 58.4464 20.8012Z" fill="white"/>
<path d="M66.592 20.6954C66.4493 20.7883 66.3866 21.0561 66.3866 21.6177V22.6458C65.9693 22.9136 65.338 23.0951 64.8386 23.0951C63.535 23.0951 62.6421 22.1901 62.6421 20.8941C62.6421 19.447 63.5782 18.5809 64.9619 18.5809C65.418 18.5809 65.8288 18.65 66.1466 18.7493L66.2396 19.7645L66.2266 19.771C65.9088 19.4146 65.4786 19.2353 64.9402 19.2353C64.0668 19.2353 63.5609 19.853 63.5609 20.8315C63.5609 21.8229 64.0668 22.4341 64.897 22.4341C65.1586 22.4341 65.3834 22.3909 65.5845 22.2959V21.2807C65.2602 21.2872 64.8927 21.3563 64.6549 21.6047L64.6419 21.5982L64.7413 20.6436C64.8797 20.6695 65.1024 20.6803 65.5024 20.6803H66.592V20.6954Z" fill="white"/>
<path d="M68.6466 22.9892C68.8023 22.8834 68.9839 22.5766 68.9839 22.0669V19.6046C68.9839 19.0884 68.8088 18.7882 68.6466 18.6823V18.6694H70.1816V18.6823C70.0259 18.7882 69.8443 19.0949 69.8443 19.6046V22.0669C69.8443 22.5831 70.0194 22.8834 70.1816 22.9892V23.0021H68.6466V22.9892Z" fill="white"/>
<path d="M72.4451 22.9892C72.6007 22.8833 72.7823 22.5766 72.7823 22.0669V19.5722C72.7823 19.2353 72.6764 18.8357 72.4451 18.6802V18.6672H73.8611C73.8741 18.7925 73.9109 18.9221 74.1163 19.2655L75.0156 20.7731C75.2037 21.0841 75.4026 21.5269 75.5885 22.0086H75.6145C75.528 21.5096 75.515 21.0733 75.515 20.7234V19.6024C75.515 19.0862 75.3594 18.786 75.1972 18.6802V18.6672H76.6392V18.6802C76.4771 18.786 76.302 19.0927 76.302 19.6024V22.0647C76.302 22.5766 76.4771 22.8812 76.6392 22.987V23H75.3226C75.2534 22.8315 75.1345 22.6069 75.0113 22.4081L74.1314 20.9805C73.833 20.501 73.6687 20.1338 73.4828 19.5592H73.4569C73.5563 20.1511 73.5693 20.5571 73.5693 21.0042V22.0647C73.5693 22.5809 73.7249 22.8812 73.8871 22.987V23H72.4451V22.9892Z" fill="white"/>
<path d="M78.9022 22.9892C79.0579 22.8834 79.2395 22.5766 79.2395 22.0669V19.6046C79.2395 19.0884 79.0644 18.7882 78.9022 18.6823V18.6694H80.4372V18.6823C80.2816 18.7882 80.1 19.0949 80.1 19.6046V22.0669C80.1 22.5831 80.2751 22.8834 80.4372 22.9892V23.0021H78.9022V22.9892Z" fill="white"/>
<path d="M82.7032 22.9892C82.8588 22.8833 83.0404 22.5766 83.0404 22.0669V19.5722C83.0404 19.2353 82.9345 18.8357 82.7032 18.6802V18.6672H84.1192C84.1322 18.7925 84.169 18.9221 84.3744 19.2655L85.2737 20.7731C85.4618 21.0841 85.6607 21.5269 85.8466 22.0086H85.8726C85.7861 21.5096 85.7731 21.0733 85.7731 20.7234V19.6024C85.7731 19.0862 85.6175 18.786 85.4553 18.6802V18.6672H86.8973V18.6802C86.7352 18.786 86.5601 19.0927 86.5601 19.6024V22.0647C86.5601 22.5766 86.7352 22.8812 86.8973 22.987V23H85.5807C85.5115 22.8315 85.3926 22.6069 85.2694 22.4081L84.3895 20.9805C84.0911 20.501 83.9268 20.1338 83.7409 19.5592H83.715C83.8144 20.1511 83.8274 20.5571 83.8274 21.0042V22.0647C83.8274 22.5809 83.983 22.8812 84.1452 22.987V23H82.7032V22.9892Z" fill="white"/>
<path d="M93.0183 20.6954C92.8756 20.7883 92.8129 21.0561 92.8129 21.6177V22.6458C92.3956 22.9136 91.7643 23.0951 91.2649 23.0951C89.9613 23.0951 89.0684 22.1901 89.0684 20.8941C89.0684 19.447 90.0045 18.5809 91.3882 18.5809C91.8443 18.5809 92.2551 18.65 92.5729 18.7493L92.6659 19.7645L92.6529 19.771C92.3351 19.4146 91.9049 19.2353 91.3665 19.2353C90.4931 19.2353 89.9872 19.853 89.9872 20.8315C89.9872 21.8229 90.4931 22.4341 91.3233 22.4341C91.5849 22.4341 91.8097 22.3909 92.0108 22.2959V21.2807C91.6865 21.2872 91.319 21.3563 91.0812 21.6047L91.0682 21.5982L91.1676 20.6436C91.306 20.6695 91.5287 20.6803 91.9286 20.6803H93.0183V20.6954Z" fill="white"/>
<path d="M3.58894 72.0903C3.58894 72.7253 3.22789 73.0255 2.60741 73.0255H2.28744V73.3474C2.28744 73.6562 2.3977 73.842 2.49715 73.9089V73.9176H1.54373V73.9089C1.64102 73.8441 1.75344 73.6519 1.75344 73.3322V71.7793C1.75344 71.4726 1.64318 71.2846 1.54373 71.2177V71.2091H2.60741C3.22573 71.2091 3.58894 71.5287 3.58894 72.0903ZM3.03548 72.1184C3.03548 71.7598 2.87117 71.5957 2.51661 71.5957H2.28744V72.6346L2.51661 72.6389C2.87549 72.6432 3.03548 72.451 3.03548 72.1184Z" fill="white"/>
<path d="M5.22105 72.5892C5.22105 71.7123 5.76586 71.1335 6.66739 71.1335C7.50191 71.1335 8.05969 71.6972 8.05969 72.5352C8.05969 73.4035 7.47813 73.9953 6.61118 73.9953C5.73559 73.9932 5.22105 73.3862 5.22105 72.5892ZM7.47813 72.572C7.47813 71.9132 7.15816 71.5374 6.62848 71.5374C6.11393 71.5374 5.80261 71.9413 5.80261 72.5503C5.80261 73.1897 6.09015 73.5893 6.64794 73.5893C7.12573 73.5893 7.47813 73.1962 7.47813 72.572Z" fill="white"/>
<path d="M9.79587 73.8182L9.72885 73.1638L9.7375 73.1594C9.97099 73.464 10.2239 73.5763 10.5439 73.5677C10.8596 73.559 10.9958 73.4273 10.9958 73.2178C10.9958 72.9478 10.7579 72.8484 10.492 72.7383C10.1526 72.5979 9.77425 72.438 9.77425 71.898C9.77425 71.5136 10.105 71.1594 10.7104 71.1594C10.9136 71.1594 11.0952 71.1831 11.3222 71.2414L11.3741 71.8808H11.3654C11.1968 71.6237 10.9763 71.5611 10.7493 71.5611C10.4531 71.5611 10.3018 71.6626 10.3018 71.8613C10.3018 72.0881 10.5201 72.1767 10.7731 72.2825C11.119 72.4272 11.5319 72.5979 11.5319 73.181C11.5319 73.613 11.2119 73.9672 10.5807 73.9759C10.2672 73.978 9.97099 73.924 9.79587 73.8182Z" fill="white"/>
<path d="M13.2508 73.9089C13.3481 73.8441 13.4605 73.6519 13.4605 73.3323V71.7944C13.4605 71.4726 13.3502 71.2847 13.2508 71.2177V71.2091H14.2085V71.2177C14.1112 71.2847 13.9988 71.4747 13.9988 71.7944V73.3323C13.9988 73.6562 14.1091 73.842 14.2085 73.9089V73.9176H13.2508V73.9089Z" fill="white"/>
<path d="M18.0133 71.8916L18.0046 71.8959C17.9138 71.7404 17.7322 71.6087 17.4987 71.6087H17.2069V73.302C17.2069 73.6368 17.315 73.8442 17.4447 73.909V73.9176H16.435V73.909C16.5475 73.8442 16.6729 73.6325 16.6729 73.302V71.6087H16.3767C16.1432 71.6087 15.9594 71.7404 15.8708 71.8959L15.8621 71.8916L15.9291 71.1788C16.1086 71.2026 16.2729 71.2091 16.4632 71.2091H17.4144C17.6047 71.2091 17.769 71.2026 17.9484 71.1788L18.0133 71.8916Z" fill="white"/>
<path d="M19.665 73.9089C19.7623 73.8441 19.8747 73.6519 19.8747 73.3323V71.7944C19.8747 71.4726 19.7644 71.2847 19.665 71.2177V71.2091H20.6227V71.2177C20.5254 71.2847 20.413 71.4747 20.413 71.7944V73.3323C20.413 73.6562 20.5233 73.842 20.6227 73.9089V73.9176H19.665V73.9089Z" fill="white"/>
<path d="M23.0748 73.9089C23.1483 73.8355 23.2066 73.6411 23.1094 73.3711L22.5213 71.7404C22.4521 71.546 22.3267 71.3343 22.1667 71.2177V71.2091H23.0791V71.2177C23.0164 71.2911 22.9883 71.4445 23.0402 71.5914L23.3839 72.5806C23.4466 72.7642 23.5482 73.0947 23.5871 73.3798H23.6023C23.652 73.0925 23.7428 72.7599 23.8055 72.5784L24.132 71.6022C24.1838 71.4466 24.1752 71.2933 24.1125 71.2199V71.2112H24.947V71.2199C24.8108 71.3019 24.6984 71.4812 24.6206 71.7058L24.0368 73.3733C23.9439 73.6454 23.9979 73.8377 24.0714 73.9111V73.9197H23.0769V73.9089H23.0748Z" fill="white"/>
<path d="M28.4383 73.1724L28.3281 73.9478C28.1832 73.924 28.0816 73.9176 27.8524 73.9176H26.4774V73.9089C26.5747 73.8441 26.6872 73.6519 26.6872 73.3322V71.7944C26.6872 71.4726 26.5769 71.2847 26.4774 71.2177V71.2091H27.8762C28.0319 71.2091 28.2027 71.1983 28.2892 71.1788L28.3562 71.8765L28.3475 71.8808C28.2546 71.6907 28.0405 71.5935 27.7357 71.5935H27.2212V72.2782H27.5173C27.8395 72.2782 27.9497 72.2739 28.1248 72.2501L28.0124 72.9046H28.0038C27.9389 72.7296 27.7962 72.6584 27.58 72.6584H27.2212V73.5331H27.6471C27.9886 73.5331 28.2632 73.4057 28.4297 73.1681L28.4383 73.1724Z" fill="white"/>
<path d="M32.5028 73.8182L32.4358 73.1638L32.4444 73.1594C32.6779 73.464 32.9309 73.5763 33.2508 73.5677C33.5665 73.559 33.7027 73.4273 33.7027 73.2178C33.7027 72.9478 33.4649 72.8484 33.199 72.7383C32.8595 72.5979 32.4812 72.438 32.4812 71.898C32.4812 71.5136 32.812 71.1594 33.4173 71.1594C33.6205 71.1594 33.8021 71.1831 34.0291 71.2414L34.081 71.8808H34.0724C33.9037 71.6237 33.6832 71.5611 33.4562 71.5611C33.16 71.5611 33.0087 71.6626 33.0087 71.8613C33.0087 72.0881 33.2271 72.1767 33.48 72.2825C33.8259 72.4272 34.2388 72.5979 34.2388 73.181C34.2388 73.613 33.9189 73.9672 33.2876 73.9759C32.9741 73.978 32.6779 73.924 32.5028 73.8182Z" fill="white"/>
<path d="M37.8731 71.8916L37.8645 71.8959C37.7737 71.7404 37.5921 71.6087 37.3586 71.6087H37.0667V73.302C37.0667 73.6368 37.1748 73.8442 37.3046 73.909V73.9176H36.2949V73.909C36.4073 73.8442 36.5327 73.6325 36.5327 73.302V71.6087H36.2365C36.0031 71.6087 35.8193 71.7404 35.7306 71.8959L35.722 71.8916L35.789 71.1788C35.9685 71.2026 36.1328 71.2091 36.323 71.2091H37.2743C37.4645 71.2091 37.6288 71.2026 37.8083 71.1788L37.8731 71.8916Z" fill="white"/>
<path d="M39.3409 72.5892C39.3409 71.7123 39.8857 71.1335 40.7873 71.1335C41.6218 71.1335 42.1796 71.6972 42.1796 72.5352C42.1796 73.4035 41.598 73.9953 40.7311 73.9953C39.8555 73.9932 39.3409 73.3862 39.3409 72.5892ZM41.5959 72.572C41.5959 71.9132 41.2759 71.5374 40.7462 71.5374C40.2317 71.5374 39.9203 71.9413 39.9203 72.5503C39.9203 73.1897 40.2079 73.5893 40.7657 73.5893C41.2456 73.5893 41.5959 73.1962 41.5959 72.572Z" fill="white"/>
<path d="M46.3544 73.8463V73.8549L45.5545 73.9997C45.5048 73.8485 45.4421 73.7124 45.3556 73.5677L44.7524 72.5352H44.9405C45.2756 72.5352 45.4637 72.3992 45.4637 72.0514C45.4637 71.7663 45.2756 71.587 44.9405 71.5914L44.6681 71.5957V73.3474C44.6681 73.6562 44.7783 73.842 44.8627 73.9089V73.9176H43.9244V73.9089C44.026 73.8441 44.1341 73.6519 44.1341 73.3322V71.7793C44.1341 71.4726 44.0238 71.2847 43.9244 71.2177V71.2091H45.0313C45.6539 71.2091 46.0171 71.5244 46.0171 72.0298C46.0171 72.4424 45.8139 72.6951 45.4875 72.8009L45.8485 73.3884C45.9955 73.6282 46.1663 73.7837 46.3544 73.8463Z" fill="white"/>
<path d="M47.8421 73.9089C47.9394 73.8441 48.0518 73.6519 48.0518 73.3323V71.7944C48.0518 71.4726 47.9416 71.2847 47.8421 71.2177V71.2091H48.7998V71.2177C48.7026 71.2847 48.5901 71.4747 48.5901 71.7944V73.3323C48.5901 73.6562 48.7004 73.842 48.7998 73.9089V73.9176H47.8421V73.9089Z" fill="white"/>
<path d="M52.5656 73.1724L52.4553 73.9478C52.3105 73.924 52.2089 73.9176 51.9797 73.9176H50.6047V73.9089C50.702 73.8441 50.8144 73.6519 50.8144 73.3322V71.7944C50.8144 71.4726 50.7042 71.2847 50.6047 71.2177V71.2091H52.0035C52.1591 71.2091 52.3299 71.1983 52.4164 71.1788L52.4834 71.8765L52.4748 71.8808C52.3818 71.6907 52.1678 71.5935 51.863 71.5935H51.3484V72.2782H51.6446C51.9667 72.2782 52.077 72.2739 52.2521 72.2501L52.1397 72.9046H52.131C52.0662 72.7296 51.9235 72.6584 51.7073 72.6584H51.3484V73.5331H51.7743C52.1159 73.5331 52.3905 73.4057 52.5569 73.1681L52.5656 73.1724Z" fill="white"/>
<path d="M54.3108 73.8182L54.2437 73.1638L54.2524 73.1594C54.4859 73.464 54.7388 73.5763 55.0588 73.5677C55.3744 73.559 55.5106 73.4273 55.5106 73.2178C55.5106 72.9478 55.2728 72.8484 55.0069 72.7383C54.6675 72.5979 54.2891 72.438 54.2891 71.898C54.2891 71.5136 54.6199 71.1594 55.2253 71.1594C55.4285 71.1594 55.6101 71.1831 55.8371 71.2414L55.889 71.8808H55.8803C55.7117 71.6237 55.4912 71.5611 55.2642 71.5611C54.968 71.5611 54.8167 71.6626 54.8167 71.8613C54.8167 72.0881 55.035 72.1767 55.288 72.2825C55.6339 72.4272 56.0468 72.5979 56.0468 73.181C56.0468 73.613 55.7268 73.9672 55.0956 73.9759C54.7821 73.978 54.4859 73.924 54.3108 73.8182Z" fill="white"/>
<path d="M61.9659 71.9068L61.9595 71.9111C61.8189 71.6821 61.5703 71.6001 61.2655 71.6001H60.8288V72.3236H61.1725C61.4536 72.3236 61.6395 72.315 61.7562 72.2912L61.6309 72.991H61.6222C61.5703 72.8226 61.393 72.7103 61.1963 72.7103H60.8266V73.3301C60.8266 73.6541 60.9369 73.8399 61.0363 73.9068V73.9155H60.0807V73.9068C60.178 73.842 60.2904 73.6498 60.2904 73.3301V71.7923C60.2904 71.4122 60.1932 71.2782 60.0829 71.2156V71.207H61.3887C61.6222 71.207 61.7627 71.2005 61.8924 71.1767L61.9659 71.9068Z" fill="white"/>
<path d="M66.1038 73.8463V73.8549L65.3039 73.9997C65.2542 73.8485 65.1915 73.7124 65.105 73.5677L64.5018 72.5352H64.6899C65.025 72.5352 65.2131 72.3992 65.2131 72.0514C65.2131 71.7663 65.025 71.587 64.6899 71.5914L64.4175 71.5957V73.3474C64.4175 73.6562 64.5278 73.842 64.6121 73.9089V73.9176H63.6738V73.9089C63.7754 73.8441 63.8835 73.6519 63.8835 73.3322V71.7793C63.8835 71.4726 63.7733 71.2847 63.6738 71.2177V71.2091H64.7807C65.4034 71.2091 65.7666 71.5244 65.7666 72.0298C65.7666 72.4424 65.5633 72.6951 65.2369 72.8009L65.5979 73.3884C65.7449 73.6282 65.9179 73.7837 66.1038 73.8463Z" fill="white"/>
<path d="M67.4746 72.5892C67.4746 71.7123 68.0194 71.1335 68.9209 71.1335C69.7554 71.1335 70.3132 71.6972 70.3132 72.5352C70.3132 73.4035 69.7317 73.9953 68.8647 73.9953C67.9891 73.9932 67.4746 73.3862 67.4746 72.5892ZM69.7317 72.572C69.7317 71.9132 69.4117 71.5374 68.882 71.5374C68.3674 71.5374 68.0561 71.9413 68.0561 72.5503C68.0561 73.1897 68.3437 73.5893 68.9015 73.5893C69.3814 73.5893 69.7317 73.1962 69.7317 72.572Z" fill="white"/>
<path d="M71.9325 73.9089C72.0579 73.7728 72.1465 73.6173 72.166 73.3451L72.2676 71.8332C72.2827 71.6194 72.233 71.3235 72.0579 71.2177L72.0622 71.209H72.9551C72.9075 71.2673 72.9162 71.3883 73.0178 71.5632L73.4026 72.2242C73.5237 72.4337 73.6101 72.6453 73.6447 72.8657H73.6599C73.7182 72.6281 73.8199 72.4488 73.9474 72.2242L74.3301 71.5503C74.4274 71.3797 74.436 71.2652 74.3884 71.2069H75.2878L75.2921 71.2155C75.117 71.3127 75.05 71.6172 75.0651 71.8311L75.1862 73.343C75.2013 73.5309 75.277 73.7663 75.4154 73.9067L75.411 73.9154H74.5182L74.5138 73.9067C74.5873 73.8419 74.663 73.6691 74.6436 73.4251L74.5809 72.6194C74.5657 72.4358 74.57 72.235 74.6046 71.9499H74.5895C74.5074 72.2112 74.4187 72.3926 74.289 72.6108L73.8566 73.343C73.7161 73.5763 73.6815 73.7318 73.6728 73.8138H73.6426C73.6296 73.7318 73.5907 73.5763 73.448 73.3473L72.9832 72.6086C72.8578 72.4056 72.7756 72.2242 72.7021 71.9499H72.687C72.7172 72.2414 72.7173 72.451 72.7108 72.6194L72.6675 73.4251C72.6546 73.6713 72.7216 73.8419 72.7951 73.9067L72.7908 73.9154H71.9325V73.9089Z" fill="white"/>
<path d="M81.4323 71.8916L81.4236 71.8959C81.3328 71.7404 81.1512 71.6087 80.9177 71.6087H80.6259V73.302C80.6259 73.6368 80.734 73.8442 80.8637 73.909V73.9176H79.854V73.909C79.9665 73.8442 80.0919 73.6325 80.0919 73.302V71.6087H79.7957C79.5622 71.6087 79.3784 71.7404 79.2898 71.8959L79.2811 71.8916L79.3482 71.1788C79.5276 71.2026 79.6919 71.2091 79.8822 71.2091H80.8334C81.0237 71.2091 81.188 71.2026 81.3674 71.1788L81.4323 71.8916Z" fill="white"/>
<path d="M85.3991 71.7944V73.3474C85.3991 73.6562 85.5072 73.842 85.6088 73.9089V73.9176H84.6662V73.9089C84.757 73.8441 84.8651 73.6519 84.8651 73.3474V72.667H83.8295V73.3323C83.8295 73.6562 83.9355 73.842 84.0284 73.9089V73.9176H83.0858V73.9089C83.1831 73.8441 83.2955 73.6519 83.2955 73.3323V71.7944C83.2955 71.4726 83.1853 71.2847 83.0858 71.2177V71.2091H84.0284V71.2177C83.9376 71.2847 83.8295 71.4747 83.8295 71.7944V72.2782H84.8651V71.7944C84.8651 71.4726 84.7592 71.2847 84.6662 71.2177V71.2091H85.6088V71.2177C85.5115 71.2847 85.3991 71.4747 85.3991 71.7944Z" fill="white"/>
<path d="M89.3731 73.1724L89.2629 73.9478C89.118 73.924 89.0164 73.9176 88.7872 73.9176H87.4122V73.9089C87.5095 73.8441 87.622 73.6519 87.622 73.3322V71.7944C87.622 71.4726 87.5117 71.2847 87.4122 71.2177V71.2091H88.811C88.9667 71.2091 89.1375 71.1983 89.224 71.1788L89.291 71.8765L89.2823 71.8808C89.1894 71.6907 88.9753 71.5935 88.6705 71.5935H88.156V72.2782H88.4521C88.7743 72.2782 88.8845 72.2739 89.0597 72.2501L88.9472 72.9046H88.9386C88.8737 72.7296 88.731 72.6584 88.5148 72.6584H88.156V73.5331H88.5819C88.9235 73.5331 89.198 73.4057 89.3645 73.1681L89.3731 73.1724Z" fill="white"/>
<path d="M93.3555 72.5807C93.3555 71.7038 93.9328 71.1551 94.8213 71.1551C95.07 71.1551 95.2818 71.1854 95.5067 71.2523L95.5694 71.9262L95.5629 71.9305C95.4029 71.6822 95.1175 71.5634 94.817 71.5634C94.2679 71.5634 93.9371 71.9414 93.9371 72.5396C93.9371 73.1358 94.2246 73.5591 94.7673 73.5591C95.1889 73.5591 95.4418 73.3885 95.645 73.1228L95.6515 73.1271L95.5586 73.8248C95.3597 73.896 95.0548 73.9738 94.7284 73.9738C93.8852 73.9738 93.3555 73.3777 93.3555 72.5807Z" fill="white"/>
<path d="M97.2165 72.5892C97.2165 71.7123 97.7613 71.1335 98.6628 71.1335C99.4973 71.1335 100.055 71.6972 100.055 72.5352C100.055 73.4035 99.4736 73.9953 98.6066 73.9953C97.7289 73.9932 97.2165 73.3862 97.2165 72.5892ZM99.4714 72.572C99.4714 71.9132 99.1514 71.5374 98.6218 71.5374C98.1072 71.5374 97.7959 71.9413 97.7959 72.5503C97.7959 73.1897 98.0834 73.5893 98.6412 73.5893C99.1212 73.5893 99.4714 73.1962 99.4714 72.572Z" fill="white"/>
<path d="M101.672 73.9089C101.797 73.7728 101.886 73.6173 101.905 73.3451L102.007 71.8332C102.022 71.6194 101.972 71.3235 101.797 71.2177L101.802 71.209H102.694C102.647 71.2673 102.656 71.3883 102.757 71.5632L103.142 72.2242C103.263 72.4337 103.35 72.6453 103.384 72.8657H103.399C103.458 72.6281 103.559 72.4488 103.687 72.2242L104.069 71.5503C104.167 71.3797 104.175 71.2652 104.128 71.2069H105.027L105.032 71.2155C104.856 71.3127 104.789 71.6172 104.805 71.8311L104.926 73.343C104.941 73.5309 105.016 73.7663 105.155 73.9067L105.15 73.9154H104.258L104.253 73.9067C104.327 73.8419 104.402 73.6691 104.383 73.4251L104.32 72.6194C104.305 72.4358 104.309 72.235 104.344 71.9499H104.329C104.247 72.2112 104.158 72.3926 104.028 72.6108L103.596 73.343C103.455 73.5763 103.421 73.7318 103.412 73.8138H103.382C103.369 73.7318 103.33 73.5763 103.187 73.3473L102.723 72.6086C102.597 72.4056 102.515 72.2242 102.442 71.9499H102.426C102.457 72.2414 102.457 72.451 102.45 72.6194L102.407 73.4251C102.394 73.6713 102.461 73.8419 102.534 73.9067L102.53 73.9154H101.672V73.9089Z" fill="white"/>
<path d="M106.751 73.9089C106.876 73.7728 106.965 73.6173 106.984 73.3451L107.086 71.8332C107.101 71.6194 107.051 71.3235 106.876 71.2177L106.88 71.209H107.773C107.726 71.2673 107.734 71.3883 107.836 71.5632L108.221 72.2242C108.342 72.4337 108.428 72.6453 108.463 72.8657H108.478C108.536 72.6281 108.638 72.4488 108.766 72.2242L109.148 71.5503C109.246 71.3797 109.254 71.2652 109.207 71.2069H110.106L110.11 71.2155C109.935 71.3127 109.868 71.6172 109.883 71.8311L110.004 73.343C110.02 73.5309 110.095 73.7663 110.234 73.9067L110.229 73.9154H109.336L109.332 73.9067C109.406 73.8419 109.481 73.6691 109.46 73.4251L109.397 72.6194C109.382 72.4358 109.384 72.235 109.421 71.9499H109.406C109.323 72.2112 109.235 72.3926 109.105 72.6108L108.673 73.343C108.532 73.5763 108.498 73.7318 108.489 73.8138H108.459C108.446 73.7318 108.407 73.5763 108.264 73.3473L107.799 72.6086C107.674 72.4056 107.592 72.2242 107.518 71.9499H107.503C107.533 72.2414 107.533 72.451 107.527 72.6194L107.484 73.4251C107.471 73.6713 107.538 73.8419 107.611 73.9067L107.607 73.9154H106.749L106.751 73.9089Z" fill="white"/>
<path d="M112.03 72.8031V71.7944C112.03 71.4747 111.918 71.2847 111.82 71.2177V71.2091H112.767V71.2177C112.677 71.2847 112.569 71.4704 112.569 71.7944V72.8463C112.569 73.3754 112.729 73.5741 113.152 73.5741C113.531 73.5741 113.701 73.3452 113.701 72.8463V71.7944C113.701 71.4747 113.589 71.2847 113.502 71.2177V71.2091H114.439V71.2177C114.337 71.2847 114.229 71.4704 114.229 71.7944V72.8031C114.229 73.5936 113.864 73.9824 113.111 73.9824C112.415 73.9824 112.03 73.5958 112.03 72.8031Z" fill="white"/>
<path d="M116.151 73.9089C116.248 73.8441 116.36 73.6519 116.36 73.3323V71.775C116.36 71.5654 116.293 71.3149 116.151 71.2177V71.2091H117.035C117.044 71.2868 117.067 71.3689 117.195 71.5827L117.757 72.5244C117.874 72.7188 117.999 72.9953 118.116 73.2955H118.131C118.077 72.9845 118.068 72.7124 118.068 72.4942V71.7944C118.068 71.4726 117.971 71.2847 117.869 71.2177V71.2091H118.769V71.2177C118.667 71.2847 118.559 71.4747 118.559 71.7944V73.3323C118.559 73.6519 118.669 73.842 118.769 73.9089V73.9176H117.947C117.904 73.8118 117.83 73.6713 117.753 73.5482L117.203 72.6562C117.015 72.356 116.916 72.127 116.799 71.7685H116.784C116.847 72.1378 116.853 72.3905 116.853 72.6713V73.3323C116.853 73.6562 116.951 73.842 117.052 73.9089V73.9176H116.153V73.9089H116.151Z" fill="white"/>
<path d="M120.574 73.9089C120.672 73.8441 120.784 73.6519 120.784 73.3323V71.7944C120.784 71.4726 120.674 71.2847 120.574 71.2177V71.2091H121.532V71.2177C121.435 71.2847 121.322 71.4747 121.322 71.7944V73.3323C121.322 73.6562 121.433 73.842 121.532 73.9089V73.9176H120.574V73.9089Z" fill="white"/>
<path d="M125.335 71.8916L125.326 71.8959C125.235 71.7404 125.054 71.6087 124.82 71.6087H124.529V73.302C124.529 73.6368 124.637 73.8442 124.766 73.909V73.9176H123.757V73.909C123.869 73.8442 123.995 73.6325 123.995 73.302V71.6087H123.698C123.465 71.6087 123.281 71.7404 123.192 71.8959L123.184 71.8916L123.251 71.1788C123.43 71.2026 123.595 71.2091 123.785 71.2091H124.736C124.926 71.2091 125.091 71.2026 125.27 71.1788L125.335 71.8916Z" fill="white"/>
<path d="M129.36 71.2091V71.2177C129.263 71.2911 129.15 71.451 129.049 71.6151L128.312 72.829V73.2998C128.312 73.6346 128.422 73.842 128.549 73.9068V73.9154H127.54V73.9068C127.652 73.842 127.778 73.6303 127.778 73.2998V72.8484L127.03 71.6151C126.932 71.4553 126.811 71.2911 126.714 71.2177V71.2091H127.544V71.2177C127.509 71.3235 127.559 71.4855 127.635 71.6151L127.935 72.1335C127.979 72.2026 128.018 72.2782 128.056 72.3862H128.072C128.111 72.2739 128.158 72.2026 128.197 72.1335L128.493 71.6151C128.567 71.4855 128.619 71.3235 128.58 71.2177V71.2091H129.36Z" fill="white"/>
<path d="M0 63.363C1.17178 62.5681 2.52948 60.2743 2.52948 56.4362V37.9453C2.52948 34.0596 1.21718 31.8133 0 31.0185V30.9256H11.5253V31.0185C10.3536 31.8133 8.99587 34.1071 8.99587 37.9453V56.4362C8.99587 60.3218 10.3082 62.5681 11.5253 63.363V63.4559H0V63.363Z" fill="white"/>
<path d="M15.4148 63.3622C16.5866 62.5674 17.9443 60.2736 17.9443 56.4354V37.7113C17.9443 35.1842 17.1487 32.1884 15.4148 31.0177V30.9249H26.0516C26.1446 31.8601 26.4256 32.845 27.9736 35.4196L34.721 46.7483C36.1263 49.0896 37.6267 52.4115 39.0319 56.0164H39.22C38.565 52.2712 38.4698 48.9946 38.4698 46.3725V37.9467C38.4698 34.061 37.2981 31.8147 36.0809 31.0199V30.927H46.9036V31.0199C45.6864 31.8147 44.3741 34.1086 44.3741 37.9467V56.4376C44.3741 60.2757 45.6864 62.5696 46.9036 63.3644V63.4573H37.017C36.5025 62.1937 35.6117 60.509 34.6735 59.01L28.0665 48.2905C25.8181 44.6856 24.5988 41.9252 23.1935 37.6184H23.0054C23.7556 42.0656 23.8486 45.1089 23.8486 48.4784V56.4354C23.8486 60.3211 25.0204 62.5674 26.2375 63.3622V63.4551H15.4148V63.3622Z" fill="white"/>
<path d="M50.7862 63.3622C51.958 62.5674 53.3157 60.2736 53.3157 56.4354V37.9445C53.3157 34.4801 52.0034 31.8126 50.7862 31.0177V30.9249H64.374C74.2131 30.9249 80.6795 36.9639 80.6795 47.1673C80.6795 57.4182 75.1968 63.4573 63.6239 63.4573H50.7862V63.3622ZM64.093 58.8221C70.3713 58.8221 73.7461 54.7032 73.7461 47.1673C73.7461 39.2556 70.5594 35.5578 63.8595 35.5578H59.7345V58.8221H64.093Z" fill="white"/>
<path d="M81.9872 63.3622C83.159 62.5674 84.5167 60.2736 84.5167 56.4354V37.9445C84.5167 34.0589 83.2044 31.8126 81.9872 31.0177V30.9249H93.5126V31.0177C92.3408 31.8126 90.9831 34.1064 90.9831 37.9445V56.4354C90.9831 60.3211 92.2954 62.5674 93.5126 63.3622V63.4551H81.9872V63.3622Z" fill="white"/>
<path d="M130 63.3622V63.4551H119.411V63.3622C120.209 62.7531 120.583 60.8351 119.411 57.6039L118.989 56.4808H106.9L106.478 57.6039C105.259 60.833 105.728 62.7531 106.385 63.3622V63.4551H96.5461V63.3622C97.8108 62.2391 99.8257 59.3837 101.09 55.7788L107.79 36.4931C108.729 33.7305 107.838 31.765 106.947 31.0155V30.9227H119.363V31.0155C118.473 31.8104 117.536 33.7305 118.52 36.4931L125.408 55.7788C126.673 59.3837 128.688 62.2866 130 63.3622ZM110.181 46.9319L108.448 51.8931H117.443L115.71 46.9319C114.631 43.8885 113.461 40.7524 112.992 37.1497H112.804C112.382 40.7545 111.258 43.8907 110.181 46.9319Z" fill="white"/>
</svg>
