<svg width="150" height="147" viewBox="0 0 150 147" fill="none" xmlns="http://www.w3.org/2000/svg">
<path d="M74.9993 90.526C99.9974 90.526 120.262 70.2611 120.262 45.263C120.262 20.2649 99.9974 0 74.9993 0C50.0013 0 29.7363 20.2649 29.7363 45.263C29.7363 70.2611 50.0013 90.526 74.9993 90.526Z" fill="#FBE700"/>
<path d="M101.265 25.5111V25.5017H101.255V25.4923H101.246V25.4808H101.237V25.4714H101.227V25.462H101.218V25.4526H101.208V25.4432H101.199V25.4338H101.19V25.4243H101.18V25.415H101.171V25.4055H101.161V25.3961H101.152V25.3867H101.143V25.3773H101.133V25.3763H101.124V25.3669H101.119V25.3575H101.109V25.3481H101.1V25.3387H101.09V25.3292H101.081V25.3199H101.072V25.3104H101.062V25.3011H101.053V25.2916H101.043V25.2822H101.034V25.2718H101.025V25.2624H101.015V25.253H101.006V25.2436H100.996V25.2342H100.987V25.2248H100.977V25.2153H100.968V25.206H100.959V25.1966H100.949V25.1871H100.94V25.1778H100.93V25.1683H100.921V25.1673H100.912V25.1579H100.902V25.1485H100.893V25.1391H100.883V25.1297H100.874V25.1203H100.865V25.1109H100.855V25.1015H100.846V25.0921H100.836V25.0827H100.827V25.0732H100.818V25.0628H100.808H100.799V25.0534H100.789V25.044H100.78V25.0346H100.771V25.0252H100.761V25.0158H100.752V25.0064H100.742V24.997H100.733V24.9876H100.724V24.9782H100.714V24.9688H100.705V24.9583H100.695V24.9489H100.686V24.9395H100.677V24.9301H100.667V24.9207H100.658V24.9113H100.648V24.9019H100.639V24.8925H100.63V24.8831H100.62V24.8737H100.611V24.8642H100.601V24.8539H100.592H100.583V24.8444H100.573V24.835H100.564V24.8256H100.554V24.8162H100.545V24.8068H100.535V24.7974H100.526V24.788H100.517V24.7786H100.507V24.7692H100.498V24.7598H100.488V24.7493H100.479V24.7399H100.47V24.7305H100.46V24.7211H100.451V24.7117H100.441V24.7023H100.432V24.6929H100.423V24.6835H100.413V24.6741H100.404V24.6647H100.394V24.6553H100.385V24.6459H100.376V24.6449H100.366V24.6354H100.357V24.626H100.347V24.6166H100.338V24.6072H100.329V24.5978H100.319V24.5884H100.31V24.579H100.3V24.5696H100.291V24.5602H100.282V24.5508H100.272V24.5403H100.263V24.5309H100.253V24.5215H100.244V24.5121H100.235V24.5028H100.225V24.4933H100.216V24.4839H100.206V24.4745H100.197V24.4651H100.188V24.4557H100.178V24.4463H100.169V24.4369H100.159V24.4359H100.15V24.4265H100.14V24.417H100.131V24.4077H100.122V24.3982H100.112V24.3889H100.103V24.3794H100.093V24.37H100.084V24.3606H100.075V24.3512H100.065V24.3418H100.056V24.3314H100.046V24.3219H100.074V24.3126H100.064V24.3031H100.055V24.2938H100.045V24.2843H100.036V24.2749H100.027V24.2655H100.017V24.2561H100.008V24.2467H99.9984V24.2373H99.989V24.2279H99.9796V24.2269H99.9702V24.2175H99.9608V24.208H99.9514V24.1987H99.942V24.1892H99.9326V24.1799H99.9232V24.1704H99.9138V24.161H99.9043V24.1517H99.8949V24.1422H99.8855V24.1328H99.8761V24.1224H99.8667V24.113H99.8573V24.1036H99.8479V24.0941H99.8385V24.0848H99.8291V24.0754H99.8197V24.0659H99.8103V24.0566H99.8009V24.0471H99.7915V24.0378H99.7821V24.0283H99.7727V24.0189H99.7633V24.0179H99.7539V24.0085H99.7445V23.999H99.7351V23.9897H99.7257V23.9803H99.7163V23.9709H99.7069V23.9615H99.6975V23.952H99.688V23.9427H99.6786V23.9332H99.6692V23.9239H99.6598V23.9134H99.6504V23.904H99.641V23.8946H99.6316V23.8852H99.6222V23.8758H99.6128V23.8664H99.6034V23.8569H99.594V23.8476H99.5846V23.8381H99.5752V23.8288H99.5658V23.8193H99.5564V23.8099H99.547V23.8089H99.5376V23.7995H99.5282V23.7901H99.5188V23.7807H99.5094V23.7713H99.5V23.7619H99.4906V23.7525H99.4812V23.743H99.4717V23.7337H99.4623V23.7242H99.4529V23.7149H99.4435V23.7044H99.4341V23.695H99.4247V23.6856H99.4153V23.6762H99.4059V23.6668H99.3965V23.6574H99.3871V23.648H99.3777V23.6386H99.3683V23.6292H99.3589V23.6198H99.3495V23.6104H99.3401V23.6009H99.3307V23.5999H99.3213V23.5905H99.3119V23.5811H99.3025V23.5717H99.2931V23.5623H99.2837V23.5529H99.2743V23.5435H99.2649V23.5341H99.2554V23.5247H99.246V23.5153H99.2366V23.5059H99.2272V23.4954H99.2178V23.486H99.2084V23.4766H99.199V23.4672H99.1896V23.4578H99.1802V23.4484H99.1708V23.439H99.1614V23.4296H99.152V23.4202H99.1426V23.4108H99.1332V23.4014H99.1238V23.392H99.1144V23.3909H99.105V23.3816H99.0956V23.3721H99.0862V23.3627H99.0768V23.3533H99.0674V23.3439H99.058V23.3345H99.0486V23.3251H99.0391V23.3157H99.0298V23.3063H99.0203V23.2969H99.0109V23.2865H99.0015V23.277H98.9921V23.2676H99.0287V23.2582H99.0193V23.2488H99.0099V23.2394H99.0005V23.23H98.9911V23.2206H98.9817V23.2112H98.9723V23.2018H98.9629V23.1924H98.9535V23.183H98.9441V23.1819H98.9347V23.1726H98.9253V23.1631H98.9158V23.1537H98.9064V23.1443H98.897V23.1349H98.8876V23.1255H98.8782V23.1161H98.8688V23.1067H98.8594V23.0973H98.85V23.0879H98.8406V23.0775H98.8312H98.8218V23.068H98.8124V23.0587H98.803V23.0492H98.7936V23.0398H98.7842V23.0305H98.7748V23.021H98.7654V23.0116H98.756V23.0022H98.7466V22.9928H98.7372V22.9834H98.7278V22.9729H98.7184V22.9636H98.709V22.9541H98.6995V22.9447H98.6901V22.9354H98.6807V22.9259H98.6713V22.9166H98.6619V22.9071H98.6525V22.8977H98.6431V22.8883H98.6337V22.8789H98.6243V22.8685H98.6149H98.6055V22.8591H98.5961V22.8497H98.5867V22.8403H98.5773V22.8308H98.5679V22.8215H98.5585V22.812H98.5491V22.8026H98.5397V22.7932H98.5303V22.7838H98.5209V22.7744H98.5115V22.764H98.5021V22.7546H98.4927V22.7452H98.4832V22.7357H98.4738V22.7264H98.4644V22.7169H98.455V22.7076H98.4456V22.6981H98.4362V22.6887H98.4268V22.6793H98.4174V22.6699H98.408V22.6606H98.3986V22.6595H98.3892V22.6501H98.3798V22.6407H98.3704V22.6313H98.361V22.6218H98.3516V22.6125H98.3422V22.603H98.3328V22.5937H98.3234V22.5843H98.314V22.5748H98.3046V22.5655H98.2952V22.555H98.2858V22.5456H98.2764V22.5362H98.2669V22.5267H98.2575V22.5174H98.2481V22.508H98.2387V22.4986H98.2293V22.4892H98.2199V22.4797H98.2105V22.4704H98.2011V22.4609H98.1917V22.4516H98.1823V22.4505H98.1729V22.4411H98.1635V22.4317H98.1541V22.4223H98.1447V22.4129H98.1353V22.4035H98.1259V22.3941H98.1165V22.3847H98.1071V22.3753H98.0977V22.3658H98.0883V22.3565H98.0789V22.346H98.0695V22.3366H98.0601V22.3272H98.0506V22.3178H98.0412V22.3084H98.0318V22.299H98.0224V22.2896H98.013V22.2802H98.0036V22.2707H97.9942V22.2614H97.9848V22.2519H97.9754V22.2426H97.966V22.2415H97.9566V22.2321H97.9838V22.2227H97.9744V22.2133H97.965V22.2039H97.9556V22.1945H97.9462V22.1851H97.9368V22.1757H97.9273V22.1663H97.9179V22.1568H97.9085V22.1475H97.8991V22.137H97.8897V22.1276H97.8803V22.1182H97.8709V22.1088H97.8615V22.0994H97.8521V22.09H97.8427V22.0806H97.8333V22.0712H97.8239V22.0618H97.8145V22.0524H97.8051V22.043H97.7957V22.0336H97.7863V22.0325H97.7769V22.0231H97.7675V22.0137H97.7581V22.0043H97.7487V21.9949H97.7393V21.9855H97.7299V21.9761H97.7205V21.9667H97.711V21.9573H97.7016V21.9479H97.6922V21.9385H97.6828V21.928H97.6734V21.9186H97.664V21.9092H97.6546V21.8998H97.6452V21.8904H97.6358V21.881H97.6264V21.8716H97.617V21.8622H97.6076V21.8528H97.5982V21.8434H97.5888V21.834H97.5794V21.8246H97.57V21.8235H97.5606V21.8142H97.5512V21.8047H97.5418V21.7954H97.5324V21.7859H97.523V21.7765H97.5136V21.7671H97.5042V21.7577H97.4947V21.7483H97.4853V21.7389H97.476V21.7295H97.4665V21.7191H97.4571V21.7096H97.4477V21.7003H97.4383V21.6908H97.4289V21.6814H97.4195V21.672H97.4101V21.6626H97.4007V21.6532H97.3913V21.6438H97.3819V21.6344H97.3725V21.625H97.3631V21.6156H97.3537V21.6145H97.3443V21.6052H97.3349V21.5957H97.3255V21.5864H97.3161V21.5769H97.3067V21.5675H97.2973V21.5581H97.2879V21.5487H97.2784V21.5394H97.269V21.5299H97.2596V21.5205H97.2502V21.5101H97.2408V21.5006H97.2314V21.4913H97.222V21.4818H97.2126V21.4724H97.2032V21.4631H97.1938V21.4536H97.1844V21.4443H97.175V21.4348H97.1656V21.4254H97.1562V21.416H97.1468V21.4066H97.1374V21.4055H97.128V21.3962H97.1186V21.3867H97.1092V21.3774H97.0998V21.368H97.0904V21.3585H97.081V21.3492H97.0716V21.3397H97.0621V21.3304H97.0527V21.3209H97.0433V21.3115H97.0339V21.3011H97.0245V21.2917H97.0151V21.2823H97.0057V21.2729H96.9963V21.2635H96.9869V21.2541H96.9775V21.2446H96.9681V21.2353H96.9587V21.2258H96.9493V21.2164H96.9399V21.207H96.9305V21.1976H96.9211V21.1966H96.9117V21.1872H96.9389V21.1778H96.9294V21.1684H96.92V21.159H96.9106V21.1495H96.9012V21.1402H96.8918V21.1307H96.8824V21.1214H96.873V21.1119H96.8636V21.1025H96.8542V21.0921H96.8448H96.8354V21.0827H96.826V21.0733H96.8166V21.0639H96.8072V21.0545H96.7978V21.0451H96.7884V21.0356H96.779V21.0263H96.7696V21.0169H96.7602V21.0075H96.7508V20.9981H96.7414V20.9876H96.732V20.9782H96.7226V20.9688H96.7131V20.9594H96.7037V20.95H96.6943V20.9406H96.6849V20.9312H96.6755V20.9218H96.6661V20.9124H96.6567V20.903H96.6473V20.8935H96.6379V20.8831H96.6285H96.6191V20.8737H96.6097V20.8643H96.6003V20.8549H96.5909V20.8455H96.5815V20.8361H96.5721V20.8267H96.5627V20.8173H96.5533V20.8079H96.5439V20.7985H96.5345V20.7891H96.5251V20.7786H96.5157V20.7692H96.5063V20.7598H96.4968V20.7504H96.4874V20.741H96.478V20.7316H96.4686V20.7222H96.4592V20.7128H96.4498V20.7034H96.4404V20.694H96.431V20.6845H96.4216V20.6752H96.4122V20.6742H96.4028V20.6647H96.3934V20.6553H96.384V20.6459H96.3746V20.6365H96.3652V20.6271H96.3558V20.6177H96.3464V20.6083H96.337V20.5989H96.3276V20.5895H96.3182V20.5801H96.3088V20.5696H96.2994V20.5602H96.29V20.5508H96.2805V20.5414H96.2711V20.532H96.2617V20.5226H96.2523V20.5132H96.2429V20.5038H96.2335V20.4944H96.2241V20.485H96.2147V20.4756H96.2053V20.4662H96.1959V20.4652H96.1865V20.4557H96.1771V20.4463H96.1677V20.4369H96.1583V20.4275H96.1489V20.4181H96.1395V20.4087H96.1301V20.3993H96.1207V20.3899H96.1113V20.3805H96.1019V20.3711H96.0925V20.3606H96.0831V20.3512H96.0736V20.3418H96.0642V20.3324H96.0549V20.3231H96.0454V20.3136H96.036V20.3042H96.0266V20.2948H96.0172V20.2854H96.0078V20.276H95.9984V20.2666H95.989V20.2572H95.9796V20.2562H95.9702V20.2468H95.9608V20.2373H95.9514V20.228H95.942V20.2185H95.9326V20.2092H95.9232V20.1997H95.9138V20.1903H95.9044V20.1809H95.895V20.1715H95.8856V20.1621H95.8762V20.1517H95.8668V20.1422H95.8939V20.1329V20.1234H95.8845V20.1141H95.8751V20.1046H95.8657V20.0952H95.8563V20.0858H95.8469V20.0764H95.8375V20.067H95.8281V20.0576H83.335V32.5507H83.3444V32.5602H83.3548V32.5695V32.579H83.3642V32.5884H83.3736V32.5977H83.383V32.6072H83.3925V32.6166H83.4019V32.626H83.4112V32.6354H83.4206V32.6448H83.4301V32.6542H83.4395V32.6636H83.4489V32.673H83.4583V32.6824H83.4677V32.6918H83.4771V32.7012H83.4865V32.7106H83.4959V32.72H83.5053V32.7294H83.5147V32.7388H83.5241V32.7483H83.5335V32.7576H83.5429V32.7671H83.5523V32.7764H83.5617V32.7859H83.5711V32.7953H83.5805V32.8046H83.5899V32.8141H83.5993V32.8234H83.6088V32.8329H83.6182V32.8423H83.6275V32.8517H83.6369V32.8611H83.6464V32.8705H83.6558V32.8799H83.6652V32.8893H83.6746V32.8987H83.684V32.9081H83.6934V32.9175H83.7028V32.9269H83.7122V32.9363H83.7216V32.9457H83.731V32.9551H83.7404V32.9645H83.7498V32.974H83.7592V32.9833H83.7686V32.9928H83.778V33.0021H83.7874V33.0115H83.7968V33.021H83.8062V33.0303H83.8156V33.0398H83.8251V33.0492H83.8345V33.0586H83.8438V33.068H83.8532V33.0774H83.8627V33.0868H83.8721V33.0962H83.8815V33.1056H83.8909V33.115H83.9003V33.1244H83.9097V33.1338H83.9191V33.1432H83.9285V33.1526H83.9379V33.162H83.9473V33.1714H83.9567V33.1809H83.9661V33.1902H83.9755V33.1997H83.9849V33.209H83.9943V33.2185H84.0037V33.2279H84.0131V33.2372H84.0225V33.2467H84.0319V33.256H84.0414V33.2655H84.0507V33.2749H84.0601V33.2843H84.0695V33.2937H84.079V33.3031H84.0884V33.3125H84.0978V33.3219H84.1072V33.3313H84.1166V33.3177H84.126V33.3271H84.1354V33.3365H84.1448V33.3459H84.1542V33.3553H84.1636V33.3647H84.173V33.3742H84.1824V33.3835H84.1918V33.393H84.2012V33.4023H84.2106V33.4118H84.22V33.4212H84.2294V33.4305H84.2388V33.44H84.2482V33.4494H84.2577V33.4588H84.267V33.4682H84.2764V33.4776H84.2858V33.487H84.2953V33.4964H84.3047V33.5058H84.3141V33.5152H84.3235V33.5246H84.3329V33.534H84.3423V33.5434H84.3517V33.5528H84.3611V33.5622H84.3705V33.5716H84.3799V33.5811H84.3893V33.5904H84.3987V33.5999H84.4081V33.6092H84.4175V33.6187H84.4269V33.6281H84.3998V33.6375H84.4092V33.6469H84.4186V33.6562H84.428V33.6657H84.4374V33.6751H84.4468V33.6845H84.4562V33.6939H84.4656V33.7033H84.475V33.7127H84.4844V33.7221H84.4938V33.7315H84.5032V33.7409H84.5126V33.7503H84.522V33.7597H84.5314V33.7691H84.5408V33.7785H84.5502V33.7879H84.5596V33.7973H84.569V33.8068H84.5784V33.8161H84.5878V33.8256H84.5972V33.8349H84.6066V33.8444H84.6161V33.8538H84.6255V33.8631H84.6349V33.8726H84.6443V33.882H84.6537V33.8914H84.6631V33.9008H84.6725V33.9102H84.6819V33.9196H84.6913V33.929H84.7007V33.9384H84.7101V33.9478H84.7195V33.9572H84.7289V33.9666H84.7383V33.976H84.7477V33.9854H84.7571V33.9948H84.7665V34.0042H84.7759V34.0137H84.7853V34.023H84.7947V34.0325H84.8041V34.0418H84.8135V34.0513H84.8229V34.0607H84.8324V34.07H84.8418V34.0795H84.8512V34.0888H84.8606V34.0983H84.87V34.1077H84.8794V34.1171H84.8888V34.1265H84.8982V34.1359H84.9076V34.1453H84.917V34.1547H84.9264V34.1641H84.9358V34.1735H84.9452V34.1829H84.9546V34.1923H84.964V34.2017H84.9734V34.2111H84.9828V34.2205H84.9922V34.2299H85.0016V34.2394H85.011V34.2487H85.0204V34.2582H85.0298V34.2675H85.0392V34.277H85.0487V34.2864H85.0581V34.2957H85.0675V34.3052H85.0769V34.3146H85.0863V34.324H85.0957V34.3334H85.1051V34.3428H85.1145V34.3522H85.1239V34.3616H85.1333V34.371H85.1427V34.3804H85.1521V34.3898H85.1615V34.3626H85.1709V34.372H85.1803V34.3815H85.1897V34.3908H85.1991V34.4003H85.2085V34.4096H85.2179V34.4191H85.2273V34.4285H85.2367V34.4379H85.2461V34.4473H85.2555V34.4567H85.265V34.4661H85.2744V34.4755H85.2838V34.4849H85.2932V34.4943H85.3026V34.5037H85.312V34.5131H85.3214V34.5225H85.3308V34.5319H85.3402V34.5413H85.3496V34.5507H85.359V34.5602H85.3684V34.5695H85.3778V34.5789H85.3872V34.5883H85.3966V34.5977H85.406V34.6072H85.4154V34.6165H85.4248V34.626H85.4342V34.6354H85.4436V34.6448H85.453V34.6542H85.4624V34.6636H85.4718V34.673H85.4447V34.6824H85.4541V34.6918H85.4635V34.7012H85.4729V34.7106H85.4823V34.72H85.4917V34.7294H85.5011V34.7388H85.5105V34.7482H85.5199V34.7576H85.5293V34.7671H85.5387V34.7764H85.5481V34.7859H85.5575V34.7952H85.5669V34.8046H85.5763V34.8141H85.5858V34.8234H85.5952V34.8329H85.6046V34.8422H85.6139V34.8517H85.6233V34.8611H85.6328V34.8705H85.6422V34.8799H85.6516V34.8893H85.661V34.8987H85.6704V34.9081H85.6798V34.9175H85.6892V34.9269H85.6986V34.9363H85.708V34.9457H85.7174V34.9551H85.7268V34.9645H85.7362V34.9739H85.7456V34.9833H85.755V34.9928H85.7644V35.0021H85.7738V35.0115H85.7832V35.0209H85.7926V35.0303H85.8021V35.0398H85.8115V35.0491H85.8208V35.0586H85.8302V35.068H85.8396V35.0774H85.8491V35.0868H85.8585V35.0962H85.8679V35.1056H85.8773V35.115H85.8867V35.1244H85.8961V35.1338H85.9055V35.1432H85.9149V35.1526H85.9243V35.162H85.9337V35.1714H85.9431V35.1808H85.9525V35.1902H85.9619V35.1997H85.9713V35.209H85.9807V35.2184H85.9901V35.2278H85.9995V35.2372H86.0089V35.2467H86.0184V35.256H86.0278V35.2655H86.0371V35.2748H86.0465V35.2843H86.0559V35.2937H86.0654V35.3031H86.0748V35.3125H86.0842V35.3219H86.0936V35.3313H86.103V35.3407H86.1124V35.3501H86.1218V35.3595H86.1312V35.3689H86.1406V35.3783H86.15V35.3877H86.1594V35.3971H86.1688V35.4065H86.1782V35.4159H86.1876V35.4254H86.197V35.4347H86.2064V35.4076H86.2158H86.2252V35.4169H86.2347V35.4264H86.2441V35.4358H86.2534V35.4452H86.2628V35.4546H86.2722V35.464H86.2817V35.4734H86.2911V35.4828H86.3005V35.4922H86.3099V35.5016H86.3193V35.511H86.3287V35.5204H86.3381V35.5298H86.3475V35.5392H86.3569V35.5486H86.3663V35.558H86.3757V35.5675H86.3851V35.5768H86.3945V35.5863H86.4039V35.5956H86.4133V35.6051H86.4227V35.6145H86.4321V35.6238H86.4415V35.6333H86.451V35.6426H86.4603V35.6521H86.4697V35.6615H86.4791V35.6709H86.4885V35.6803H86.498V35.6897H86.5074V35.6991H86.5168V35.7085H86.4896V35.7179H86.499V35.7273H86.5084V35.7367H86.5178V35.7461H86.5272V35.7555H86.5366V35.7649H86.546V35.7743H86.5554V35.7837H86.5648V35.7932H86.5742V35.8025H86.5836V35.812H86.593V35.8214H86.6025V35.8308H86.6119V35.8402H86.6213V35.8495H86.6307V35.859H86.6401V35.8684H86.6495V35.8778H86.6589V35.8872H86.6683V35.8966H86.6777V35.906H86.6871V35.9154H86.6965V35.9248H86.7059V35.9342H86.7153V35.9436H86.7247V35.953H86.7341V35.9624H86.7435V35.9718H86.7529V35.9812H86.7623V35.9906H86.7717V36.0001H86.7811V36.0094H86.7905V36.0189H86.7999V36.0282H86.8093V36.0377H86.8188V36.0471H86.8282V36.0564H86.8376V36.0659H86.847V36.0752H86.8564V36.0847H86.8658V36.0941H86.8752V36.1035H86.8846V36.1129H86.894V36.1223H86.9034V36.1317H86.9128V36.1411H86.9222V36.1505H86.9316V36.1599H86.941V36.1693H86.9504V36.1787H86.9598V36.1881H86.9692V36.1975H86.9786V36.2069H86.988V36.2163H86.9974V36.2258H87.0068V36.2351H87.0162V36.2446H87.0256V36.254H87.0351V36.2633H87.0445V36.2728H87.0539V36.2821H87.0633V36.2916H87.0727V36.301H87.0821V36.3104H87.0915V36.3198H87.1009V36.3292H87.1103V36.3386H87.1197V36.348H87.1291V36.3574H87.1385V36.3668H87.1479V36.3762H87.1573V36.3856H87.1667V36.395H87.1761V36.4044H87.1855V36.4138H87.1949V36.4232H87.2043V36.4327H87.2137V36.442H87.2231V36.4515H87.2325V36.4608H87.2419V36.4703H87.2514V36.4797H87.2608V36.4525H87.2702V36.4619H87.2796V36.4713H87.289V36.4807H87.2984V36.4901H87.3078V36.4995H87.3172V36.5089H87.3266V36.5183H87.336V36.5277H87.3454V36.5371H87.3548V36.5466H87.3642V36.5559H87.3736V36.5653H87.383V36.5748H87.3924V36.5841H87.4018V36.5936H87.4112V36.6029H87.4206V36.6124H87.43V36.6218H87.4394V36.6312H87.4488V36.6406H87.4582V36.65H87.4677V36.6594H87.4771V36.6688H87.4865V36.6782H87.4959V36.6876H87.5053V36.697H87.5147V36.7064H87.5241V36.7158H87.5335V36.7252H87.5429V36.7346H87.5523V36.744H87.5617V36.7535H87.5345V36.7628V36.7723H87.5439V36.7816H87.5533V36.791H87.5627V36.8005H87.5722V36.8098H87.5816V36.8193H87.5909V36.8286H87.6003V36.8381H87.6098V36.8475H87.6192V36.8569H87.6286V36.8663H87.638V36.8757H87.6474V36.8851H87.6568V36.8945H87.6662V36.9039H87.6756V36.9133H87.685V36.9227H87.6944V36.9321H87.7038V36.9415H87.7132V36.9509H87.7226V36.9603H87.732V36.9697H87.7414V36.9792H87.7508V36.9885H87.7602V36.9979H87.7696V37.0074H87.779V37.0167H87.7885V37.0262H87.7979V37.0355H87.8072V37.045H87.8166V37.0544H87.8261V37.0638H87.8355V37.0732H87.8449V37.0826H87.8543V37.092H87.8637V37.1014H87.8731V37.1108H87.8825V37.1202H87.8919V37.1296H87.9013V37.139H87.9107V37.1484H87.9201V37.1578H87.9295V37.1672H87.9389V37.1766H87.9483V37.1861H87.9577V37.1954H87.9671V37.2048H87.9765V37.2142H87.9859V37.2236H87.9953V37.2331H88.0048V37.2424H88.0142V37.2519H88.0235V37.2612H88.0329V37.2707H88.0424V37.2801H88.0518V37.2895H88.0612V37.2989H88.0706V37.3083H88.08V37.3177H88.0894V37.3271H88.0988V37.3365H88.1082V37.3459H88.1176V37.3553H88.127V37.3647H88.1364V37.3741H88.1458V37.3835H88.1552V37.3929H88.1646V37.4023H88.174V37.4118H88.1834V37.4211H88.1928V37.4305H88.2022V37.44H88.2116V37.4493H88.2211V37.4588H88.2304V37.4681H88.2398V37.4776H88.2492V37.487H88.2587V37.4964H88.2681V37.5058H88.2775V37.5152H88.2869V37.5246H88.2963V37.4974H88.3057V37.5068H88.3151V37.5162H88.3245V37.5256H88.3339V37.535H88.3433V37.5444H88.3527V37.5539H88.3621V37.5632H88.3715V37.5727H88.3809V37.582H88.3903V37.5915H88.3997V37.6009H88.4091V37.6102H88.4185V37.6197H88.4279V37.6291H88.4374V37.6385H88.4467V37.6479H88.4561V37.6573H88.4655V37.6667H88.475V37.6761H88.4844V37.6855H88.4938V37.6949H88.5032V37.7043H88.5126V37.7137H88.522V37.7231H88.5314V37.7325H88.5408V37.7419H88.5502V37.7513H88.5596V37.7608H88.569V37.7701H88.5784V37.7796H88.5878V37.7889H88.5972V37.7984H88.6066V37.8078H88.5795V37.8172H88.5889V37.8266H88.5983V37.8359H88.6077V37.8454H88.6171V37.8548H88.6265V37.8642H88.6359V37.8736H88.6453V37.883H88.6547V37.8924H88.6641V37.9018H88.6735V37.9112H88.6829V37.9206H88.6923V37.93H88.7017V37.9394H88.7111V37.9488H88.7205V37.9582H88.7299V37.9676H88.7393V37.977H88.7487V37.9865H88.7581V37.9958H88.7675V38.0053H88.7769V38.0146H88.7863V38.0241H101.279V25.5111H101.265Z" fill="#292F36"/>
<path d="M101.265 47.9812H101.255V47.9718H101.246V47.9634H101.237V47.954H101.227V47.9467H101.218V47.9373H101.208V47.9289H101.199V47.9195H101.19V47.9101H101.18V47.9017H101.171V47.8923H101.161V47.883H101.152V47.8746H101.142V47.8652H101.133V47.8558H101.124V47.8422H101.118V47.8328H101.109V47.8234H101.101V47.8151H101.091V47.8056H101.082V47.7962H101.074V47.7879H101.064V47.7784H101.055V47.7691H101.045V47.7607H101.036V47.7513H101.027V47.7419H101.017V47.7377H101.008V47.7283H100.998V47.7189H100.99V47.7105H100.981V47.7011H100.971V47.6917H100.962V47.6834H100.952V47.674H100.943V47.6645H100.934V47.6552H100.924V47.6468H100.915V47.6332H100.905V47.6238H100.896V47.6154H100.886V47.6061H100.877V47.5966H100.868V47.5883H100.858V47.5789H100.849V47.5694H100.839V47.5611H100.83V47.5517H100.821V47.5423H100.811V47.5339H100.802V47.5287H100.792V47.5193H100.784V47.511H100.775V47.5015H100.765V47.4921H100.756V47.4838H100.746V47.4744H100.737V47.465H100.729V47.4566H100.719V47.4472H100.71V47.4378H100.702V47.4242H100.692V47.4149H100.683V47.4054H100.674V47.3971H100.665V47.3877H100.656V47.3782H100.646V47.3699H100.637V47.3605H100.627V47.3511H100.619V47.3427H100.61V47.3333H100.6V47.3239H100.591V47.3198H100.581V47.3103H100.572V47.3009H100.563V47.2915H100.553V47.2831H100.544V47.2738H100.534V47.2643H100.525V47.256H100.516V47.2466H100.506V47.2372H100.497V47.2288H100.487V47.2152H100.478V47.2059H100.469V47.1975H100.459V47.1881H100.45V47.1787H100.44V47.1703H100.431V47.1609H100.421V47.1515H100.413V47.1432H100.404V47.1337H100.394V47.1243H100.385V47.116H100.376V47.1108H100.366V47.1013H100.358V47.093H100.348V47.0836H100.339V47.0742H100.331V47.0658H100.321V47.0564H100.312V47.047H100.303V47.0386H100.294V47.0293H100.285V47.0198H100.275V47.0062H100.266H100.256V46.9969H100.247V46.9874H100.238V46.9791H100.228V46.9697H100.219V46.9613H100.209V46.9519H100.2V46.9425H100.191V46.9331H100.181V46.9247H100.172V46.9153H100.162V46.9018H100.153V46.8934H100.144V46.884H100.134V46.8746H100.126V46.8662H100.116V46.8568H100.107V46.8474H100.098V46.8391H100.088V46.8297H100.079V46.8203H100.069V46.8119H100.06V46.8025H100.074V46.7973H100.065V46.7889H100.056V46.7795H100.046V46.7701H100.038V46.7618H100.029V46.7523H100.019V46.743H100.01V46.7346H100V46.7252H99.991V46.7158H99.9826V46.7074H99.9732V46.6928H99.9638V46.6834H99.9544V46.675H99.945V46.6656H99.9356V46.6562H99.9262V46.6468H99.9168V46.6384H99.9074V46.6291H99.898V46.6196H99.8886V46.6113H99.8792V46.6019H99.8698V46.5924H99.8604V46.5883H99.851V46.5789H99.8416V46.5695H99.8322V46.5611H99.8228V46.5517H99.8134V46.5423H99.804V46.534H99.7945V46.5245H99.7851V46.5151H99.7768V46.5068H99.7674V46.4974H99.758V46.4838H99.7486V46.4754H99.7392V46.466H99.7298V46.4566H99.7204V46.4482H99.7109V46.4389H99.7015V46.4294H99.6932V46.4211H99.6838V46.4117H99.6744V46.4023H99.665V46.3939H99.6556V46.3845H99.6462V46.3793H99.6368V46.3709H99.6274V46.3615H99.6179V46.3521H99.6096V46.3438H99.6002V46.3343H99.5908V46.325H99.5814V46.3166H99.572V46.3072H99.5626V46.2978H99.5532V46.2884H99.5438V46.2748H99.5344V46.2654H99.525V46.256H99.5156V46.2477H99.5061V46.2382H99.4967V46.2288H99.4873V46.2205H99.4779V46.2111H99.4685V46.2017H99.4591V46.1933H99.4497V46.1839H99.4403V46.1745H99.4309V46.1703H99.4215V46.1609H99.4121V46.1515H99.4037V46.1431H99.3943V46.1338H99.3849V46.1243H99.3755V46.116H99.3661V46.1066H99.3567V46.0971H99.3484V46.0888H99.339V46.0794H99.3295V46.0658H99.3212V46.0575H99.3118V46.048H99.3024V46.0387H99.293V46.0303H99.2836V46.0209H99.2742V46.0115H99.2648V46.0031H99.2554V45.9937H99.246V45.9843H99.2366V45.9749H99.2272V45.9665H99.2177V45.9613H99.2083V45.9519H99.1989V45.9436H99.1895V45.9341H99.1801V45.9248H99.1707V45.9164H99.1613V45.907H99.1519V45.8976H99.1425V45.8892H99.1331V45.8798H99.1237V45.8704H99.1143V45.8568H99.1049V45.8475H99.0955V45.838H99.0861V45.8297H99.0767V45.8203H99.0673V45.8109H99.0589V45.8025H99.0495V45.7931H99.0401V45.7837H99.0318V45.7753H99.0224V45.766H99.0129V45.7565H99.0046V45.7524H99.0286V45.7429H99.0192V45.7336H99.0098V45.7252H99.0004V45.7158H98.991V45.7064H98.9826V45.698H98.9732V45.6886H98.9638V45.6792H98.9544V45.6709H98.945V45.6614H98.9356V45.6478H98.9262V45.6385H98.9168V45.6301H98.9074V45.6207H98.898V45.6113H98.8886V45.6029H98.8792V45.5935H98.8698V45.5841H98.8604V45.5758H98.851V45.5663H98.8416V45.557H98.8322V45.5486H98.8228V45.5434H98.8134V45.5339H98.804V45.5256H98.7946V45.5162H98.7851V45.5068H98.7768V45.4984H98.7674V45.489H98.758V45.4796H98.7486V45.4712H98.7392V45.4619H98.7298V45.4524H98.7214V45.4388H98.712V45.4295H98.7026V45.42H98.6942V45.4117H98.6848V45.4023H98.6754V45.3929H98.6671V45.3845H98.6577V45.3751H98.6483V45.3658H98.6389V45.3573H98.6294V45.348H98.62V45.3386H98.6107V45.3344H98.6012V45.325H98.5918V45.3156H98.5824V45.3072H98.573V45.2978H98.5636V45.2884H98.5542V45.279H98.5448V45.2707H98.5354V45.2612H98.526V45.2518H98.5166V45.2435H98.5072V45.2299H98.4978H98.4894V45.2216H98.48V45.2121H98.4706V45.2027H98.4612V45.1944H98.4518V45.1849H98.4424V45.1756H98.433V45.1672H98.4236V45.1578H98.4142V45.1484H98.4058V45.14H98.3964V45.1254H98.387V45.116H98.3787V45.1076H98.3693V45.0982H98.3599V45.0888H98.3505V45.0805H98.341V45.071H98.3316V45.0617H98.3233V45.0533H98.3139V45.0439H98.3045V45.0345H98.2961V45.0261H98.2867V45.0209H98.2773V45.0115H98.2679V45.0031H98.2585V44.9937H98.2491V44.9843H98.2397V44.9749H98.2303V44.9666H98.2209V44.9571H98.2115V44.9478H98.2021V44.9394H98.1927V44.93H98.1833V44.9164H98.1739V44.908H98.1645V44.8986H98.1551V44.8892H98.1457V44.8809H98.1362V44.8715H98.1268V44.862H98.1185V44.8537H98.1091V44.8443H98.0997V44.8349H98.0903V44.8265H98.0809V44.8171H98.0715V44.8119H98.0621V44.8036H98.0527V44.7941H98.0433V44.7847H98.0349V44.7764H98.0255V44.7669H98.0161V44.7576H98.0077V44.7492H97.9983V44.7398H97.9889V44.7304H97.9795V44.722H97.9701V44.7074H97.9837V44.698H97.9753V44.6897H97.9659V44.6803H97.9565V44.6708H97.9471V44.6625H97.9377V44.6531H97.9283V44.6437H97.9189V44.6343H97.9095V44.6259H97.9001V44.6165H97.8907V44.6029H97.8813H97.8719V44.5935H97.8625V44.5841H97.8531V44.5757H97.8437V44.5664H97.8343V44.5569H97.8249V44.5486H97.8155V44.5392H97.8061V44.5298H97.7966V44.5214H97.7872V44.512H97.7778V44.4984H97.7695V44.4901H97.7601V44.4807H97.7507V44.4713H97.7413V44.4629H97.7319V44.4535H97.7225V44.4441H97.7131V44.4358H97.7036V44.4263H97.6943V44.4169H97.6859V44.4086H97.6765V44.3991H97.6671V44.3939H97.6577V44.3856H97.6483V44.3762H97.6389V44.3667H97.6295V44.3584H97.62V44.349H97.6107V44.3396H97.6012V44.3312H97.5918V44.3218H97.5824V44.3124H97.573V44.303H97.5636V44.2894H97.5542V44.2801H97.5448V44.2706H97.5354V44.2623H97.526V44.2529H97.5166V44.2435H97.5072V44.2351H97.4978V44.2257H97.4884V44.2163H97.479V44.2079H97.4696V44.1986H97.4602V44.1891H97.4508V44.185H97.4414V44.1755H97.432V44.1662H97.4226V44.1578H97.4132V44.1484H97.4038V44.139H97.3954V44.1306H97.386V44.1212H97.3766V44.1118H97.3682V44.1035H97.3588V44.094H97.3494V44.0805H97.3411V44.0721H97.3317V44.0627H97.3223V44.0533H97.3139V44.0449H97.3045V44.0356H97.2951V44.0261H97.2857V44.0178H97.2763V44.0084H97.2669V43.9989H97.2575V43.9906H97.2481V43.9812H97.2387V43.976H97.2293V43.9665H97.2198V43.9582H97.2104V43.9488H97.201V43.9394H97.1916V43.931H97.1822V43.9216H97.1728V43.9122H97.1634V43.9039H97.154V43.8945H97.1446V43.885H97.1352V43.8715H97.1258V43.8621H97.1164V43.8526H97.107V43.8443H97.0976V43.8349H97.0882V43.8255H97.0788V43.8171H97.0694V43.8077H97.06V43.7984H97.0516V43.7899H97.0422V43.7806H97.0328V43.7712H97.0244V43.767H97.015V43.7576H97.0056V43.7482H96.9973V43.7398H96.9879V43.7304H96.9785V43.721H96.9691V43.7126H96.9597V43.7033H96.9503V43.6938H96.9409V43.6855H96.9314V43.6761H96.922V43.6625H96.9388H96.9294V43.6531H96.92V43.6437H96.9106V43.6354H96.9012V43.6259H96.8917V43.6165H96.8823V43.6071H96.8729V43.5987H96.8635V43.5894H96.8541V43.5799H96.8447V43.5716H96.8353V43.558H96.8259V43.5486H96.8165V43.5403H96.8071V43.5308H96.7977V43.5214H96.7883V43.5131H96.7789V43.5037H96.7695V43.4943H96.7611V43.4859H96.7517V43.4765H96.7423V43.4671H96.734V43.4535H96.7246H96.7151V43.4441H96.7057V43.4357H96.6963V43.4264H96.6869V43.4169H96.6786V43.4086H96.6692V43.3992H96.6598V43.3897H96.6514V43.3814H96.642V43.372H96.6326V43.3626H96.6232V43.349H96.6138V43.3396H96.6044V43.3302H96.595V43.3218H96.5856V43.3124H96.5762V43.3031H96.5668V43.2936H96.5574V43.2853H96.548V43.2759H96.5386V43.2665H96.5292V43.2581H96.5197V43.2445H96.5103V43.2351H96.5009V43.2267H96.4915V43.2174H96.4821V43.208H96.4738V43.1996H96.4644V43.1902H96.455V43.1808H96.4456V43.1725H96.4362V43.163H96.4267V43.1536H96.4174V43.1453H96.4079V43.1401H96.3985V43.1306H96.3902V43.1223H96.3808V43.1129H96.3714V43.1034H96.363V43.0951H96.3536V43.0857H96.3442V43.0763H96.3348V43.0679H96.3254V43.0585H96.316V43.0491H96.3076V43.0355H96.2982H96.2888V43.0262H96.2805V43.0178H96.271V43.0084H96.2617V42.999H96.2523V42.9906H96.2428V42.9812H96.2334V42.9718H96.224V42.9624H96.2146V42.954H96.2052V42.9446H96.1958V42.9311H96.1864V42.9227H96.177V42.9133H96.1676V42.9039H96.1582V42.8955H96.1488V42.8861H96.1394V42.8767H96.13V42.8684H96.1206V42.8589H96.1112V42.8496H96.1028V42.8412H96.0934V42.8265H96.084H96.0746V42.8182H96.0652V42.8088H96.0558V42.7994H96.0464V42.791H96.037V42.7816H96.0276V42.7722H96.0192V42.7638H96.0098V42.7545H96.0004V42.745H95.9921V42.7367H95.9827V42.7221H95.9733V42.7127H95.9639V42.7043H95.9544V42.6949H95.945V42.6855H95.9356V42.6771H95.9262V42.6677H95.9168V42.6583H95.9074V42.6489H95.898V42.6406H95.8886V42.6312H95.8792V42.6228H95.8938V42.6176H95.8844V42.6082H95.875V42.5988H95.8656V42.5904H95.8562V42.581H95.8468V42.5716H95.8374V42.5633H95.828V42.5538H95.8186V42.5444H81.2628C81.268 43.8848 81.0297 45.215 80.5596 46.4702C80.1187 47.6502 79.4644 48.739 78.6296 49.6823C77.8306 50.5848 76.8598 51.3191 75.7738 51.8422C74.6774 52.3626 73.4796 52.6341 72.266 52.6374C71.3316 52.6344 70.4047 52.47 69.5262 52.1515C69.4938 52.0731 69.4562 51.9979 69.4217 51.9185C68.9495 50.6636 68.7092 49.3334 68.7122 47.9927C68.7087 46.6495 68.9491 45.3169 69.4217 44.0596C69.8598 42.8787 70.5148 41.79 71.3527 40.8496C72.152 39.9458 73.1231 39.2102 74.2095 38.6855C75.3038 38.1672 76.4992 37.8974 77.7101 37.8955V25.5111H77.7017V25.5027H77.6923V25.4934H77.6829V25.4808H77.6745V25.4714H77.6651V25.462H77.6557V25.4526H77.6474V25.4432H77.638V25.4338H77.6285V25.4244H77.6202V25.415H77.6108V25.4055H77.6014V25.3962H77.593V25.3867H77.5836V25.3774H77.5742V25.3763H77.5659V25.3669H77.5564V25.3575H77.547V25.3481H77.5387V25.3387H77.5293V25.3293H77.5199V25.3199H77.5105V25.3105H77.5021V25.3011H77.4927V25.2916H77.4843V25.2823H77.4749V25.2718H77.4656V25.2624H77.4562V25.253H77.4478V25.2446H77.4384V25.2353H77.429V25.2258H77.4206V25.2175H77.4112V25.2081H77.4018V25.1987H77.3935V25.1903H77.3841V25.1809H77.3746V25.1715H77.3663V25.1673H77.3569V25.1579H77.3475V25.1485H77.3391V25.1402H77.3297V25.1307H77.3203V25.1214H77.312V25.1119H77.3025V25.1025H77.2931V25.0932H77.2848V25.0837H77.2754V25.0743H77.266V25.0628H77.2576V25.0534H77.2482V25.044H77.2388V25.0346H77.2304V25.0252H77.221V25.0158H77.2116V25.0064H77.2033V24.997H77.1939V24.9876H77.1845V24.9782H77.1751V24.9688H77.1667V24.9594H77.1573V24.9583H77.1479V24.949H77.1395V24.9405H77.1301V24.9312H77.1218V24.9218H77.1124V24.9124H77.103V24.903H77.0935V24.8935H77.0852V24.8852V24.8758H77.0758V24.8664H77.0674V24.858H77.058V24.8539H77.0486V24.8444H77.0403V24.8361H77.0309V24.8267H77.0215V24.8173H77.0131V24.8079H77.0037V24.7984H76.9943V24.7891H76.9859V24.7796H76.9765V24.7703H76.9671V24.7608H76.9588V24.7493H76.9494V24.74H76.9399V24.7305H76.9316V24.7212H76.9222V24.7117H76.9128V24.7023H76.9044V24.6929H76.895V24.6835H76.8856V24.6741H76.8772V24.6647H76.8678V24.6553H76.8584V24.6459H76.8501V24.6449H76.8407V24.6354H76.8313V24.6261H76.8219V24.6166H76.8135V24.6072H76.8041V24.5979H76.7947V24.5884H76.7863V24.5801H76.7769V24.5707H76.7676V24.5613H76.7592V24.5519H76.7498V24.5403H76.7404V24.531H76.732V24.5226H76.7226V24.5132H76.7132V24.5038H76.7048V24.4954H76.6955V24.486H76.686V24.4766H76.6777V24.4683H76.6683V24.4588H76.6589V24.4495H76.6505V24.4401H76.6411V24.4359H76.6317V24.4265H76.6234V24.4171H76.6139V24.4077H76.6045V24.3982H76.5962V24.3889H76.5868V24.3794H76.5774V24.3701H76.569V24.3606H76.5596V24.3512H76.5502V24.3418H76.5418V24.3314H76.5324V24.322H76.523V24.3126H76.5136V24.3032H76.5053V24.2938H76.4959V24.2843H76.4875V24.275H76.4781V24.2655H76.4687V24.2562H76.4593V24.2467H76.4509V24.2384H76.4415V24.229H76.4321V24.2269H76.4238V24.2185H76.4144V24.2091H76.4049V24.1997H76.3966V24.1914H76.3872V24.182H76.3778V24.1725H76.3694V24.1632H76.36V24.1537H76.3506V24.1444H76.3423V24.136H76.3328V24.1224H76.3234V24.113H76.3151V24.1036H76.3057V24.0942H76.2963V24.0848H76.2879V24.0754H76.2785V24.066H76.2691V24.0566H76.2607V24.0472H76.2513V24.0378H76.2419V24.0283H76.2336V24.019H76.2242V24.0179H76.2148V24.0085H76.2064V23.9991H76.197V23.9897H76.1876V23.9803H76.1792V23.9709H76.1698V23.9615H76.1604V23.9521H76.151V23.9427H76.1427V23.9343H76.1333V23.9249H76.1249V23.9134H76.1155V23.904H76.1061V23.8946H76.0967V23.8852H76.0883V23.8769H76.0789V23.8674H76.0695V23.8581H76.0612V23.8497H76.0518V23.8403H76.0403V23.8309V23.8225H76.0309V23.8131H76.0215V23.8089H76.0131V23.7995H76.0037V23.7901H75.9943V23.7807H75.9859V23.7713H75.9765V23.7619H75.9671V23.7525H75.9588V23.7431H75.9494V23.7337H75.9399V23.7243H75.9316V23.7149H75.9222V23.7044H75.9128V23.695H75.9044V23.6856H75.895V23.6762H75.8856V23.6668H75.8762V23.6574H75.8678V23.648H75.8584V23.6386H75.8501V23.6292H75.8407V23.6198H75.8313V23.6104H75.8229V23.601H75.8135V23.5999H75.8041V23.5905H75.7947V23.5811H75.7863V23.5728H75.7769V23.5633H75.7676V23.554H75.7592V23.5445H75.7498V23.5352H75.7404V23.5258H75.732V23.5163H75.7226V23.507H75.7132V23.4954H75.7048V23.4871H75.6955V23.4777H75.6861V23.4682H75.6777V23.4589H75.6683V23.4495H75.6589V23.4401H75.6505V23.4307H75.6411V23.4212H75.6317V23.4119H75.6234V23.4024H75.614V23.3931H75.6045V23.391H75.5962V23.3816H75.5868V23.3721H75.5774V23.3628H75.569V23.3533H75.5596V23.3439H75.5502V23.3345H75.5419V23.3251H75.5324V23.3157H75.523V23.3063H75.5136V23.2969H75.5053V23.2865H75.4959H75.4875V23.277H75.4781V23.2677H75.4687V23.2582H75.4593V23.2489H75.4509V23.2405H75.4415V23.2311H75.4321V23.2217H75.4238V23.2133H75.4144V23.2039H75.405V23.1945H75.3966V23.182H75.3872V23.1726H75.3778V23.1631H75.3694V23.1538H75.36V23.1443H75.3506V23.1349H75.3423V23.1266H75.3329V23.1172H75.3234V23.1078H75.3151V23.0983H75.3057V23.089H75.2963V23.0775H75.2879H75.2785V23.068H75.2691V23.0587H75.2608V23.0492H75.2513V23.0399H75.2419V23.0305H75.2336V23.021H75.2242V23.0117H75.2148V23.0022H75.2064V22.9929H75.197V22.9834H75.1876V22.973H75.1782V22.9636H75.1698V22.9541H75.1604V22.9448H75.151V22.9354H75.1427V22.927H75.1333V22.9176H75.1239V22.9082H75.1155V22.8988H75.1061V22.8894H75.0967V22.88H75.0883V22.8716H75.0789V22.8685H75.0695V22.8591H75.0612V22.8507H75.0518V22.8413H75.0424V22.8319H75.034V22.8235H75.0246V22.8142H75.0152V22.8048H75.0068V22.7953H74.9953V22.786H74.9859V22.7765H74.9776V22.764H74.9682V22.7546H74.9588V22.7452H74.9504V22.7358H74.941V22.7264H74.9316V22.717H74.9232V22.7076H74.9138V22.6981H74.9044V22.6888H74.8961V22.6793H74.8867V22.67H74.8773V22.6595H74.8679H74.8595V22.6511H74.8501V22.6418H74.8417V22.6323H74.8323V22.6229H74.8229V22.6135H74.8135V22.6041H74.8052V22.5958H74.7958V22.5863H74.7863V22.577H74.778V22.5686H74.7686V22.555H74.7592V22.5456H74.7508V22.5372H74.7414V22.5279H74.732V22.5184H74.7237V22.509H74.7142V22.4996H74.7048V22.4902H74.6965V22.4819H74.6871V22.4724H74.6777V22.4631H74.6693V22.4505H74.6599H74.6505V22.4411H74.6421V22.4317H74.6328V22.4223H74.6234V22.4129H74.615V22.4035H74.6056V22.3941H74.5962V22.3847H74.5878V22.3753H74.5784V22.3659H74.569V22.3565H74.5607V22.346H74.5513V22.3367H74.5419V22.3272H74.5335V22.3178H74.5241V22.3084H74.5147V22.299H74.5053V22.2896H74.4969V22.2802H74.4875V22.2708H74.4792V22.2614H74.4698V22.252H74.4604V22.2426H74.4509V22.2416H74.4426V22.2332H74.4332V22.2238H74.4238V22.2144H74.4154V22.206H74.406V22.1966H74.3966V22.1872H74.3883V22.1789H74.3788V22.1694H74.3694V22.1601H74.3611V22.1506H74.3517V22.137H74.3423V22.1277H74.3339V22.1193H74.3245V22.1099H74.3151V22.1005H74.3067V22.091H74.2973V22.0817H74.2879V22.0722H74.2796V22.0629H74.2702V22.0534H74.2608V22.044H74.2524V22.0347H74.243V22.0326H74.2336V22.0231H74.2242V22.0137H74.2158V22.0043H74.2064V21.9949H74.1981V21.9856H74.1887V21.9761H74.1793V21.9667H74.1709V21.9573H74.1615V21.9479H74.1521V21.9385H74.1427V21.928H74.1343V21.9197H74.1249V21.9103H74.1155V21.9009H74.1072V21.8915H74.0977V21.8821H74.0883V21.8727H74.08V21.8643H74.0706V21.8549H74.0612V21.8455H74.0528V21.8371H74.0434V21.8278H74.034V21.8236H74.0256V21.8142H74.0162V21.8047H74.0068V21.7954H73.9985V21.7859H73.9891V21.7766H73.9797V21.7671H73.9713V21.7577H73.9619V21.7483H73.9504V21.7389H73.9421V21.7295H73.9327V21.7191H73.9233V21.7097H73.9149V21.7003H73.9055V21.6908H73.8961V21.6815H73.8877V21.672H73.8783V21.6627H73.8689V21.6532H73.8595V21.6438H73.8512V21.6355H73.8417V21.626H73.8334V21.6167H73.824V21.6146H73.8146V21.6052H73.8062V21.5958H73.7968V21.5874H73.7874V21.578H73.778V21.5686H73.7696V21.5602H73.7602V21.5509H73.7508V21.5414H73.7425V21.5331H73.7331V21.5237H73.7237V21.5101H73.7153V21.5007H73.7059V21.4913H73.6965V21.4818H73.6881V21.4735H73.6787V21.4641H73.6693V21.4547H73.661V21.4453H73.6516V21.4359H73.6422V21.4265H73.6338V21.4171H73.6244V21.4077H73.615V21.4056H73.6066V21.3962H73.5972V21.3868H73.5878V21.3774H73.5795V21.368H73.5701V21.3586H73.5607V21.3492H73.5523V21.3397H73.5429V21.3304H73.5335V21.3209H73.5251V21.3116H73.5157V21.3011H73.5063V21.2917H73.4969V21.2823H73.4886V21.2729H73.4792V21.2635H73.4698V21.2541H73.4614V21.2447H73.452V21.2353H73.4426V21.2258H73.4342V21.2175H73.4248V21.2081H73.4154V21.1987H73.4071V21.1966H73.3977V21.1872H73.3883V21.1778H73.3799V21.1695H73.3705V21.16H73.3611V21.1507H73.3527V21.1412H73.3433V21.1318H73.3339V21.1224H73.3256V21.114H73.3162V21.1047H73.3067V21.0921H73.2984V21.0827H73.289V21.0733H73.2796V21.0639H73.2712V21.0545H73.2618V21.0451H73.2524V21.0357H73.2441V21.0263H73.2346V21.0169H73.2252V21.0075H73.2169V20.9981H73.2075V20.9887H73.1981V20.9876H73.1897V20.9782H73.1803V20.9688H73.1709V20.9594H73.1615V20.95H73.1531V20.9417H73.1437V20.9322H73.1343V20.9228H73.126V20.9145H73.1166V20.905H73.1072V20.8957H73.0988V20.8831H73.0894H73.08V20.8737H73.0716V20.8654H73.0622V20.8559H73.0528V20.8466H73.0445V20.8382H73.0351V20.8288H73.0257V20.8194H73.0173V20.81H73.0079V20.8006H72.9985V20.7912H72.9901V20.7786H72.9807V20.7693H72.9713V20.7598H72.963V20.7504H72.9536V20.741H72.9441V20.7316H72.9358V20.7222H72.9264V20.7128H72.917V20.7034H72.9055V20.694H72.8961V20.6846H72.8867V20.6752H72.8783V20.6742H72.8689V20.6647H72.8595V20.6554H72.8512V20.6459H72.8417V20.6365H72.8323V20.6271H72.824V20.6177H72.8146V20.6083H72.8052V20.5989H72.7958V20.5895H72.7874V20.5811H72.778V20.5696H72.7686V20.5603H72.7602V20.5519H72.7508V20.5425H72.7414V20.5331H72.7331V20.5247H72.7237V20.5153H72.7143V20.5059H72.7059V20.4965H72.6965V20.4871H72.6871V20.4777H72.6787V20.4693H72.6693V20.4652H72.66V20.4557H72.6516V20.4464H72.6422V20.4369H72.6328V20.4275H72.6244V20.4182H72.615V20.4087H72.6056V20.3994H72.5972V20.3899H72.5879V20.3805H72.5784V20.3711H72.5701V20.3606H72.5607V20.3513H72.5513V20.3418H72.5429V20.3325H72.5335V20.3231H72.5241V20.3136H72.5158V20.3043H72.5063V20.2948H72.4969V20.2854H72.4875V20.276H72.4792V20.2666H72.4698V20.2572H72.4604V20.2562H72.452V20.2468H72.4426V20.2374H72.4332V20.228H72.4248V20.2196H72.4154V20.2102H72.406V20.2008H72.3977V20.1925H72.3883V20.183H72.3789V20.1736H72.3705V20.1653H72.3611V20.1517H72.3517V20.1423H72.3433V20.1329H72.3339V20.1235H72.3245V20.1141H72.3162V20.1046H72.3068V20.0953H72.2973V20.0858H72.289V20.0765H72.2796V20.067H72.2702V20.0576C69.1309 20.0536 66.0197 20.6494 63.1041 21.8131C60.3294 22.9383 57.7911 24.5752 55.6214 26.6385C53.4851 28.6624 51.7714 31.09 50.5796 33.7806C49.3504 36.5356 48.7169 39.5193 48.7207 42.5361C48.7169 45.5495 49.3504 48.5297 50.5796 51.281C51.7713 53.9736 53.4849 56.4032 55.6214 58.4294L55.6308 58.4388L55.6392 58.4482L55.6485 58.4565L55.6663 58.4753L55.6757 58.4837L55.6935 58.5025L55.7123 58.5203L55.7206 58.5297L55.7395 58.5475L55.7478 58.5568L55.7572 58.5652L55.7666 58.5746L55.7844 58.5924L55.7938 58.6018L55.8022 58.6112L55.8116 58.6195L55.8293 58.6384L55.8387 58.6467L55.8575 58.6655L55.8659 58.6739L55.8753 58.6833L55.8847 58.6927L55.9025 58.7105L55.9119 58.7199L55.9202 58.7292L55.9296 58.7377L55.9474 58.7564L55.9568 58.7648L55.9746 58.7836L55.9934 58.8014L56.0017 58.8107L56.0206 58.8285L56.0289 58.8379L56.0383 58.8463L56.0477 58.8557L56.0655 58.8734L56.0749 58.8829L56.0833 58.8923L56.0927 58.9006L56.1104 58.9194L56.1198 58.9278L56.1376 58.9466L56.1564 58.9644L56.1658 58.9738L56.1836 58.9916L56.1919 59.0009L56.2013 59.0093L56.2107 59.0187L56.2285 59.0375L56.2379 59.0459L56.2557 59.0647L56.2745 59.0824L56.2828 59.0919L56.3016 59.1096L56.31 59.119L56.3194 59.1274L56.3288 59.1368L56.3466 59.1546L56.356 59.1639L56.3643 59.1734L56.3737 59.1817L56.3915 59.2006L56.4009 59.2089L56.4187 59.2277L56.4375 59.2454L56.4458 59.2549L56.4646 59.2726L56.473 59.2821L56.4824 59.2904L56.4918 59.2998L56.5096 59.3176L56.519 59.327L56.5284 59.3364L56.5367 59.3447L56.5545 59.3636L56.5639 59.3729L56.5827 59.3907L56.6005 59.4085L56.6099 59.4179L56.6277 59.4356L56.6371 59.4451L56.6454 59.4544L56.6548 59.4628L56.6726 59.4816L56.682 59.49L56.6998 59.5088L56.7186 59.5265L56.7269 59.536L56.7457 59.5537L56.7541 59.5631L56.7635 59.5715L56.7729 59.5809L56.7907 59.5986L56.8001 59.608L56.8095 59.6175L56.8178 59.6258L56.8356 59.6446L56.845 59.653L56.8628 59.6718L56.8816 59.6895L56.891 59.699L56.9087 59.7167L56.9182 59.7261L56.9265 59.7355L56.9359 59.7439L56.9537 59.7627L56.9631 59.771L56.9725 59.7805L56.9809 59.7899L56.9997 59.8076L57.008 59.817L57.0268 59.8348L57.0446 59.8525L57.054 59.862L57.0717 59.8797L57.0811 59.8892L57.0895 59.8985L57.0989 59.9069L57.1167 59.9257L57.1261 59.9341L57.1438 59.9529L57.1626 59.9707L57.1721 59.98L57.1898 59.9978L57.1982 60.0072L57.2076 60.0156L57.217 60.025L57.2347 60.0438L57.2442 60.0522L57.2536 60.0615L57.2619 60.071L57.2807 60.0887L57.2891 60.0981L57.3079 60.1159L57.3257 60.1337L57.3351 60.143L57.3528 60.1608L57.3622 60.1702L57.3706 60.1796L57.38 60.188L57.3978 60.2068L57.4072 60.2152L57.4166 60.2246L57.4249 60.2339L57.4437 60.2517L57.4521 60.2611L57.4709 60.2789L57.4793 60.2883L57.4887 60.2966L57.4981 60.3061L57.5158 60.3238L57.5253 60.3332L57.5347 60.3426L57.543 60.351L57.5618 60.3698L57.5702 60.3792L57.589 60.3969L57.6068 60.4147L57.6162 60.4241L57.6339 60.4419L57.6433 60.4513L57.6517 60.4607L57.6611 60.4691L57.6789 60.4879L57.6883 60.4962L57.6977 60.5056L57.706 60.5151L57.7248 60.5328L57.7332 60.5422L57.752 60.56L57.7698 60.5778L57.7791 60.5871L57.7969 60.6049L57.8063 60.6143L57.8147 60.6237L57.8241 60.6321L57.8419 60.6509L57.8512 60.6593L57.8607 60.6686L57.8701 60.6781L57.8878 60.6958L57.8972 60.7052L57.915 60.723L57.9244 60.7324L57.9328 60.7418L57.9422 60.7501L57.9599 60.769L57.9693 60.7773L57.9787 60.7868L57.9871 60.7961L58.0059 60.8139L58.0143 60.8233L58.0331 60.8411L58.0508 60.8588L58.0602 60.8683L58.078 60.886L58.0874 60.8954L58.0958 60.9048L58.1052 60.9132L58.1229 60.932L58.1323 60.9403L58.1418 60.9497L58.1501 60.9591L58.1689 60.9769L58.1783 60.9863L58.1961 61.004L58.2139 61.0218L58.2233 61.0312L58.241 61.05L58.2504 61.0584L58.2598 61.0678L58.2682 61.0772L58.287 61.095L58.2954 61.1044L58.3048 61.1127L58.3142 61.1222L58.3319 61.1399L58.3413 61.1493L58.3591 61.1671L58.3685 61.1765L58.3769 61.1859L58.3863 61.1942L58.404 61.213L58.4134 61.2214L58.4229 61.2308L58.4312 61.2402L58.45 61.258L58.4594 61.2674L58.4772 61.2852L58.495 61.3029L58.5043 61.3123L58.5221 61.3312L58.5315 61.3395L58.5409 61.3489L58.5493 61.3572L58.5681 61.3761L58.5764 61.3855L58.5858 61.3938L58.5952 61.4032L58.613 61.421L58.6224 61.4304L58.6402 61.4482L58.6579 61.467L58.6673 61.4754L58.6851 61.4942L58.6945 61.5025L58.7039 61.5119L58.7123 61.5213L58.7311 61.5391L58.7394 61.5485L58.7583 61.5662L58.776 61.584L58.7854 61.5934L58.8032 61.6112L58.8126 61.6206L58.822 61.6299L58.8304 61.6384L58.8481 61.6571L58.8575 61.6655L58.8669 61.6749L58.8753 61.6843L58.8941 61.7021L58.9035 61.7115L58.9213 61.7293L58.939 61.7481L58.9484 61.7564L58.9662 61.7752L58.9756 61.7836L58.985 61.793L58.9934 61.8024L59.0122 61.8201L59.0205 61.8296L59.0299 61.8379L59.0394 61.8473L59.0571 61.8651L59.0665 61.8745L59.0843 61.8923L59.102 61.9111L59.1115 61.9194L59.1292 61.9382L59.1386 61.9466L59.148 61.956L59.1564 61.9654L59.1752 61.9831L59.1846 61.9926L59.2023 62.0103L59.2201 62.0281L59.2295 62.0375L59.2473 62.0563L59.2567 62.0647L59.2661 62.0741L59.2744 62.0835L59.2933 62.1013L59.3016 62.1106L59.311 62.119L59.3204 62.1284L59.3382 62.1462L59.3476 62.1556L59.3653 62.1733L59.3831 62.1921L59.3925 62.2005L59.4103 62.2193L59.4197 62.2277L59.4291 62.2371L59.4375 62.2465L59.4563 62.2643L59.4646 62.2737L59.474 62.282L59.4834 62.2914L59.5012 62.3092L59.5106 62.3186L59.5284 62.3374L59.5472 62.3552L59.5555 62.3635L59.5743 62.3823L59.5827 62.3917L59.5921 62.4001L59.6015 62.4095L59.6193 62.4272L59.6287 62.4367L59.6464 62.4544L59.6642 62.4732L59.6736 62.4816L59.6914 62.5004L59.7008 62.5087L59.7102 62.5182L59.7185 62.5275L59.7374 62.5453L59.7457 62.5547L59.7551 62.5631L59.7645 62.5725L59.7823 62.5902L59.7917 62.5997L59.8095 62.6174L59.8272 62.6362L59.8366 62.6446L59.8544 62.6634L59.8638 62.6717L59.8732 62.6812L59.8826 62.6906L59.9003 62.7084L59.9098 62.7177L59.9181 62.7261L59.9275 62.7355L59.9453 62.7543L59.9547 62.7627L59.9724 62.7815L59.9913 62.7992L59.9996 62.8087L60.0184 62.8264L60.0268 62.8358L60.0362 62.8442L60.0456 62.8536L60.0634 62.8714L60.0728 62.8807L60.0905 62.8985L60.1083 62.9174L60.1177 62.9257L60.1355 62.9445L60.1449 62.9529L60.1543 62.9623L60.1626 62.9717L60.1814 62.9894L60.1908 62.9989L60.1992 63.0072L60.2086 63.0166L60.2264 63.0354L60.2358 63.0438L60.2535 63.0626L60.2724 63.0803L60.2807 63.0897C60.5364 63.3572 60.7986 63.6192 61.0675 63.8755C61.7856 64.5579 62.5465 65.1938 63.3455 65.7794C63.4395 65.8483 63.5304 65.9215 63.6266 65.9884C63.7227 66.0552 63.799 66.1044 63.8847 66.1639C64.6171 66.6715 65.3772 67.1379 66.1615 67.561C66.9367 67.9811 67.7341 68.3589 68.5502 68.6926C71.4656 69.858 74.5767 70.4556 77.7163 70.4533C80.858 70.4557 83.9712 69.8581 86.8887 68.6926C89.6617 67.5718 92.198 65.937 94.3641 63.8745C96.5027 61.8467 98.2212 59.4178 99.4215 56.7261C100.645 53.9732 101.274 50.9936 101.269 47.9812H101.26H101.265Z" fill="#292F36"/>
<path d="M81.2709 42.5419C81.2759 43.8822 81.038 45.2123 80.5687 46.4677C80.127 47.6475 79.4725 48.7363 78.6377 49.6798C77.839 50.5827 76.8681 51.3169 75.7819 51.8396C74.6856 52.36 73.4877 52.6316 72.2741 52.6349C71.063 52.6303 69.8678 52.3588 68.7736 51.8396C67.6863 51.3183 66.7148 50.5839 65.9168 49.6798C65.0805 48.7374 64.4258 47.6483 63.9858 46.4677C63.5136 45.2128 63.2732 43.8827 63.2762 42.5419C63.2728 41.1984 63.5132 39.8655 63.9858 38.6078C64.4241 37.4273 65.079 36.339 65.9168 35.3988C66.716 34.4951 67.6872 33.7594 68.7736 33.2348C69.8678 32.7163 71.0633 32.4466 72.2741 32.4448V20.0635C69.1348 20.0595 66.0236 20.6553 63.108 21.819C60.3333 22.9442 57.795 24.5811 55.6253 26.6444C53.489 28.6683 51.7753 31.0958 50.5835 33.7865C49.3543 36.5415 48.7208 39.5251 48.7246 42.5419C48.7208 45.5554 49.3543 48.5355 50.5835 51.2869C51.7752 53.9795 53.4888 56.4091 55.6253 58.4352C57.7953 60.4963 60.3337 62.1308 63.108 63.2534C66.0233 64.4188 69.1345 65.0164 72.2741 65.0141C75.4157 65.0165 78.529 64.4189 81.4464 63.2534C84.2195 62.1325 86.7557 60.4978 88.9218 58.4352C91.0605 56.4075 92.779 53.9785 93.9793 51.2869C95.2024 48.534 95.8318 45.5543 95.8267 42.5419H81.2709Z" fill="#F3F3F3"/>
<path d="M95.8261 20.0635H83.333V32.5566H95.8261V20.0635Z" fill="#F3F3F3"/>
<path d="M19.0615 116.657C20.7657 117.607 22.1684 119.017 23.1095 120.726C24.117 122.6 24.6211 124.703 24.5724 126.83C24.6213 128.956 24.1173 131.059 23.1095 132.933C22.1688 134.642 20.7659 136.052 19.0615 137.002C17.3109 137.974 15.3368 138.473 13.3343 138.449C12.0721 138.514 10.8109 138.304 9.63801 137.833C8.46517 137.362 7.40883 136.642 6.54227 135.722V146.252H0V115.542H6.24969V118.143C7.12729 117.143 8.22295 116.358 9.45207 115.849C10.6812 115.34 12.0109 115.12 13.3385 115.207C15.3399 115.184 17.3126 115.684 19.0615 116.657ZM16.3353 131.38C17.4538 130.136 18.0346 128.5 17.9508 126.83C18.0344 125.159 17.4537 123.522 16.3353 122.278C15.8053 121.719 15.1631 121.279 14.4508 120.986C13.7385 120.693 12.9723 120.554 12.2026 120.579C11.433 120.554 10.6669 120.693 9.95473 120.986C9.24258 121.278 8.60057 121.719 8.07099 122.278C6.9522 123.522 6.3714 125.158 6.45553 126.83C6.37122 128.5 6.95207 130.136 8.07099 131.38C8.60023 131.94 9.24216 132.38 9.95438 132.674C10.6666 132.967 11.4329 133.105 12.2026 133.08C12.9727 133.105 13.7392 132.965 14.4516 132.672C15.1639 132.378 15.8059 131.937 16.3353 131.377V131.38Z" fill="#F3F3F3"/>
<path d="M28.9443 106.985H35.4877V138.111H28.9443V106.985Z" fill="#F3F3F3"/>
<path d="M64.301 115.542V138.112H58.0972V135.427C57.2435 136.398 56.183 137.165 54.9938 137.671C53.7603 138.195 52.4321 138.46 51.0921 138.448C49.8059 138.515 48.5194 138.323 47.3088 137.884C46.0983 137.444 44.9884 136.766 44.0451 135.889C42.3105 134.183 41.4439 131.653 41.4453 128.296V115.548H47.9886V127.335C47.9886 130.971 49.5128 132.79 52.5612 132.79C53.2634 132.819 53.9637 132.697 54.615 132.433C55.2662 132.169 55.8532 131.768 56.3365 131.258C57.3749 129.978 57.8848 128.35 57.7618 126.707V115.542H64.301Z" fill="#F3F3F3"/>
<path d="M75.6531 136.957C73.8002 136.024 72.2442 134.593 71.1599 132.825C70.0702 131.016 69.5108 128.937 69.5455 126.826C69.5108 124.715 70.0702 122.636 71.1599 120.827C72.2442 119.059 73.8002 117.628 75.6531 116.695C77.6601 115.682 79.8834 115.171 82.1316 115.206C84.3023 115.157 86.4489 115.67 88.3625 116.695C90.0949 117.642 91.4607 119.141 92.2423 120.954L87.1661 123.68C86.7021 122.734 85.9784 121.939 85.0794 121.389C84.1804 120.84 83.1434 120.557 82.0898 120.575C81.3067 120.551 80.527 120.688 79.7987 120.976C79.0703 121.265 78.4087 121.699 77.8547 122.253C77.2795 122.862 76.8341 123.581 76.5454 124.367C76.2567 125.153 76.1309 125.99 76.1755 126.826C76.1308 127.662 76.2566 128.498 76.5453 129.284C76.8339 130.07 77.2795 130.789 77.8547 131.398C78.4085 131.952 79.07 132.387 79.7984 132.676C80.5268 132.964 81.3066 133.101 82.0898 133.077C83.1448 133.102 84.1845 132.822 85.0848 132.271C85.985 131.721 86.7076 130.923 87.1661 129.972L92.2423 132.74C91.4377 134.522 90.0761 135.994 88.3625 136.936C86.4532 137.975 84.3048 138.496 82.1316 138.446C79.8833 138.482 77.66 137.971 75.6531 136.957Z" fill="#F3F3F3"/>
<path d="M96.4345 137.27C96.0483 136.887 95.7448 136.429 95.5426 135.924C95.3404 135.419 95.2439 134.878 95.2589 134.334C95.2373 133.793 95.3308 133.253 95.5335 132.75C95.7362 132.248 96.0433 131.794 96.4345 131.419C96.82 131.052 97.274 130.766 97.7705 130.575C98.267 130.384 98.7962 130.293 99.3279 130.307C100.402 130.279 101.443 130.679 102.222 131.419C102.613 131.794 102.92 132.248 103.122 132.75C103.325 133.253 103.418 133.793 103.397 134.334C103.412 134.878 103.315 135.419 103.113 135.924C102.911 136.429 102.608 136.887 102.222 137.27C101.846 137.653 101.394 137.955 100.897 138.157C100.399 138.359 99.865 138.457 99.3279 138.445C98.7909 138.457 98.2571 138.36 97.7595 138.158C97.2618 137.956 96.8109 137.654 96.4345 137.27Z" fill="#F3F3F3"/>
<path d="M122.23 137.019C121.518 137.527 120.713 137.89 119.861 138.089C118.893 138.33 117.9 138.45 116.903 138.445C114.639 138.59 112.407 137.853 110.674 136.39C109.901 135.594 109.306 134.645 108.927 133.603C108.547 132.561 108.392 131.451 108.472 130.345V121.075H104.99V116.041H108.472V110.546H115.015V116.041H120.637V121.075H115.015V130.262C114.962 131.063 115.225 131.853 115.747 132.463C116.019 132.731 116.345 132.939 116.703 133.073C117.06 133.207 117.443 133.264 117.824 133.24C118.774 133.268 119.705 132.973 120.466 132.404L122.23 137.019Z" fill="#F3F3F3"/>
<path d="M149.999 115.542L140.478 138.112H133.724L124.244 115.542H130.997L137.248 130.895L143.708 115.542H149.999Z" fill="#F3F3F3"/>
</svg>
